<?xml version="1.0" encoding="utf-8" standalone="no"?>
<!DOCTYPE svg PUBLIC "-//W3C//DTD SVG 1.1//EN"
  "http://www.w3.org/Graphics/SVG/1.1/DTD/svg11.dtd">
<svg xmlns:xlink="http://www.w3.org/1999/xlink" width="864pt" height="216pt" viewBox="0 0 864 216" xmlns="http://www.w3.org/2000/svg" version="1.1">
 <metadata>
  <rdf:RDF xmlns:dc="http://purl.org/dc/elements/1.1/" xmlns:cc="http://creativecommons.org/ns#" xmlns:rdf="http://www.w3.org/1999/02/22-rdf-syntax-ns#">
   <cc:Work>
    <dc:type rdf:resource="http://purl.org/dc/dcmitype/StillImage"/>
    <dc:date>2025-10-21T09:46:01.154648</dc:date>
    <dc:format>image/svg+xml</dc:format>
    <dc:creator>
     <cc:Agent>
      <dc:title>Matplotlib v3.10.5, https://matplotlib.org/</dc:title>
     </cc:Agent>
    </dc:creator>
   </cc:Work>
  </rdf:RDF>
 </metadata>
 <defs>
  <style type="text/css">*{stroke-linejoin: round; stroke-linecap: butt}</style>
 </defs>
 <g id="figure_1">
  <g id="patch_1">
   <path d="M 0 216 
L 864 216 
L 864 0 
L 0 0 
z
" style="fill: #ffffff"/>
  </g>
  <g id="axes_1">
   <g id="patch_2">
    <path d="M 33.72774 158.16351 
L 165.56976 158.16351 
L 165.56976 3.00024 
L 33.72774 3.00024 
z
" style="fill: #ffffff"/>
   </g>
   <g id="matplotlib.axis_1">
    <g id="xtick_1">
     <g id="line2d_1">
      <defs>
       <path id="mb2edcaa868" d="M 0 0 
L 0 3.5 
" style="stroke: #000000; stroke-width: 0.8"/>
      </defs>
      <g>
       <use xlink:href="#mb2edcaa868" x="64.749392" y="158.16351" style="stroke: #000000; stroke-width: 0.8"/>
      </g>
     </g>
     <g id="text_1">
      <!-- −6 -->
      <g transform="translate(50.007204 180.360385) scale(0.2 -0.2)">
       <defs>
        <path id="DejaVuSans-2212" d="M 678 2272 
L 4684 2272 
L 4684 1741 
L 678 1741 
L 678 2272 
z
" transform="scale(0.015625)"/>
        <path id="DejaVuSans-36" d="M 2113 2584 
Q 1688 2584 1439 2293 
Q 1191 2003 1191 1497 
Q 1191 994 1439 701 
Q 1688 409 2113 409 
Q 2538 409 2786 701 
Q 3034 994 3034 1497 
Q 3034 2003 2786 2293 
Q 2538 2584 2113 2584 
z
M 3366 4563 
L 3366 3988 
Q 3128 4100 2886 4159 
Q 2644 4219 2406 4219 
Q 1781 4219 1451 3797 
Q 1122 3375 1075 2522 
Q 1259 2794 1537 2939 
Q 1816 3084 2150 3084 
Q 2853 3084 3261 2657 
Q 3669 2231 3669 1497 
Q 3669 778 3244 343 
Q 2819 -91 2113 -91 
Q 1303 -91 875 529 
Q 447 1150 447 2328 
Q 447 3434 972 4092 
Q 1497 4750 2381 4750 
Q 2619 4750 2861 4703 
Q 3103 4656 3366 4563 
z
" transform="scale(0.015625)"/>
       </defs>
       <use xlink:href="#DejaVuSans-2212"/>
       <use xlink:href="#DejaVuSans-36" transform="translate(83.789062 0)"/>
      </g>
     </g>
    </g>
    <g id="xtick_2">
     <g id="line2d_2">
      <g>
       <use xlink:href="#mb2edcaa868" x="111.281869" y="158.16351" style="stroke: #000000; stroke-width: 0.8"/>
      </g>
     </g>
     <g id="text_2">
      <!-- −3 -->
      <g transform="translate(96.539682 180.360385) scale(0.2 -0.2)">
       <defs>
        <path id="DejaVuSans-33" d="M 2597 2516 
Q 3050 2419 3304 2112 
Q 3559 1806 3559 1356 
Q 3559 666 3084 287 
Q 2609 -91 1734 -91 
Q 1441 -91 1130 -33 
Q 819 25 488 141 
L 488 750 
Q 750 597 1062 519 
Q 1375 441 1716 441 
Q 2309 441 2620 675 
Q 2931 909 2931 1356 
Q 2931 1769 2642 2001 
Q 2353 2234 1838 2234 
L 1294 2234 
L 1294 2753 
L 1863 2753 
Q 2328 2753 2575 2939 
Q 2822 3125 2822 3475 
Q 2822 3834 2567 4026 
Q 2313 4219 1838 4219 
Q 1578 4219 1281 4162 
Q 984 4106 628 3988 
L 628 4550 
Q 988 4650 1302 4700 
Q 1616 4750 1894 4750 
Q 2613 4750 3031 4423 
Q 3450 4097 3450 3541 
Q 3450 3153 3228 2886 
Q 3006 2619 2597 2516 
z
" transform="scale(0.015625)"/>
       </defs>
       <use xlink:href="#DejaVuSans-2212"/>
       <use xlink:href="#DejaVuSans-33" transform="translate(83.789062 0)"/>
      </g>
     </g>
    </g>
    <g id="xtick_3">
     <g id="line2d_3">
      <g>
       <use xlink:href="#mb2edcaa868" x="157.814347" y="158.16351" style="stroke: #000000; stroke-width: 0.8"/>
      </g>
     </g>
     <g id="text_3">
      <!-- 0 -->
      <g transform="translate(151.451847 180.360385) scale(0.2 -0.2)">
       <defs>
        <path id="DejaVuSans-30" d="M 2034 4250 
Q 1547 4250 1301 3770 
Q 1056 3291 1056 2328 
Q 1056 1369 1301 889 
Q 1547 409 2034 409 
Q 2525 409 2770 889 
Q 3016 1369 3016 2328 
Q 3016 3291 2770 3770 
Q 2525 4250 2034 4250 
z
M 2034 4750 
Q 2819 4750 3233 4129 
Q 3647 3509 3647 2328 
Q 3647 1150 3233 529 
Q 2819 -91 2034 -91 
Q 1250 -91 836 529 
Q 422 1150 422 2328 
Q 422 3509 836 4129 
Q 1250 4750 2034 4750 
z
" transform="scale(0.015625)"/>
       </defs>
       <use xlink:href="#DejaVuSans-30"/>
      </g>
     </g>
    </g>
    <g id="text_4">
     <!-- $\dot{v}$ : $x$ -->
     <g transform="translate(73.72875 206.75601) scale(0.24 -0.24)">
      <defs>
       <path id="DejaVuSans-307" d="M -1894 4863 
L -1319 4863 
L -1319 4134 
L -1894 4134 
L -1894 4863 
z
M -1600 3584 
L -1600 3584 
z
" transform="scale(0.015625)"/>
       <path id="DejaVuSans-Oblique-76" d="M 459 3500 
L 1069 3500 
L 1581 525 
L 3256 3500 
L 3866 3500 
L 1875 0 
L 1100 0 
L 459 3500 
z
" transform="scale(0.015625)"/>
       <path id="DejaVuSans-20" transform="scale(0.015625)"/>
       <path id="DejaVuSans-3a" d="M 750 794 
L 1409 794 
L 1409 0 
L 750 0 
L 750 794 
z
M 750 3309 
L 1409 3309 
L 1409 2516 
L 750 2516 
L 750 3309 
z
" transform="scale(0.015625)"/>
       <path id="DejaVuSans-Oblique-78" d="M 3841 3500 
L 2234 1784 
L 3219 0 
L 2559 0 
L 1819 1388 
L 531 0 
L -166 0 
L 1556 1844 
L 641 3500 
L 1300 3500 
L 1972 2234 
L 3144 3500 
L 3841 3500 
z
" transform="scale(0.015625)"/>
      </defs>
      <use xlink:href="#DejaVuSans-307" transform="translate(62.388672 12.015625)"/>
      <use xlink:href="#DejaVuSans-Oblique-76" transform="translate(0 0.828125)"/>
      <use xlink:href="#DejaVuSans-20" transform="translate(59.179688 0.828125)"/>
      <use xlink:href="#DejaVuSans-3a" transform="translate(90.966797 0.828125)"/>
      <use xlink:href="#DejaVuSans-20" transform="translate(124.658203 0.828125)"/>
      <use xlink:href="#DejaVuSans-Oblique-78" transform="translate(156.445312 0.828125)"/>
     </g>
    </g>
   </g>
   <g id="matplotlib.axis_2">
    <g id="ytick_1">
     <g id="line2d_4"/>
    </g>
    <g id="text_5">
     <!--   -->
     <g transform="translate(21.23649 84.395625) rotate(-90) scale(0.24 -0.24)">
      <use xlink:href="#DejaVuSans-20"/>
     </g>
    </g>
   </g>
   <g id="line2d_5">
    <path d="M 79.386967 158.154373 
L 82.26953 158.004926 
L 84.431451 157.627276 
L 86.233053 157.352454 
L 87.674334 157.391522 
L 90.917217 157.703212 
L 92.358498 157.506081 
L 94.160099 157.012963 
L 95.60138 156.411061 
L 96.682341 155.701639 
L 97.763302 154.713661 
L 102.087146 150.224371 
L 103.528427 149.233421 
L 105.330028 148.128437 
L 106.050669 147.435899 
L 106.771309 146.413756 
L 107.49195 144.960179 
L 108.21259 143.016258 
L 109.293551 139.162809 
L 110.374512 134.277021 
L 111.815793 126.46062 
L 115.418996 105.45167 
L 116.860277 99.071462 
L 118.301559 92.758934 
L 119.022199 88.717411 
L 119.74284 83.661832 
L 120.823801 74.026302 
L 124.066683 42.037395 
L 124.787324 37.779962 
L 125.507964 35.25696 
L 125.868285 34.616171 
L 126.228605 34.345001 
L 126.588925 34.39798 
L 126.949246 34.724614 
L 127.669886 35.997466 
L 128.750847 38.856759 
L 129.831808 42.447677 
L 130.552448 45.381854 
L 131.273089 49.022968 
L 131.99373 53.643211 
L 132.71437 59.441471 
L 133.795331 70.366375 
L 135.596932 92.165104 
L 137.398534 113.059703 
L 138.839815 127.000064 
L 139.920776 135.757581 
L 141.001737 142.979209 
L 142.082698 148.527765 
L 142.803338 151.298321 
L 143.523979 153.399601 
L 144.244619 154.937849 
L 144.96526 156.03216 
L 145.685901 156.793106 
L 146.406541 157.311097 
L 147.487502 157.777479 
L 148.928783 158.052952 
L 151.090705 158.153467 
L 151.090705 158.153467 
" clip-path="url(#p9a766dd893)" style="fill: none; stroke: #ff0000; stroke-opacity: 0.8; stroke-linecap: square"/>
   </g>
   <g id="line2d_6">
    <path d="M -1 158.16351 
L 52.234188 158.083731 
L 55.866056 158.086371 
L 66.76166 158.11646 
L 72.209463 157.95641 
L 74.025397 157.793752 
L 75.841331 157.802143 
L 77.657265 157.929051 
L 79.473199 157.870477 
L 83.105067 157.16287 
L 84.921001 157.048679 
L 88.552869 157.246148 
L 90.368803 157.124378 
L 92.184737 156.505759 
L 94.000671 155.577395 
L 97.632539 154.602841 
L 99.448474 153.613031 
L 101.264408 151.952733 
L 103.080342 149.961783 
L 104.896276 148.177277 
L 106.71221 146.058975 
L 108.528144 142.095133 
L 110.344078 136.966167 
L 112.160012 131.423185 
L 113.975946 122.503524 
L 115.79188 110.922785 
L 123.055616 61.797136 
L 124.87155 45.859715 
L 126.687484 32.373784 
L 128.503419 26.644488 
L 130.319353 32.169746 
L 132.135287 47.682845 
L 133.951221 66.532056 
L 137.583089 111.948932 
L 139.399023 131.372271 
L 141.214957 144.73816 
L 143.030891 152.685933 
L 144.846825 156.540047 
L 146.662759 157.831276 
L 148.478693 158.126626 
L 150.294627 158.162005 
L 150.294627 158.162005 
" clip-path="url(#p9a766dd893)" style="fill: none; stroke: #000000; stroke-opacity: 0.4; stroke-linecap: square"/>
   </g>
   <g id="line2d_7">
    <path d="M 81.564401 158.154157 
L 84.345702 158.005458 
L 86.431678 157.627781 
L 88.169991 157.34109 
L 89.560641 157.371887 
L 93.037268 157.734062 
L 94.080256 157.468086 
L 95.123243 156.908032 
L 96.513894 155.811148 
L 98.252207 154.420878 
L 99.642858 153.648687 
L 102.771821 152.238993 
L 103.467147 151.680481 
L 104.162472 150.895455 
L 104.857797 149.819671 
L 105.553122 148.420872 
L 106.59611 145.769885 
L 108.334424 140.511935 
L 110.072737 134.775834 
L 111.115725 130.787223 
L 112.158712 126.077813 
L 113.549363 118.698662 
L 116.678327 101.437159 
L 118.764303 90.623689 
L 119.80729 83.735861 
L 120.850278 74.97811 
L 122.240929 60.934186 
L 123.979242 43.411965 
L 125.02223 35.276329 
L 125.717555 31.532143 
L 126.41288 29.382757 
L 126.760543 28.932859 
L 127.108206 28.89292 
L 127.455868 29.244143 
L 127.803531 29.95737 
L 128.498856 32.312447 
L 129.194182 35.602164 
L 130.584832 43.732274 
L 131.975483 53.351927 
L 133.018471 62.267956 
L 134.061458 73.190211 
L 136.147434 98.682838 
L 137.538085 114.602491 
L 138.928735 127.832751 
L 139.971723 136.016273 
L 141.014711 142.79117 
L 142.057699 148.11817 
L 143.100687 152.004638 
L 143.796012 153.873572 
L 144.491337 155.261013 
L 145.186663 156.260418 
L 145.881988 156.959373 
L 146.924976 157.603976 
L 147.967964 157.931986 
L 149.358614 158.106028 
L 150.749265 158.152746 
L 150.749265 158.152746 
" clip-path="url(#p9a766dd893)" style="fill: none; stroke-dasharray: 14.8,6.4; stroke-dashoffset: 0; stroke: #0000ff; stroke-opacity: 0.4; stroke-width: 4"/>
   </g>
   <g id="line2d_8">
    <path d="M 129.584697 157.734568 
L 129.601476 136.058021 
L 129.623847 139.861637 
L 129.640506 -1 
M 129.916344 -1 
L 129.955692 157.721026 
L 129.955692 157.721026 
" clip-path="url(#p9a766dd893)" style="fill: none; stroke-dasharray: 14.8,6.4; stroke-dashoffset: 0; stroke: #008000; stroke-opacity: 0.4; stroke-width: 4"/>
   </g>
   <g id="patch_3">
    <path d="M 33.72774 158.16351 
L 165.56976 158.16351 
" style="fill: none; stroke: #000000; stroke-width: 0.8; stroke-linejoin: miter; stroke-linecap: square"/>
   </g>
  </g>
  <g id="axes_2">
   <g id="patch_4">
    <path d="M 202.29774 158.16351 
L 334.13976 158.16351 
L 334.13976 3.00024 
L 202.29774 3.00024 
z
" style="fill: #ffffff"/>
   </g>
   <g id="matplotlib.axis_3">
    <g id="xtick_4">
     <g id="line2d_9">
      <g>
       <use xlink:href="#mb2edcaa868" x="202.29774" y="158.16351" style="stroke: #000000; stroke-width: 0.8"/>
      </g>
     </g>
     <g id="text_6">
      <!-- −2 -->
      <g transform="translate(187.555553 180.360385) scale(0.2 -0.2)">
       <defs>
        <path id="DejaVuSans-32" d="M 1228 531 
L 3431 531 
L 3431 0 
L 469 0 
L 469 531 
Q 828 903 1448 1529 
Q 2069 2156 2228 2338 
Q 2531 2678 2651 2914 
Q 2772 3150 2772 3378 
Q 2772 3750 2511 3984 
Q 2250 4219 1831 4219 
Q 1534 4219 1204 4116 
Q 875 4013 500 3803 
L 500 4441 
Q 881 4594 1212 4672 
Q 1544 4750 1819 4750 
Q 2544 4750 2975 4387 
Q 3406 4025 3406 3419 
Q 3406 3131 3298 2873 
Q 3191 2616 2906 2266 
Q 2828 2175 2409 1742 
Q 1991 1309 1228 531 
z
" transform="scale(0.015625)"/>
       </defs>
       <use xlink:href="#DejaVuSans-2212"/>
       <use xlink:href="#DejaVuSans-32" transform="translate(83.789062 0)"/>
      </g>
     </g>
    </g>
    <g id="xtick_5">
     <g id="line2d_10">
      <g>
       <use xlink:href="#mb2edcaa868" x="255.034548" y="158.16351" style="stroke: #000000; stroke-width: 0.8"/>
      </g>
     </g>
     <g id="text_7">
      <!-- −1 -->
      <g transform="translate(240.292361 180.360385) scale(0.2 -0.2)">
       <defs>
        <path id="DejaVuSans-31" d="M 794 531 
L 1825 531 
L 1825 4091 
L 703 3866 
L 703 4441 
L 1819 4666 
L 2450 4666 
L 2450 531 
L 3481 531 
L 3481 0 
L 794 0 
L 794 531 
z
" transform="scale(0.015625)"/>
       </defs>
       <use xlink:href="#DejaVuSans-2212"/>
       <use xlink:href="#DejaVuSans-31" transform="translate(83.789062 0)"/>
      </g>
     </g>
    </g>
    <g id="xtick_6">
     <g id="line2d_11">
      <g>
       <use xlink:href="#mb2edcaa868" x="307.771356" y="158.16351" style="stroke: #000000; stroke-width: 0.8"/>
      </g>
     </g>
     <g id="text_8">
      <!-- 0 -->
      <g transform="translate(301.408856 180.360385) scale(0.2 -0.2)">
       <use xlink:href="#DejaVuSans-30"/>
      </g>
     </g>
    </g>
    <g id="text_9">
     <!-- $\dot{v}$ : $v$ -->
     <g transform="translate(242.29875 206.75601) scale(0.24 -0.24)">
      <use xlink:href="#DejaVuSans-307" transform="translate(62.388672 12.015625)"/>
      <use xlink:href="#DejaVuSans-Oblique-76" transform="translate(0 0.828125)"/>
      <use xlink:href="#DejaVuSans-20" transform="translate(59.179688 0.828125)"/>
      <use xlink:href="#DejaVuSans-3a" transform="translate(90.966797 0.828125)"/>
      <use xlink:href="#DejaVuSans-20" transform="translate(124.658203 0.828125)"/>
      <use xlink:href="#DejaVuSans-Oblique-76" transform="translate(156.445312 0.828125)"/>
     </g>
    </g>
   </g>
   <g id="matplotlib.axis_4">
    <g id="ytick_2">
     <g id="line2d_12"/>
    </g>
    <g id="text_10">
     <!--   -->
     <g transform="translate(189.80649 84.395625) rotate(-90) scale(0.24 -0.24)">
      <use xlink:href="#DejaVuSans-20"/>
     </g>
    </g>
   </g>
   <g id="line2d_13">
    <path d="M 249.533977 158.150379 
L 251.194729 157.993529 
L 252.14373 157.676629 
L 253.092732 157.119589 
L 254.753484 156.086972 
L 255.465235 155.921307 
L 256.176986 155.967361 
L 258.54949 156.363099 
L 259.261241 156.175377 
L 259.972992 155.754749 
L 261.159244 154.685149 
L 262.345495 153.696041 
L 263.768997 152.609553 
L 264.480748 151.657337 
L 265.192499 150.288274 
L 266.141501 147.953346 
L 267.802253 143.155005 
L 269.225755 138.435234 
L 269.937506 135.460934 
L 270.649257 131.591723 
L 271.361009 126.408317 
L 272.07276 119.680755 
L 273.259011 105.769358 
L 274.682513 89.319869 
L 275.631515 80.881085 
L 276.817766 70.943535 
L 277.766768 60.501696 
L 279.664771 37.769929 
L 280.376522 32.617555 
L 280.851022 30.533162 
L 281.325523 29.330035 
L 281.800024 28.863814 
L 282.037274 28.901048 
L 282.274524 29.138203 
L 282.511775 29.602611 
L 282.986276 31.348952 
L 283.460776 34.39662 
L 283.935277 38.870537 
L 284.647028 47.942233 
L 288.680284 108.439104 
L 290.341036 134.635001 
L 291.052787 143.162851 
L 291.764538 149.345748 
L 292.476289 153.39939 
L 292.95079 155.155502 
L 293.425291 156.342342 
L 293.899791 157.108882 
L 294.374292 157.580995 
L 295.086043 157.946116 
L 296.035045 158.115394 
L 296.746796 158.150256 
L 296.746796 158.150256 
" clip-path="url(#p6ee1bb94e3)" style="fill: none; stroke: #ff0000; stroke-opacity: 0.8; stroke-linecap: square"/>
   </g>
   <g id="line2d_14">
    <path d="M -1 158.16351 
L 225.645615 158.111845 
L 228.89365 158.080434 
L 233.765702 158.084687 
L 245.133825 157.70351 
L 246.757842 157.913901 
L 248.38186 157.921106 
L 253.253912 156.907049 
L 254.87793 156.729821 
L 256.501947 156.22783 
L 259.749982 153.961502 
L 261.374 153.686486 
L 262.998017 152.468929 
L 264.622035 150.332375 
L 266.246052 146.440309 
L 267.87007 141.334124 
L 269.494087 136.924297 
L 271.118105 131.022971 
L 272.742122 122.391085 
L 274.36614 108.034679 
L 277.614175 71.824222 
L 280.86221 33.286189 
L 282.486227 18.114203 
L 284.110245 20.249057 
L 285.734262 42.861606 
L 287.35828 78.456851 
L 288.982297 116.702447 
L 290.606315 143.843994 
L 292.230332 155.159712 
L 293.85435 157.825968 
L 295.478367 158.137476 
L 297.102385 158.162751 
L 297.102385 158.162751 
" clip-path="url(#p6ee1bb94e3)" style="fill: none; stroke: #000000; stroke-opacity: 0.4; stroke-linecap: square"/>
   </g>
   <g id="line2d_15">
    <path d="M 250.45427 158.154307 
L 252.358914 158.028826 
L 253.787398 157.695593 
L 257.358607 156.503591 
L 258.072848 155.942647 
L 259.263251 154.650385 
L 260.215573 153.681867 
L 260.929815 153.232171 
L 261.644057 153.079376 
L 263.310621 152.996768 
L 263.786782 152.669466 
L 264.262943 152.09339 
L 264.977185 150.791151 
L 268.072233 143.746035 
L 268.786474 141.791584 
L 269.500716 139.23388 
L 270.214958 135.926102 
L 271.16728 130.214785 
L 272.119602 122.735748 
L 273.071925 113.268952 
L 276.405053 77.674593 
L 278.785859 55.132948 
L 279.976261 44.171401 
L 280.690503 39.00451 
L 281.404745 35.459395 
L 281.880906 34.15695 
L 282.118987 33.854877 
L 282.357067 33.79783 
L 282.595148 33.993497 
L 282.833228 34.447557 
L 283.30939 36.139004 
L 283.785551 38.851245 
L 284.499792 44.635608 
L 285.452115 54.805824 
L 286.642518 70.136518 
L 288.309082 94.992746 
L 290.213726 122.993606 
L 291.166049 134.268171 
L 292.118371 143.229199 
L 293.070693 149.880298 
L 293.784935 153.365766 
L 294.499177 155.667678 
L 294.975338 156.652703 
L 295.451499 157.29939 
L 296.165741 157.829215 
L 296.879982 158.051036 
L 297.832305 158.142498 
L 297.832305 158.142498 
" clip-path="url(#p6ee1bb94e3)" style="fill: none; stroke-dasharray: 14.8,6.4; stroke-dashoffset: 0; stroke: #0000ff; stroke-opacity: 0.4; stroke-width: 4"/>
   </g>
   <g id="line2d_16">
    <path d="M 297.086927 158.054922 
L 297.119074 155.839207 
L 297.18337 121.054651 
L 297.262284 -1 
M 297.965643 -1 
L 298.115653 152.024161 
L 298.153158 157.973284 
L 298.153158 157.973284 
" clip-path="url(#p6ee1bb94e3)" style="fill: none; stroke-dasharray: 14.8,6.4; stroke-dashoffset: 0; stroke: #008000; stroke-opacity: 0.4; stroke-width: 4"/>
   </g>
   <g id="patch_5">
    <path d="M 202.29774 158.16351 
L 334.13976 158.16351 
" style="fill: none; stroke: #000000; stroke-width: 0.8; stroke-linejoin: miter; stroke-linecap: square"/>
   </g>
  </g>
  <g id="axes_3">
   <g id="patch_6">
    <path d="M 370.86774 158.16351 
L 502.70976 158.16351 
L 502.70976 3.00024 
L 370.86774 3.00024 
z
" style="fill: #ffffff"/>
   </g>
   <g id="matplotlib.axis_5">
    <g id="xtick_7">
     <g id="line2d_17">
      <g>
       <use xlink:href="#mb2edcaa868" x="397.236144" y="158.16351" style="stroke: #000000; stroke-width: 0.8"/>
      </g>
     </g>
     <g id="text_11">
      <!-- 0 -->
      <g transform="translate(390.873644 180.360385) scale(0.2 -0.2)">
       <use xlink:href="#DejaVuSans-30"/>
      </g>
     </g>
    </g>
    <g id="xtick_8">
     <g id="line2d_18">
      <g>
       <use xlink:href="#mb2edcaa868" x="449.972952" y="158.16351" style="stroke: #000000; stroke-width: 0.8"/>
      </g>
     </g>
     <g id="text_12">
      <!-- 1 -->
      <g transform="translate(443.610452 180.360385) scale(0.2 -0.2)">
       <use xlink:href="#DejaVuSans-31"/>
      </g>
     </g>
    </g>
    <g id="xtick_9">
     <g id="line2d_19">
      <g>
       <use xlink:href="#mb2edcaa868" x="502.70976" y="158.16351" style="stroke: #000000; stroke-width: 0.8"/>
      </g>
     </g>
     <g id="text_13">
      <!-- 2 -->
      <g transform="translate(496.34726 180.360385) scale(0.2 -0.2)">
       <use xlink:href="#DejaVuSans-32"/>
      </g>
     </g>
    </g>
    <g id="text_14">
     <!-- $\dot{v}$ : $cos(\omega \cdot t)$ -->
     <g transform="translate(365.14875 208.00851) scale(0.24 -0.24)">
      <defs>
       <path id="DejaVuSans-Oblique-63" d="M 3431 3366 
L 3316 2797 
Q 3109 2947 2876 3022 
Q 2644 3097 2394 3097 
Q 2119 3097 1870 3000 
Q 1622 2903 1453 2725 
Q 1184 2453 1037 2087 
Q 891 1722 891 1331 
Q 891 859 1127 628 
Q 1363 397 1844 397 
Q 2081 397 2348 469 
Q 2616 541 2906 684 
L 2797 116 
Q 2547 13 2283 -39 
Q 2019 -91 1741 -91 
Q 1044 -91 669 257 
Q 294 606 294 1253 
Q 294 1797 489 2255 
Q 684 2713 1069 3078 
Q 1331 3328 1684 3456 
Q 2038 3584 2456 3584 
Q 2700 3584 2940 3529 
Q 3181 3475 3431 3366 
z
" transform="scale(0.015625)"/>
       <path id="DejaVuSans-Oblique-6f" d="M 1625 -91 
Q 1009 -91 651 289 
Q 294 669 294 1325 
Q 294 1706 417 2101 
Q 541 2497 738 2766 
Q 1047 3184 1428 3384 
Q 1809 3584 2291 3584 
Q 2888 3584 3255 3212 
Q 3622 2841 3622 2241 
Q 3622 1825 3500 1412 
Q 3378 1000 3181 728 
Q 2875 309 2494 109 
Q 2113 -91 1625 -91 
z
M 891 1344 
Q 891 869 1089 633 
Q 1288 397 1691 397 
Q 2269 397 2648 901 
Q 3028 1406 3028 2181 
Q 3028 2634 2825 2865 
Q 2622 3097 2228 3097 
Q 1903 3097 1650 2945 
Q 1397 2794 1197 2484 
Q 1050 2253 970 1956 
Q 891 1659 891 1344 
z
" transform="scale(0.015625)"/>
       <path id="DejaVuSans-Oblique-73" d="M 3200 3397 
L 3091 2853 
Q 2863 2978 2609 3040 
Q 2356 3103 2088 3103 
Q 1634 3103 1373 2948 
Q 1113 2794 1113 2528 
Q 1113 2219 1719 2053 
Q 1766 2041 1788 2034 
L 1972 1978 
Q 2547 1819 2739 1644 
Q 2931 1469 2931 1166 
Q 2931 609 2489 259 
Q 2047 -91 1331 -91 
Q 1053 -91 747 -37 
Q 441 16 72 128 
L 184 722 
Q 500 559 806 475 
Q 1113 391 1394 391 
Q 1816 391 2080 572 
Q 2344 753 2344 1031 
Q 2344 1331 1650 1516 
L 1591 1531 
L 1394 1581 
Q 956 1697 753 1886 
Q 550 2075 550 2369 
Q 550 2928 970 3256 
Q 1391 3584 2113 3584 
Q 2397 3584 2667 3537 
Q 2938 3491 3200 3397 
z
" transform="scale(0.015625)"/>
       <path id="DejaVuSans-28" d="M 1984 4856 
Q 1566 4138 1362 3434 
Q 1159 2731 1159 2009 
Q 1159 1288 1364 580 
Q 1569 -128 1984 -844 
L 1484 -844 
Q 1016 -109 783 600 
Q 550 1309 550 2009 
Q 550 2706 781 3412 
Q 1013 4119 1484 4856 
L 1984 4856 
z
" transform="scale(0.015625)"/>
       <path id="DejaVuSans-Oblique-3c9" d="M 1369 -91 
Q 72 -91 434 1766 
Q 575 2500 1256 3500 
L 1875 3500 
Q 1231 2500 1088 1750 
Q 819 397 1519 397 
Q 2166 397 2478 2078 
L 3009 2078 
Q 2669 388 3316 397 
Q 4013 403 4275 1750 
Q 4419 2500 4169 3500 
L 4788 3500 
Q 5075 2500 4934 1766 
Q 4578 -94 3278 -91 
Q 2428 -88 2503 844 
Q 2194 -91 1369 -91 
z
" transform="scale(0.015625)"/>
       <path id="DejaVuSans-22c5" d="M 684 2619 
L 1344 2619 
L 1344 1825 
L 684 1825 
L 684 2619 
z
" transform="scale(0.015625)"/>
       <path id="DejaVuSans-Oblique-74" d="M 2706 3500 
L 2619 3053 
L 1472 3053 
L 1100 1153 
Q 1081 1047 1072 975 
Q 1063 903 1063 863 
Q 1063 663 1183 572 
Q 1303 481 1569 481 
L 2150 481 
L 2053 0 
L 1503 0 
Q 991 0 739 200 
Q 488 400 488 806 
Q 488 878 497 964 
Q 506 1050 525 1153 
L 897 3053 
L 409 3053 
L 500 3500 
L 978 3500 
L 1172 4494 
L 1747 4494 
L 1556 3500 
L 2706 3500 
z
" transform="scale(0.015625)"/>
       <path id="DejaVuSans-29" d="M 513 4856 
L 1013 4856 
Q 1481 4119 1714 3412 
Q 1947 2706 1947 2009 
Q 1947 1309 1714 600 
Q 1481 -109 1013 -844 
L 513 -844 
Q 928 -128 1133 580 
Q 1338 1288 1338 2009 
Q 1338 2731 1133 3434 
Q 928 4138 513 4856 
z
" transform="scale(0.015625)"/>
      </defs>
      <use xlink:href="#DejaVuSans-307" transform="translate(62.388672 12.015625)"/>
      <use xlink:href="#DejaVuSans-Oblique-76" transform="translate(0 0.828125)"/>
      <use xlink:href="#DejaVuSans-20" transform="translate(59.179688 0.828125)"/>
      <use xlink:href="#DejaVuSans-3a" transform="translate(90.966797 0.828125)"/>
      <use xlink:href="#DejaVuSans-20" transform="translate(124.658203 0.828125)"/>
      <use xlink:href="#DejaVuSans-Oblique-63" transform="translate(156.445312 0.828125)"/>
      <use xlink:href="#DejaVuSans-Oblique-6f" transform="translate(211.425781 0.828125)"/>
      <use xlink:href="#DejaVuSans-Oblique-73" transform="translate(272.607422 0.828125)"/>
      <use xlink:href="#DejaVuSans-28" transform="translate(324.707031 0.828125)"/>
      <use xlink:href="#DejaVuSans-Oblique-3c9" transform="translate(363.720703 0.828125)"/>
      <use xlink:href="#DejaVuSans-22c5" transform="translate(466.943359 0.828125)"/>
      <use xlink:href="#DejaVuSans-Oblique-74" transform="translate(518.212891 0.828125)"/>
      <use xlink:href="#DejaVuSans-29" transform="translate(557.421875 0.828125)"/>
     </g>
    </g>
   </g>
   <g id="matplotlib.axis_6">
    <g id="ytick_3">
     <g id="line2d_20"/>
    </g>
    <g id="text_15">
     <!--   -->
     <g transform="translate(358.37649 84.395625) rotate(-90) scale(0.24 -0.24)">
      <use xlink:href="#DejaVuSans-20"/>
     </g>
    </g>
   </g>
   <g id="line2d_21">
    <path d="M 385.5185 157.161311 
L 386.298206 156.371413 
L 387.077912 155.084118 
L 387.857618 153.078821 
L 388.637324 150.095627 
L 389.417031 145.862219 
L 390.196737 140.14007 
L 390.976443 132.787663 
L 392.146002 118.822124 
L 395.654679 72.551978 
L 396.434386 66.965158 
L 396.824239 65.432394 
L 397.214092 64.808389 
L 397.603945 65.111646 
L 397.993798 66.333121 
L 398.383651 68.436656 
L 399.163357 75.021549 
L 399.943063 84.130519 
L 401.892328 111.608261 
L 403.061887 126.832448 
L 404.231447 138.752002 
L 405.011153 144.56677 
L 405.790859 148.738719 
L 406.570565 151.432121 
L 406.960418 152.283281 
L 407.350271 152.833288 
L 407.740124 153.100442 
L 408.129977 153.099203 
L 408.51983 152.839804 
L 408.909683 152.328166 
L 409.299536 151.566088 
L 410.079242 149.279893 
L 410.858949 145.933358 
L 411.638655 141.45505 
L 412.418361 135.779029 
L 413.58792 124.965868 
L 414.757479 111.56363 
L 416.316891 90.722004 
L 419.045863 53.758032 
L 420.215422 41.402582 
L 420.995128 35.279831 
L 421.774834 31.136978 
L 422.164687 29.849967 
L 422.55454 29.092811 
L 422.944393 28.86097 
L 423.334246 29.142425 
L 423.724099 29.918184 
L 424.113952 31.162962 
L 424.893659 34.93223 
L 425.673365 40.157396 
L 426.842924 50.002691 
L 428.792189 69.145402 
L 431.521161 95.832994 
L 433.080573 109.296014 
L 434.639985 120.929467 
L 435.809544 128.3287 
L 436.979103 134.565634 
L 438.148662 139.687515 
L 439.318222 143.800291 
L 440.487781 147.046324 
L 441.65734 149.576524 
L 442.826899 151.528007 
L 443.996458 153.013334 
L 445.166017 154.12129 
L 446.335577 154.925156 
L 447.505136 155.492833 
L 449.064548 156.00142 
L 453.742785 157.088149 
L 456.861609 157.748213 
L 459.200727 158.023676 
L 462.319552 158.144347 
L 463.099258 158.152933 
L 463.099258 158.152933 
" clip-path="url(#pc346cac7f7)" style="fill: none; stroke: #ff0000; stroke-opacity: 0.8; stroke-linecap: square"/>
   </g>
   <g id="line2d_22">
    <path d="M 390.486837 156.362615 
L 392.226387 144.578141 
L 393.965938 101.798713 
L 395.705488 29.546633 
L 397.325668 -1 
M 397.523338 -1 
L 399.184589 46.749846 
L 400.924139 115.868518 
L 402.66369 149.332841 
L 404.40324 157.149085 
L 406.142791 158.092443 
L 407.882341 158.081015 
L 409.621892 157.549806 
L 411.361442 154.923801 
L 413.100993 146.037676 
L 414.840543 125.150385 
L 416.580093 90.762966 
L 418.319644 50.891351 
L 420.059194 18.903623 
L 421.798745 4.293265 
L 423.538295 8.650405 
L 425.277846 26.65756 
L 428.756946 74.27222 
L 430.496497 94.944368 
L 432.236047 111.615532 
L 433.975598 124.354768 
L 435.715148 133.432813 
L 437.454699 139.834311 
L 439.194249 144.825241 
L 440.9338 148.785459 
L 442.67335 151.588983 
L 444.4129 153.436797 
L 446.152451 154.694531 
L 447.892001 155.543064 
L 451.371102 156.621676 
L 453.110653 157.125275 
L 454.850203 157.506466 
L 456.589753 157.695657 
L 461.808405 157.730717 
L 465.287506 157.660832 
L 470.506157 158.050052 
L 494.859863 158.11982 
L 505.297166 158.14469 
L 515.734468 158.153519 
L 524.43222 158.156607 
L 559.223229 158.16351 
L 736.657374 158.16291 
L 736.657374 158.16291 
" clip-path="url(#pc346cac7f7)" style="fill: none; stroke: #000000; stroke-opacity: 0.4; stroke-linecap: square"/>
   </g>
   <g id="line2d_23">
    <path d="M 381.540453 158.070991 
L 382.766824 157.899911 
L 383.584405 157.65916 
L 384.401985 157.235509 
L 385.219566 156.52111 
L 386.037146 155.367081 
L 386.854727 153.582158 
L 387.672307 150.940634 
L 388.489888 147.203668 
L 389.307468 142.156279 
L 390.125049 135.658713 
L 391.351419 123.232275 
L 392.98658 103.215576 
L 394.621741 83.947033 
L 395.439322 76.711768 
L 395.848112 74.049296 
L 396.256902 72.127722 
L 396.665693 71.001846 
L 397.074483 70.704542 
L 397.483273 71.245156 
L 397.892063 72.609008 
L 398.300854 74.758028 
L 399.118434 81.153792 
L 399.936015 89.74951 
L 403.615127 133.061334 
L 404.432707 139.863325 
L 405.250288 145.022425 
L 406.067868 148.567173 
L 406.476659 149.76408 
L 406.885449 150.596596 
L 407.294239 151.078363 
L 407.703029 151.220953 
L 408.11182 151.033088 
L 408.52061 150.520246 
L 408.9294 149.684627 
L 409.746981 147.039526 
L 410.564561 143.067945 
L 411.382142 137.732257 
L 412.199722 131.023322 
L 413.426093 118.52971 
L 415.061254 98.367462 
L 417.922785 61.571723 
L 419.149156 48.814475 
L 419.966737 42.121078 
L 420.784317 37.091392 
L 421.601898 33.824467 
L 422.010688 32.865912 
L 422.419478 32.358042 
L 422.828268 32.29765 
L 423.237059 32.678606 
L 423.645849 33.491818 
L 424.054639 34.725135 
L 424.87222 38.387544 
L 425.6898 43.504171 
L 426.916171 53.43116 
L 428.551332 69.481246 
L 432.230444 107.008765 
L 433.456815 117.522335 
L 434.683186 126.392555 
L 435.909556 133.534606 
L 437.135927 139.062619 
L 438.362298 143.245195 
L 439.588669 146.420453 
L 440.815039 148.9002 
L 442.04141 150.903558 
L 443.267781 152.543379 
L 444.494152 153.858827 
L 445.720522 154.865886 
L 446.946893 155.595992 
L 448.582054 156.2427 
L 450.626005 156.76766 
L 455.122698 157.656098 
L 457.98423 158.001346 
L 461.254552 158.139184 
L 462.889713 158.156181 
L 462.889713 158.156181 
" clip-path="url(#pc346cac7f7)" style="fill: none; stroke-dasharray: 14.8,6.4; stroke-dashoffset: 0; stroke: #0000ff; stroke-opacity: 0.4; stroke-width: 4"/>
   </g>
   <g id="line2d_24">
    <path d="M 400.651697 157.875644 
L 400.678306 151.788894 
L 400.72709 42.288738 
L 400.738987 -1 
M 401.437013 -1 
L 401.534236 157.941107 
L 401.534236 157.941107 
" clip-path="url(#pc346cac7f7)" style="fill: none; stroke-dasharray: 14.8,6.4; stroke-dashoffset: 0; stroke: #008000; stroke-opacity: 0.4; stroke-width: 4"/>
   </g>
   <g id="patch_7">
    <path d="M 370.86774 158.16351 
L 502.70976 158.16351 
" style="fill: none; stroke: #000000; stroke-width: 0.8; stroke-linejoin: miter; stroke-linecap: square"/>
   </g>
   <g id="legend_1">
    <g id="patch_8">
     <path d="M 519.50976 170.153202 
L 856.19976 170.153202 
Q 860.99976 170.153202 860.99976 165.353202 
L 860.99976 26.843202 
Q 860.99976 22.043202 856.19976 22.043202 
L 519.50976 22.043202 
Q 514.70976 22.043202 514.70976 26.843202 
L 514.70976 165.353202 
Q 514.70976 170.153202 519.50976 170.153202 
z
" style="fill: #ffffff; opacity: 0.8; stroke: #cccccc; stroke-linejoin: miter"/>
    </g>
    <g id="line2d_25">
     <path d="M 524.30976 41.479452 
L 548.30976 41.479452 
L 572.30976 41.479452 
" style="fill: none; stroke: #ff0000; stroke-opacity: 0.8; stroke-linecap: square"/>
    </g>
    <g id="text_16">
     <!-- Observed Data -->
     <g transform="translate(591.50976 49.879452) scale(0.24 -0.24)">
      <defs>
       <path id="DejaVuSans-4f" d="M 2522 4238 
Q 1834 4238 1429 3725 
Q 1025 3213 1025 2328 
Q 1025 1447 1429 934 
Q 1834 422 2522 422 
Q 3209 422 3611 934 
Q 4013 1447 4013 2328 
Q 4013 3213 3611 3725 
Q 3209 4238 2522 4238 
z
M 2522 4750 
Q 3503 4750 4090 4092 
Q 4678 3434 4678 2328 
Q 4678 1225 4090 567 
Q 3503 -91 2522 -91 
Q 1538 -91 948 565 
Q 359 1222 359 2328 
Q 359 3434 948 4092 
Q 1538 4750 2522 4750 
z
" transform="scale(0.015625)"/>
       <path id="DejaVuSans-62" d="M 3116 1747 
Q 3116 2381 2855 2742 
Q 2594 3103 2138 3103 
Q 1681 3103 1420 2742 
Q 1159 2381 1159 1747 
Q 1159 1113 1420 752 
Q 1681 391 2138 391 
Q 2594 391 2855 752 
Q 3116 1113 3116 1747 
z
M 1159 2969 
Q 1341 3281 1617 3432 
Q 1894 3584 2278 3584 
Q 2916 3584 3314 3078 
Q 3713 2572 3713 1747 
Q 3713 922 3314 415 
Q 2916 -91 2278 -91 
Q 1894 -91 1617 61 
Q 1341 213 1159 525 
L 1159 0 
L 581 0 
L 581 4863 
L 1159 4863 
L 1159 2969 
z
" transform="scale(0.015625)"/>
       <path id="DejaVuSans-73" d="M 2834 3397 
L 2834 2853 
Q 2591 2978 2328 3040 
Q 2066 3103 1784 3103 
Q 1356 3103 1142 2972 
Q 928 2841 928 2578 
Q 928 2378 1081 2264 
Q 1234 2150 1697 2047 
L 1894 2003 
Q 2506 1872 2764 1633 
Q 3022 1394 3022 966 
Q 3022 478 2636 193 
Q 2250 -91 1575 -91 
Q 1294 -91 989 -36 
Q 684 19 347 128 
L 347 722 
Q 666 556 975 473 
Q 1284 391 1588 391 
Q 1994 391 2212 530 
Q 2431 669 2431 922 
Q 2431 1156 2273 1281 
Q 2116 1406 1581 1522 
L 1381 1569 
Q 847 1681 609 1914 
Q 372 2147 372 2553 
Q 372 3047 722 3315 
Q 1072 3584 1716 3584 
Q 2034 3584 2315 3537 
Q 2597 3491 2834 3397 
z
" transform="scale(0.015625)"/>
       <path id="DejaVuSans-65" d="M 3597 1894 
L 3597 1613 
L 953 1613 
Q 991 1019 1311 708 
Q 1631 397 2203 397 
Q 2534 397 2845 478 
Q 3156 559 3463 722 
L 3463 178 
Q 3153 47 2828 -22 
Q 2503 -91 2169 -91 
Q 1331 -91 842 396 
Q 353 884 353 1716 
Q 353 2575 817 3079 
Q 1281 3584 2069 3584 
Q 2775 3584 3186 3129 
Q 3597 2675 3597 1894 
z
M 3022 2063 
Q 3016 2534 2758 2815 
Q 2500 3097 2075 3097 
Q 1594 3097 1305 2825 
Q 1016 2553 972 2059 
L 3022 2063 
z
" transform="scale(0.015625)"/>
       <path id="DejaVuSans-72" d="M 2631 2963 
Q 2534 3019 2420 3045 
Q 2306 3072 2169 3072 
Q 1681 3072 1420 2755 
Q 1159 2438 1159 1844 
L 1159 0 
L 581 0 
L 581 3500 
L 1159 3500 
L 1159 2956 
Q 1341 3275 1631 3429 
Q 1922 3584 2338 3584 
Q 2397 3584 2469 3576 
Q 2541 3569 2628 3553 
L 2631 2963 
z
" transform="scale(0.015625)"/>
       <path id="DejaVuSans-76" d="M 191 3500 
L 800 3500 
L 1894 563 
L 2988 3500 
L 3597 3500 
L 2284 0 
L 1503 0 
L 191 3500 
z
" transform="scale(0.015625)"/>
       <path id="DejaVuSans-64" d="M 2906 2969 
L 2906 4863 
L 3481 4863 
L 3481 0 
L 2906 0 
L 2906 525 
Q 2725 213 2448 61 
Q 2172 -91 1784 -91 
Q 1150 -91 751 415 
Q 353 922 353 1747 
Q 353 2572 751 3078 
Q 1150 3584 1784 3584 
Q 2172 3584 2448 3432 
Q 2725 3281 2906 2969 
z
M 947 1747 
Q 947 1113 1208 752 
Q 1469 391 1925 391 
Q 2381 391 2643 752 
Q 2906 1113 2906 1747 
Q 2906 2381 2643 2742 
Q 2381 3103 1925 3103 
Q 1469 3103 1208 2742 
Q 947 2381 947 1747 
z
" transform="scale(0.015625)"/>
       <path id="DejaVuSans-44" d="M 1259 4147 
L 1259 519 
L 2022 519 
Q 2988 519 3436 956 
Q 3884 1394 3884 2338 
Q 3884 3275 3436 3711 
Q 2988 4147 2022 4147 
L 1259 4147 
z
M 628 4666 
L 1925 4666 
Q 3281 4666 3915 4102 
Q 4550 3538 4550 2338 
Q 4550 1131 3912 565 
Q 3275 0 1925 0 
L 628 0 
L 628 4666 
z
" transform="scale(0.015625)"/>
       <path id="DejaVuSans-61" d="M 2194 1759 
Q 1497 1759 1228 1600 
Q 959 1441 959 1056 
Q 959 750 1161 570 
Q 1363 391 1709 391 
Q 2188 391 2477 730 
Q 2766 1069 2766 1631 
L 2766 1759 
L 2194 1759 
z
M 3341 1997 
L 3341 0 
L 2766 0 
L 2766 531 
Q 2569 213 2275 61 
Q 1981 -91 1556 -91 
Q 1019 -91 701 211 
Q 384 513 384 1019 
Q 384 1609 779 1909 
Q 1175 2209 1959 2209 
L 2766 2209 
L 2766 2266 
Q 2766 2663 2505 2880 
Q 2244 3097 1772 3097 
Q 1472 3097 1187 3025 
Q 903 2953 641 2809 
L 641 3341 
Q 956 3463 1253 3523 
Q 1550 3584 1831 3584 
Q 2591 3584 2966 3190 
Q 3341 2797 3341 1997 
z
" transform="scale(0.015625)"/>
       <path id="DejaVuSans-74" d="M 1172 4494 
L 1172 3500 
L 2356 3500 
L 2356 3053 
L 1172 3053 
L 1172 1153 
Q 1172 725 1289 603 
Q 1406 481 1766 481 
L 2356 481 
L 2356 0 
L 1766 0 
Q 1100 0 847 248 
Q 594 497 594 1153 
L 594 3053 
L 172 3053 
L 172 3500 
L 594 3500 
L 594 4494 
L 1172 4494 
z
" transform="scale(0.015625)"/>
      </defs>
      <use xlink:href="#DejaVuSans-4f"/>
      <use xlink:href="#DejaVuSans-62" transform="translate(78.710938 0)"/>
      <use xlink:href="#DejaVuSans-73" transform="translate(142.1875 0)"/>
      <use xlink:href="#DejaVuSans-65" transform="translate(194.287109 0)"/>
      <use xlink:href="#DejaVuSans-72" transform="translate(255.810547 0)"/>
      <use xlink:href="#DejaVuSans-76" transform="translate(296.923828 0)"/>
      <use xlink:href="#DejaVuSans-65" transform="translate(356.103516 0)"/>
      <use xlink:href="#DejaVuSans-64" transform="translate(417.626953 0)"/>
      <use xlink:href="#DejaVuSans-20" transform="translate(481.103516 0)"/>
      <use xlink:href="#DejaVuSans-44" transform="translate(512.890625 0)"/>
      <use xlink:href="#DejaVuSans-61" transform="translate(589.892578 0)"/>
      <use xlink:href="#DejaVuSans-74" transform="translate(651.171875 0)"/>
      <use xlink:href="#DejaVuSans-61" transform="translate(690.380859 0)"/>
     </g>
    </g>
    <g id="line2d_26">
     <path d="M 524.30976 76.706952 
L 548.30976 76.706952 
L 572.30976 76.706952 
" style="fill: none; stroke: #000000; stroke-opacity: 0.4; stroke-linecap: square"/>
    </g>
    <g id="text_17">
     <!-- Data Generating PDF -->
     <g transform="translate(591.50976 85.106952) scale(0.24 -0.24)">
      <defs>
       <path id="DejaVuSans-47" d="M 3809 666 
L 3809 1919 
L 2778 1919 
L 2778 2438 
L 4434 2438 
L 4434 434 
Q 4069 175 3628 42 
Q 3188 -91 2688 -91 
Q 1594 -91 976 548 
Q 359 1188 359 2328 
Q 359 3472 976 4111 
Q 1594 4750 2688 4750 
Q 3144 4750 3555 4637 
Q 3966 4525 4313 4306 
L 4313 3634 
Q 3963 3931 3569 4081 
Q 3175 4231 2741 4231 
Q 1884 4231 1454 3753 
Q 1025 3275 1025 2328 
Q 1025 1384 1454 906 
Q 1884 428 2741 428 
Q 3075 428 3337 486 
Q 3600 544 3809 666 
z
" transform="scale(0.015625)"/>
       <path id="DejaVuSans-6e" d="M 3513 2113 
L 3513 0 
L 2938 0 
L 2938 2094 
Q 2938 2591 2744 2837 
Q 2550 3084 2163 3084 
Q 1697 3084 1428 2787 
Q 1159 2491 1159 1978 
L 1159 0 
L 581 0 
L 581 3500 
L 1159 3500 
L 1159 2956 
Q 1366 3272 1645 3428 
Q 1925 3584 2291 3584 
Q 2894 3584 3203 3211 
Q 3513 2838 3513 2113 
z
" transform="scale(0.015625)"/>
       <path id="DejaVuSans-69" d="M 603 3500 
L 1178 3500 
L 1178 0 
L 603 0 
L 603 3500 
z
M 603 4863 
L 1178 4863 
L 1178 4134 
L 603 4134 
L 603 4863 
z
" transform="scale(0.015625)"/>
       <path id="DejaVuSans-67" d="M 2906 1791 
Q 2906 2416 2648 2759 
Q 2391 3103 1925 3103 
Q 1463 3103 1205 2759 
Q 947 2416 947 1791 
Q 947 1169 1205 825 
Q 1463 481 1925 481 
Q 2391 481 2648 825 
Q 2906 1169 2906 1791 
z
M 3481 434 
Q 3481 -459 3084 -895 
Q 2688 -1331 1869 -1331 
Q 1566 -1331 1297 -1286 
Q 1028 -1241 775 -1147 
L 775 -588 
Q 1028 -725 1275 -790 
Q 1522 -856 1778 -856 
Q 2344 -856 2625 -561 
Q 2906 -266 2906 331 
L 2906 616 
Q 2728 306 2450 153 
Q 2172 0 1784 0 
Q 1141 0 747 490 
Q 353 981 353 1791 
Q 353 2603 747 3093 
Q 1141 3584 1784 3584 
Q 2172 3584 2450 3431 
Q 2728 3278 2906 2969 
L 2906 3500 
L 3481 3500 
L 3481 434 
z
" transform="scale(0.015625)"/>
       <path id="DejaVuSans-50" d="M 1259 4147 
L 1259 2394 
L 2053 2394 
Q 2494 2394 2734 2622 
Q 2975 2850 2975 3272 
Q 2975 3691 2734 3919 
Q 2494 4147 2053 4147 
L 1259 4147 
z
M 628 4666 
L 2053 4666 
Q 2838 4666 3239 4311 
Q 3641 3956 3641 3272 
Q 3641 2581 3239 2228 
Q 2838 1875 2053 1875 
L 1259 1875 
L 1259 0 
L 628 0 
L 628 4666 
z
" transform="scale(0.015625)"/>
       <path id="DejaVuSans-46" d="M 628 4666 
L 3309 4666 
L 3309 4134 
L 1259 4134 
L 1259 2759 
L 3109 2759 
L 3109 2228 
L 1259 2228 
L 1259 0 
L 628 0 
L 628 4666 
z
" transform="scale(0.015625)"/>
      </defs>
      <use xlink:href="#DejaVuSans-44"/>
      <use xlink:href="#DejaVuSans-61" transform="translate(77.001953 0)"/>
      <use xlink:href="#DejaVuSans-74" transform="translate(138.28125 0)"/>
      <use xlink:href="#DejaVuSans-61" transform="translate(177.490234 0)"/>
      <use xlink:href="#DejaVuSans-20" transform="translate(238.769531 0)"/>
      <use xlink:href="#DejaVuSans-47" transform="translate(270.556641 0)"/>
      <use xlink:href="#DejaVuSans-65" transform="translate(348.046875 0)"/>
      <use xlink:href="#DejaVuSans-6e" transform="translate(409.570312 0)"/>
      <use xlink:href="#DejaVuSans-65" transform="translate(472.949219 0)"/>
      <use xlink:href="#DejaVuSans-72" transform="translate(534.472656 0)"/>
      <use xlink:href="#DejaVuSans-61" transform="translate(575.585938 0)"/>
      <use xlink:href="#DejaVuSans-74" transform="translate(636.865234 0)"/>
      <use xlink:href="#DejaVuSans-69" transform="translate(676.074219 0)"/>
      <use xlink:href="#DejaVuSans-6e" transform="translate(703.857422 0)"/>
      <use xlink:href="#DejaVuSans-67" transform="translate(767.236328 0)"/>
      <use xlink:href="#DejaVuSans-20" transform="translate(830.712891 0)"/>
      <use xlink:href="#DejaVuSans-50" transform="translate(862.5 0)"/>
      <use xlink:href="#DejaVuSans-44" transform="translate(922.802734 0)"/>
      <use xlink:href="#DejaVuSans-46" transform="translate(999.804688 0)"/>
     </g>
    </g>
    <g id="line2d_27">
     <path d="M 524.30976 111.934452 
L 548.30976 111.934452 
L 572.30976 111.934452 
" style="fill: none; stroke-dasharray: 14.8,6.4; stroke-dashoffset: 0; stroke: #0000ff; stroke-opacity: 0.4; stroke-width: 4"/>
    </g>
    <g id="text_18">
     <!-- Hierarchical Bayesian -->
     <g transform="translate(591.50976 120.334452) scale(0.24 -0.24)">
      <defs>
       <path id="DejaVuSans-48" d="M 628 4666 
L 1259 4666 
L 1259 2753 
L 3553 2753 
L 3553 4666 
L 4184 4666 
L 4184 0 
L 3553 0 
L 3553 2222 
L 1259 2222 
L 1259 0 
L 628 0 
L 628 4666 
z
" transform="scale(0.015625)"/>
       <path id="DejaVuSans-63" d="M 3122 3366 
L 3122 2828 
Q 2878 2963 2633 3030 
Q 2388 3097 2138 3097 
Q 1578 3097 1268 2742 
Q 959 2388 959 1747 
Q 959 1106 1268 751 
Q 1578 397 2138 397 
Q 2388 397 2633 464 
Q 2878 531 3122 666 
L 3122 134 
Q 2881 22 2623 -34 
Q 2366 -91 2075 -91 
Q 1284 -91 818 406 
Q 353 903 353 1747 
Q 353 2603 823 3093 
Q 1294 3584 2113 3584 
Q 2378 3584 2631 3529 
Q 2884 3475 3122 3366 
z
" transform="scale(0.015625)"/>
       <path id="DejaVuSans-68" d="M 3513 2113 
L 3513 0 
L 2938 0 
L 2938 2094 
Q 2938 2591 2744 2837 
Q 2550 3084 2163 3084 
Q 1697 3084 1428 2787 
Q 1159 2491 1159 1978 
L 1159 0 
L 581 0 
L 581 4863 
L 1159 4863 
L 1159 2956 
Q 1366 3272 1645 3428 
Q 1925 3584 2291 3584 
Q 2894 3584 3203 3211 
Q 3513 2838 3513 2113 
z
" transform="scale(0.015625)"/>
       <path id="DejaVuSans-6c" d="M 603 4863 
L 1178 4863 
L 1178 0 
L 603 0 
L 603 4863 
z
" transform="scale(0.015625)"/>
       <path id="DejaVuSans-42" d="M 1259 2228 
L 1259 519 
L 2272 519 
Q 2781 519 3026 730 
Q 3272 941 3272 1375 
Q 3272 1813 3026 2020 
Q 2781 2228 2272 2228 
L 1259 2228 
z
M 1259 4147 
L 1259 2741 
L 2194 2741 
Q 2656 2741 2882 2914 
Q 3109 3088 3109 3444 
Q 3109 3797 2882 3972 
Q 2656 4147 2194 4147 
L 1259 4147 
z
M 628 4666 
L 2241 4666 
Q 2963 4666 3353 4366 
Q 3744 4066 3744 3513 
Q 3744 3084 3544 2831 
Q 3344 2578 2956 2516 
Q 3422 2416 3680 2098 
Q 3938 1781 3938 1306 
Q 3938 681 3513 340 
Q 3088 0 2303 0 
L 628 0 
L 628 4666 
z
" transform="scale(0.015625)"/>
       <path id="DejaVuSans-79" d="M 2059 -325 
Q 1816 -950 1584 -1140 
Q 1353 -1331 966 -1331 
L 506 -1331 
L 506 -850 
L 844 -850 
Q 1081 -850 1212 -737 
Q 1344 -625 1503 -206 
L 1606 56 
L 191 3500 
L 800 3500 
L 1894 763 
L 2988 3500 
L 3597 3500 
L 2059 -325 
z
" transform="scale(0.015625)"/>
      </defs>
      <use xlink:href="#DejaVuSans-48"/>
      <use xlink:href="#DejaVuSans-69" transform="translate(75.195312 0)"/>
      <use xlink:href="#DejaVuSans-65" transform="translate(102.978516 0)"/>
      <use xlink:href="#DejaVuSans-72" transform="translate(164.501953 0)"/>
      <use xlink:href="#DejaVuSans-61" transform="translate(205.615234 0)"/>
      <use xlink:href="#DejaVuSans-72" transform="translate(266.894531 0)"/>
      <use xlink:href="#DejaVuSans-63" transform="translate(305.757812 0)"/>
      <use xlink:href="#DejaVuSans-68" transform="translate(360.738281 0)"/>
      <use xlink:href="#DejaVuSans-69" transform="translate(424.117188 0)"/>
      <use xlink:href="#DejaVuSans-63" transform="translate(451.900391 0)"/>
      <use xlink:href="#DejaVuSans-61" transform="translate(506.880859 0)"/>
      <use xlink:href="#DejaVuSans-6c" transform="translate(568.160156 0)"/>
      <use xlink:href="#DejaVuSans-20" transform="translate(595.943359 0)"/>
      <use xlink:href="#DejaVuSans-42" transform="translate(627.730469 0)"/>
      <use xlink:href="#DejaVuSans-61" transform="translate(696.333984 0)"/>
      <use xlink:href="#DejaVuSans-79" transform="translate(757.613281 0)"/>
      <use xlink:href="#DejaVuSans-65" transform="translate(816.792969 0)"/>
      <use xlink:href="#DejaVuSans-73" transform="translate(878.316406 0)"/>
      <use xlink:href="#DejaVuSans-69" transform="translate(930.416016 0)"/>
      <use xlink:href="#DejaVuSans-61" transform="translate(958.199219 0)"/>
      <use xlink:href="#DejaVuSans-6e" transform="translate(1019.478516 0)"/>
     </g>
    </g>
    <g id="line2d_28">
     <path d="M 524.30976 147.161952 
L 548.30976 147.161952 
L 572.30976 147.161952 
" style="fill: none; stroke-dasharray: 14.8,6.4; stroke-dashoffset: 0; stroke: #008000; stroke-opacity: 0.4; stroke-width: 4"/>
    </g>
    <g id="text_19">
     <!-- Flat Bayesian -->
     <g transform="translate(591.50976 155.561952) scale(0.24 -0.24)">
      <use xlink:href="#DejaVuSans-46"/>
      <use xlink:href="#DejaVuSans-6c" transform="translate(57.519531 0)"/>
      <use xlink:href="#DejaVuSans-61" transform="translate(85.302734 0)"/>
      <use xlink:href="#DejaVuSans-74" transform="translate(146.582031 0)"/>
      <use xlink:href="#DejaVuSans-20" transform="translate(185.791016 0)"/>
      <use xlink:href="#DejaVuSans-42" transform="translate(217.578125 0)"/>
      <use xlink:href="#DejaVuSans-61" transform="translate(286.181641 0)"/>
      <use xlink:href="#DejaVuSans-79" transform="translate(347.460938 0)"/>
      <use xlink:href="#DejaVuSans-65" transform="translate(406.640625 0)"/>
      <use xlink:href="#DejaVuSans-73" transform="translate(468.164062 0)"/>
      <use xlink:href="#DejaVuSans-69" transform="translate(520.263672 0)"/>
      <use xlink:href="#DejaVuSans-61" transform="translate(548.046875 0)"/>
      <use xlink:href="#DejaVuSans-6e" transform="translate(609.326172 0)"/>
     </g>
    </g>
   </g>
  </g>
 </g>
 <defs>
  <clipPath id="p9a766dd893">
   <rect x="33.72774" y="3.00024" width="131.84202" height="155.16327"/>
  </clipPath>
  <clipPath id="p6ee1bb94e3">
   <rect x="202.29774" y="3.00024" width="131.84202" height="155.16327"/>
  </clipPath>
  <clipPath id="pc346cac7f7">
   <rect x="370.86774" y="3.00024" width="131.84202" height="155.16327"/>
  </clipPath>
 </defs>
</svg>
