<?xml version="1.0" encoding="utf-8" standalone="no"?>
<!DOCTYPE svg PUBLIC "-//W3C//DTD SVG 1.1//EN"
  "http://www.w3.org/Graphics/SVG/1.1/DTD/svg11.dtd">
<svg xmlns:xlink="http://www.w3.org/1999/xlink" width="864pt" height="216pt" viewBox="0 0 864 216" xmlns="http://www.w3.org/2000/svg" version="1.1">
 <metadata>
  <rdf:RDF xmlns:dc="http://purl.org/dc/elements/1.1/" xmlns:cc="http://creativecommons.org/ns#" xmlns:rdf="http://www.w3.org/1999/02/22-rdf-syntax-ns#">
   <cc:Work>
    <dc:type rdf:resource="http://purl.org/dc/dcmitype/StillImage"/>
    <dc:date>2025-12-16T12:37:39.304193</dc:date>
    <dc:format>image/svg+xml</dc:format>
    <dc:creator>
     <cc:Agent>
      <dc:title>Matplotlib v3.10.5, https://matplotlib.org/</dc:title>
     </cc:Agent>
    </dc:creator>
   </cc:Work>
  </rdf:RDF>
 </metadata>
 <defs>
  <style type="text/css">*{stroke-linejoin: round; stroke-linecap: butt}</style>
 </defs>
 <g id="figure_1">
  <g id="patch_1">
   <path d="M 0 216 
L 864 216 
L 864 0 
L 0 0 
z
" style="fill: #ffffff"/>
  </g>
  <g id="axes_1">
   <g id="patch_2">
    <path d="M 33.72774 158.16351 
L 165.56976 158.16351 
L 165.56976 3.00024 
L 33.72774 3.00024 
z
" style="fill: #ffffff"/>
   </g>
   <g id="matplotlib.axis_1">
    <g id="xtick_1">
     <g id="line2d_1">
      <defs>
       <path id="m47af25588f" d="M 0 0 
L 0 3.5 
" style="stroke: #000000; stroke-width: 0.8"/>
      </defs>
      <g>
       <use xlink:href="#m47af25588f" x="64.749392" y="158.16351" style="stroke: #000000; stroke-width: 0.8"/>
      </g>
     </g>
     <g id="text_1">
      <!-- −6 -->
      <g transform="translate(50.007204 180.360385) scale(0.2 -0.2)">
       <defs>
        <path id="DejaVuSans-2212" d="M 678 2272 
L 4684 2272 
L 4684 1741 
L 678 1741 
L 678 2272 
z
" transform="scale(0.015625)"/>
        <path id="DejaVuSans-36" d="M 2113 2584 
Q 1688 2584 1439 2293 
Q 1191 2003 1191 1497 
Q 1191 994 1439 701 
Q 1688 409 2113 409 
Q 2538 409 2786 701 
Q 3034 994 3034 1497 
Q 3034 2003 2786 2293 
Q 2538 2584 2113 2584 
z
M 3366 4563 
L 3366 3988 
Q 3128 4100 2886 4159 
Q 2644 4219 2406 4219 
Q 1781 4219 1451 3797 
Q 1122 3375 1075 2522 
Q 1259 2794 1537 2939 
Q 1816 3084 2150 3084 
Q 2853 3084 3261 2657 
Q 3669 2231 3669 1497 
Q 3669 778 3244 343 
Q 2819 -91 2113 -91 
Q 1303 -91 875 529 
Q 447 1150 447 2328 
Q 447 3434 972 4092 
Q 1497 4750 2381 4750 
Q 2619 4750 2861 4703 
Q 3103 4656 3366 4563 
z
" transform="scale(0.015625)"/>
       </defs>
       <use xlink:href="#DejaVuSans-2212"/>
       <use xlink:href="#DejaVuSans-36" transform="translate(83.789062 0)"/>
      </g>
     </g>
    </g>
    <g id="xtick_2">
     <g id="line2d_2">
      <g>
       <use xlink:href="#m47af25588f" x="111.281869" y="158.16351" style="stroke: #000000; stroke-width: 0.8"/>
      </g>
     </g>
     <g id="text_2">
      <!-- −3 -->
      <g transform="translate(96.539682 180.360385) scale(0.2 -0.2)">
       <defs>
        <path id="DejaVuSans-33" d="M 2597 2516 
Q 3050 2419 3304 2112 
Q 3559 1806 3559 1356 
Q 3559 666 3084 287 
Q 2609 -91 1734 -91 
Q 1441 -91 1130 -33 
Q 819 25 488 141 
L 488 750 
Q 750 597 1062 519 
Q 1375 441 1716 441 
Q 2309 441 2620 675 
Q 2931 909 2931 1356 
Q 2931 1769 2642 2001 
Q 2353 2234 1838 2234 
L 1294 2234 
L 1294 2753 
L 1863 2753 
Q 2328 2753 2575 2939 
Q 2822 3125 2822 3475 
Q 2822 3834 2567 4026 
Q 2313 4219 1838 4219 
Q 1578 4219 1281 4162 
Q 984 4106 628 3988 
L 628 4550 
Q 988 4650 1302 4700 
Q 1616 4750 1894 4750 
Q 2613 4750 3031 4423 
Q 3450 4097 3450 3541 
Q 3450 3153 3228 2886 
Q 3006 2619 2597 2516 
z
" transform="scale(0.015625)"/>
       </defs>
       <use xlink:href="#DejaVuSans-2212"/>
       <use xlink:href="#DejaVuSans-33" transform="translate(83.789062 0)"/>
      </g>
     </g>
    </g>
    <g id="xtick_3">
     <g id="line2d_3">
      <g>
       <use xlink:href="#m47af25588f" x="157.814347" y="158.16351" style="stroke: #000000; stroke-width: 0.8"/>
      </g>
     </g>
     <g id="text_3">
      <!-- 0 -->
      <g transform="translate(151.451847 180.360385) scale(0.2 -0.2)">
       <defs>
        <path id="DejaVuSans-30" d="M 2034 4250 
Q 1547 4250 1301 3770 
Q 1056 3291 1056 2328 
Q 1056 1369 1301 889 
Q 1547 409 2034 409 
Q 2525 409 2770 889 
Q 3016 1369 3016 2328 
Q 3016 3291 2770 3770 
Q 2525 4250 2034 4250 
z
M 2034 4750 
Q 2819 4750 3233 4129 
Q 3647 3509 3647 2328 
Q 3647 1150 3233 529 
Q 2819 -91 2034 -91 
Q 1250 -91 836 529 
Q 422 1150 422 2328 
Q 422 3509 836 4129 
Q 1250 4750 2034 4750 
z
" transform="scale(0.015625)"/>
       </defs>
       <use xlink:href="#DejaVuSans-30"/>
      </g>
     </g>
    </g>
    <g id="text_4">
     <!-- $\dot{v}$ : $x$ -->
     <g transform="translate(73.72875 206.75601) scale(0.24 -0.24)">
      <defs>
       <path id="DejaVuSans-307" d="M -1894 4863 
L -1319 4863 
L -1319 4134 
L -1894 4134 
L -1894 4863 
z
M -1600 3584 
L -1600 3584 
z
" transform="scale(0.015625)"/>
       <path id="DejaVuSans-Oblique-76" d="M 459 3500 
L 1069 3500 
L 1581 525 
L 3256 3500 
L 3866 3500 
L 1875 0 
L 1100 0 
L 459 3500 
z
" transform="scale(0.015625)"/>
       <path id="DejaVuSans-20" transform="scale(0.015625)"/>
       <path id="DejaVuSans-3a" d="M 750 794 
L 1409 794 
L 1409 0 
L 750 0 
L 750 794 
z
M 750 3309 
L 1409 3309 
L 1409 2516 
L 750 2516 
L 750 3309 
z
" transform="scale(0.015625)"/>
       <path id="DejaVuSans-Oblique-78" d="M 3841 3500 
L 2234 1784 
L 3219 0 
L 2559 0 
L 1819 1388 
L 531 0 
L -166 0 
L 1556 1844 
L 641 3500 
L 1300 3500 
L 1972 2234 
L 3144 3500 
L 3841 3500 
z
" transform="scale(0.015625)"/>
      </defs>
      <use xlink:href="#DejaVuSans-307" transform="translate(62.388672 12.015625)"/>
      <use xlink:href="#DejaVuSans-Oblique-76" transform="translate(0 0.828125)"/>
      <use xlink:href="#DejaVuSans-20" transform="translate(59.179688 0.828125)"/>
      <use xlink:href="#DejaVuSans-3a" transform="translate(90.966797 0.828125)"/>
      <use xlink:href="#DejaVuSans-20" transform="translate(124.658203 0.828125)"/>
      <use xlink:href="#DejaVuSans-Oblique-78" transform="translate(156.445312 0.828125)"/>
     </g>
    </g>
   </g>
   <g id="matplotlib.axis_2">
    <g id="ytick_1">
     <g id="line2d_4"/>
    </g>
    <g id="text_5">
     <!--   -->
     <g transform="translate(21.23649 84.395625) rotate(-90) scale(0.24 -0.24)">
      <use xlink:href="#DejaVuSans-20"/>
     </g>
    </g>
   </g>
   <g id="line2d_5">
    <path d="M 34.825404 158.148376 
L 39.288451 158.022546 
L 42.476342 157.726891 
L 50.12728 156.801342 
L 52.040015 156.884576 
L 55.227906 157.317093 
L 59.053375 157.839663 
L 61.603687 157.988655 
L 64.154 157.948459 
L 66.704313 157.721274 
L 74.355251 156.801422 
L 76.267985 156.883175 
L 79.455876 157.315466 
L 83.281345 157.850254 
L 86.469236 158.05319 
L 89.657127 158.016202 
L 92.20744 157.746527 
L 94.120174 157.306986 
L 96.032909 156.571318 
L 97.308065 155.875228 
L 98.583221 154.985396 
L 99.858378 153.872126 
L 101.133534 152.497489 
L 102.40869 150.814743 
L 103.683847 148.773312 
L 104.959003 146.329349 
L 106.234159 143.459011 
L 108.146894 138.381699 
L 110.059628 132.561605 
L 114.522675 118.442559 
L 116.43541 113.36442 
L 117.710566 110.543546 
L 118.985723 108.142735 
L 120.898457 105.064625 
L 125.999082 97.523773 
L 127.274239 96.233822 
L 127.911817 95.867386 
L 128.549395 95.741406 
L 129.186973 95.890912 
L 129.824552 96.343057 
L 130.46213 97.115229 
L 131.099708 98.213926 
L 131.737286 99.634419 
L 133.012442 103.369235 
L 134.287599 108.091015 
L 136.200333 116.312384 
L 139.388224 130.332997 
L 141.300959 137.631119 
L 142.576115 141.772672 
L 143.851271 145.296817 
L 145.126428 148.223073 
L 146.401584 150.603547 
L 147.67674 152.508601 
L 148.951897 154.013085 
L 150.227053 155.186118 
L 151.502209 156.086303 
L 152.777366 156.761924 
L 154.6901 157.442374 
L 156.602835 157.828851 
L 159.153147 158.063148 
L 161.70346 158.139427 
L 161.70346 158.139427 
" clip-path="url(#p26ace7f727)" style="fill: none; stroke: #ff0000; stroke-opacity: 0.8; stroke-linecap: square"/>
   </g>
   <g id="line2d_6">
    <path d="M 36.927379 158.163072 
L 65.934634 158.041655 
L 69.087596 157.801683 
L 73.501744 157.911059 
L 77.285299 157.832737 
L 81.068854 157.39158 
L 83.591224 157.168151 
L 88.635964 156.918516 
L 94.311296 155.535792 
L 96.833666 154.598958 
L 98.725443 153.705423 
L 100.617221 152.568795 
L 101.878406 151.553699 
L 103.139591 150.14168 
L 107.553738 144.195643 
L 108.814923 141.92425 
L 110.076108 139.118191 
L 111.967886 134.173751 
L 113.859663 128.426406 
L 115.751441 122.773703 
L 117.643218 118.223326 
L 118.904403 115.019302 
L 120.165588 110.841741 
L 123.318551 98.852529 
L 124.579736 94.95982 
L 125.840921 91.946681 
L 126.471513 90.968165 
L 127.102106 90.407936 
L 127.732698 90.230598 
L 128.363291 90.332218 
L 130.255068 91.103303 
L 130.885661 91.425762 
L 131.516253 91.975908 
L 132.146846 92.934717 
L 132.777438 94.413368 
L 133.408031 96.406163 
L 134.669216 101.482295 
L 137.822178 116.044552 
L 139.713956 125.676915 
L 141.605733 135.679522 
L 142.866918 141.446681 
L 144.128103 146.235114 
L 145.389288 149.998195 
L 146.650473 152.727191 
L 147.911658 154.623719 
L 149.172843 155.987082 
L 150.434028 156.969042 
L 151.695213 157.592186 
L 152.956398 157.916209 
L 154.848176 158.079337 
L 162.415286 158.163075 
L 162.415286 158.163075 
" clip-path="url(#p26ace7f727)" style="fill: none; stroke: #000000; stroke-opacity: 0.4; stroke-linecap: square"/>
   </g>
   <g id="line2d_7">
    <path d="M 71.595604 158.139655 
L 74.179185 157.974949 
L 75.901572 157.634485 
L 77.62396 157.033118 
L 80.638138 155.841955 
L 81.929929 155.560968 
L 83.652316 155.431486 
L 86.235898 155.479885 
L 87.527688 155.659321 
L 88.819479 156.022275 
L 93.986642 157.861211 
L 95.709029 158.0716 
L 98.723208 158.157656 
L 112.071711 158.121277 
L 113.794099 157.968486 
L 115.085889 157.639214 
L 115.947083 157.219097 
L 116.808277 156.549624 
L 117.669471 155.535956 
L 118.530664 154.067387 
L 119.391858 152.014814 
L 120.253052 149.223177 
L 121.114246 145.500554 
L 121.97544 140.611029 
L 122.836633 134.283609 
L 123.697827 126.250789 
L 124.559021 116.324461 
L 125.850812 97.958067 
L 129.295587 43.745583 
L 130.15678 34.889395 
L 130.587377 31.866648 
L 131.017974 29.860771 
L 131.448571 28.890165 
L 131.879168 28.940544 
L 132.309765 29.967782 
L 132.740362 31.902355 
L 133.601556 38.122013 
L 134.462749 46.753468 
L 136.185137 67.792773 
L 138.768718 99.569031 
L 140.491106 117.561038 
L 141.782896 128.787235 
L 143.074687 137.738403 
L 143.935881 142.350366 
L 144.797075 145.921663 
L 145.658268 148.592795 
L 146.519462 150.568681 
L 147.380656 152.068451 
L 148.672447 153.809216 
L 149.964237 155.218872 
L 151.256028 156.358712 
L 152.547819 157.187235 
L 153.839609 157.703903 
L 155.1314 157.97651 
L 157.284384 158.133564 
L 157.284384 158.133564 
" clip-path="url(#p26ace7f727)" style="fill: none; stroke-dasharray: 14.8,6.4; stroke-dashoffset: 0; stroke: #0000ff; stroke-opacity: 0.4; stroke-width: 4"/>
   </g>
   <g id="line2d_8">
    <path d="M 132.294999 157.821012 
L 132.309441 139.430183 
L 132.344053 -1 
M 132.586571 -1 
L 132.614325 157.796292 
L 132.614325 157.796292 
" clip-path="url(#p26ace7f727)" style="fill: none; stroke-dasharray: 14.8,6.4; stroke-dashoffset: 0; stroke: #008000; stroke-opacity: 0.4; stroke-width: 4"/>
   </g>
   <g id="patch_3">
    <path d="M 33.72774 158.16351 
L 165.56976 158.16351 
" style="fill: none; stroke: #000000; stroke-width: 0.8; stroke-linejoin: miter; stroke-linecap: square"/>
   </g>
  </g>
  <g id="axes_2">
   <g id="patch_4">
    <path d="M 202.29774 158.16351 
L 334.13976 158.16351 
L 334.13976 3.00024 
L 202.29774 3.00024 
z
" style="fill: #ffffff"/>
   </g>
   <g id="matplotlib.axis_3">
    <g id="xtick_4">
     <g id="line2d_9">
      <g>
       <use xlink:href="#m47af25588f" x="202.29774" y="158.16351" style="stroke: #000000; stroke-width: 0.8"/>
      </g>
     </g>
     <g id="text_6">
      <!-- −2 -->
      <g transform="translate(187.555553 180.360385) scale(0.2 -0.2)">
       <defs>
        <path id="DejaVuSans-32" d="M 1228 531 
L 3431 531 
L 3431 0 
L 469 0 
L 469 531 
Q 828 903 1448 1529 
Q 2069 2156 2228 2338 
Q 2531 2678 2651 2914 
Q 2772 3150 2772 3378 
Q 2772 3750 2511 3984 
Q 2250 4219 1831 4219 
Q 1534 4219 1204 4116 
Q 875 4013 500 3803 
L 500 4441 
Q 881 4594 1212 4672 
Q 1544 4750 1819 4750 
Q 2544 4750 2975 4387 
Q 3406 4025 3406 3419 
Q 3406 3131 3298 2873 
Q 3191 2616 2906 2266 
Q 2828 2175 2409 1742 
Q 1991 1309 1228 531 
z
" transform="scale(0.015625)"/>
       </defs>
       <use xlink:href="#DejaVuSans-2212"/>
       <use xlink:href="#DejaVuSans-32" transform="translate(83.789062 0)"/>
      </g>
     </g>
    </g>
    <g id="xtick_5">
     <g id="line2d_10">
      <g>
       <use xlink:href="#m47af25588f" x="255.034548" y="158.16351" style="stroke: #000000; stroke-width: 0.8"/>
      </g>
     </g>
     <g id="text_7">
      <!-- −1 -->
      <g transform="translate(240.292361 180.360385) scale(0.2 -0.2)">
       <defs>
        <path id="DejaVuSans-31" d="M 794 531 
L 1825 531 
L 1825 4091 
L 703 3866 
L 703 4441 
L 1819 4666 
L 2450 4666 
L 2450 531 
L 3481 531 
L 3481 0 
L 794 0 
L 794 531 
z
" transform="scale(0.015625)"/>
       </defs>
       <use xlink:href="#DejaVuSans-2212"/>
       <use xlink:href="#DejaVuSans-31" transform="translate(83.789062 0)"/>
      </g>
     </g>
    </g>
    <g id="xtick_6">
     <g id="line2d_11">
      <g>
       <use xlink:href="#m47af25588f" x="307.771356" y="158.16351" style="stroke: #000000; stroke-width: 0.8"/>
      </g>
     </g>
     <g id="text_8">
      <!-- 0 -->
      <g transform="translate(301.408856 180.360385) scale(0.2 -0.2)">
       <use xlink:href="#DejaVuSans-30"/>
      </g>
     </g>
    </g>
    <g id="text_9">
     <!-- $\dot{v}$ : $v$ -->
     <g transform="translate(242.29875 206.75601) scale(0.24 -0.24)">
      <use xlink:href="#DejaVuSans-307" transform="translate(62.388672 12.015625)"/>
      <use xlink:href="#DejaVuSans-Oblique-76" transform="translate(0 0.828125)"/>
      <use xlink:href="#DejaVuSans-20" transform="translate(59.179688 0.828125)"/>
      <use xlink:href="#DejaVuSans-3a" transform="translate(90.966797 0.828125)"/>
      <use xlink:href="#DejaVuSans-20" transform="translate(124.658203 0.828125)"/>
      <use xlink:href="#DejaVuSans-Oblique-76" transform="translate(156.445312 0.828125)"/>
     </g>
    </g>
   </g>
   <g id="matplotlib.axis_4">
    <g id="ytick_2">
     <g id="line2d_12"/>
    </g>
    <g id="text_10">
     <!--   -->
     <g transform="translate(189.80649 84.395625) rotate(-90) scale(0.24 -0.24)">
      <use xlink:href="#DejaVuSans-20"/>
     </g>
    </g>
   </g>
   <g id="line2d_13">
    <path d="M 225.438426 158.130252 
L 227.857324 157.968715 
L 229.469922 157.66746 
L 231.08252 157.124078 
L 235.517165 155.254806 
L 236.726613 155.181591 
L 237.936062 155.422986 
L 239.54866 156.092312 
L 241.967557 157.157797 
L 243.177006 157.463065 
L 244.386454 157.540496 
L 245.595903 157.380357 
L 246.805352 157.003353 
L 248.821099 156.078784 
L 250.433697 155.399593 
L 251.643146 155.129968 
L 252.852594 155.122774 
L 255.674641 155.41017 
L 256.48094 155.219678 
L 257.287239 154.7383 
L 258.093538 153.885152 
L 258.899837 152.600311 
L 259.706136 150.85202 
L 260.512436 148.64126 
L 261.721884 144.540884 
L 263.334482 137.981659 
L 265.753379 126.97253 
L 267.769127 117.034627 
L 269.381725 108.121187 
L 270.994323 98.018858 
L 273.41322 81.140125 
L 275.428968 67.386899 
L 276.638417 60.331627 
L 277.847865 54.612833 
L 279.057314 50.210976 
L 280.266762 46.764814 
L 282.28251 41.917628 
L 283.491959 39.391422 
L 284.298258 38.168686 
L 284.701407 37.802315 
L 285.104557 37.655161 
L 285.507706 37.77025 
L 285.910856 38.18924 
L 286.314005 38.950573 
L 286.717155 40.087761 
L 287.523454 43.590248 
L 288.329753 48.81526 
L 289.136052 55.734977 
L 290.345501 68.863332 
L 291.958099 89.59389 
L 293.973846 115.549413 
L 295.183295 128.719247 
L 296.392744 139.141135 
L 297.199043 144.488399 
L 298.005342 148.642022 
L 298.811641 151.747886 
L 299.61794 153.983395 
L 300.424239 155.531993 
L 301.230538 156.564168 
L 302.036837 157.225871 
L 302.843136 157.633695 
L 304.052585 157.953886 
L 305.665183 158.110414 
L 305.665183 158.110414 
" clip-path="url(#p2c42c96036)" style="fill: none; stroke: #ff0000; stroke-opacity: 0.8; stroke-linecap: square"/>
   </g>
   <g id="line2d_14">
    <path d="M 204.672317 158.162624 
L 231.12027 158.000856 
L 239.766716 157.416946 
L 241.292559 157.421529 
L 242.309788 157.197068 
L 243.835632 156.728437 
L 245.361475 156.603582 
L 248.921777 156.427426 
L 249.939006 156.456504 
L 250.956235 156.123161 
L 251.973464 155.424404 
L 254.516536 153.388189 
L 256.042379 152.306767 
L 259.094066 149.764964 
L 259.602681 149.1053 
L 260.61991 147.207768 
L 262.145753 143.574772 
L 264.180211 138.273351 
L 265.19744 135.210848 
L 266.723284 129.707138 
L 267.740513 125.531981 
L 268.757741 120.449632 
L 270.283585 110.917448 
L 272.826657 93.964525 
L 273.843886 85.168274 
L 275.878344 63.374908 
L 279.438646 25.564684 
L 280.455875 18.478956 
L 280.964489 16.104989 
L 281.473104 14.491042 
L 281.981718 13.550782 
L 282.490332 13.137394 
L 282.998947 13.088778 
L 283.507561 13.30243 
L 284.016176 13.800971 
L 284.52479 14.746845 
L 285.033405 16.38927 
L 285.542019 18.972143 
L 286.050634 22.660411 
L 286.559248 27.518209 
L 287.576477 40.551862 
L 289.102321 65.314567 
L 291.136779 97.238411 
L 292.662622 118.736962 
L 293.679851 129.871505 
L 294.69708 137.91411 
L 295.714309 144.224414 
L 296.731538 149.351028 
L 297.748767 153.032723 
L 298.765996 155.336659 
L 299.783225 156.69644 
L 300.800454 157.46722 
L 301.817683 157.856494 
L 303.343526 158.091159 
L 305.886599 158.162444 
L 305.886599 158.162444 
" clip-path="url(#p2c42c96036)" style="fill: none; stroke: #000000; stroke-opacity: 0.4; stroke-linecap: square"/>
   </g>
   <g id="line2d_15">
    <path d="M 252.161396 158.126422 
L 254.195839 157.96635 
L 255.552135 157.678857 
L 256.908431 157.159912 
L 258.6038 156.204574 
L 260.29917 155.236845 
L 261.316392 154.88515 
L 262.333613 154.818853 
L 263.350835 155.039288 
L 265.046205 155.760588 
L 266.4025 156.213272 
L 267.419722 156.243164 
L 268.09787 156.06718 
L 269.115091 155.49839 
L 270.132313 154.60036 
L 271.488609 153.014521 
L 273.183978 150.594698 
L 274.540274 148.296789 
L 275.89657 145.51946 
L 277.252865 142.102475 
L 278.609161 137.928686 
L 279.965457 132.816724 
L 280.982678 128.13212 
L 281.9999 122.442827 
L 283.017122 115.518297 
L 284.373417 104.284585 
L 286.407861 84.711848 
L 288.442304 65.899609 
L 290.137674 52.676737 
L 291.493969 43.632218 
L 292.511191 37.850787 
L 293.528413 33.276637 
L 294.206561 31.073814 
L 294.884708 29.623329 
L 295.223782 29.183921 
L 295.562856 28.930726 
L 295.90193 28.857604 
L 296.241004 28.95723 
L 296.580078 29.222175 
L 297.258226 30.224113 
L 297.936374 31.839044 
L 298.614521 34.089808 
L 299.292669 37.04419 
L 299.970817 40.792419 
L 300.988039 48.059369 
L 302.005261 57.296515 
L 303.361556 71.970518 
L 306.413221 106.048655 
L 307.769517 118.644076 
L 309.125813 129.365216 
L 310.482108 138.409374 
L 311.49933 144.069311 
L 312.516552 148.674944 
L 313.533773 152.18472 
L 314.211921 153.941361 
L 314.890069 155.280791 
L 315.568217 156.262917 
L 316.246365 156.954709 
L 317.263586 157.591399 
L 318.280808 157.914825 
L 319.637104 158.091997 
L 319.637104 158.091997 
" clip-path="url(#p2c42c96036)" style="fill: none; stroke-dasharray: 14.8,6.4; stroke-dashoffset: 0; stroke: #0000ff; stroke-opacity: 0.4; stroke-width: 4"/>
   </g>
   <g id="line2d_16">
    <path d="M 301.286288 157.974986 
L 301.313338 154.374136 
L 301.385471 91.861682 
L 301.448822 -1 
M 302.058371 -1 
L 302.183451 157.939407 
L 302.183451 157.939407 
" clip-path="url(#p2c42c96036)" style="fill: none; stroke-dasharray: 14.8,6.4; stroke-dashoffset: 0; stroke: #008000; stroke-opacity: 0.4; stroke-width: 4"/>
   </g>
   <g id="patch_5">
    <path d="M 202.29774 158.16351 
L 334.13976 158.16351 
" style="fill: none; stroke: #000000; stroke-width: 0.8; stroke-linejoin: miter; stroke-linecap: square"/>
   </g>
  </g>
  <g id="axes_3">
   <g id="patch_6">
    <path d="M 370.86774 158.16351 
L 502.70976 158.16351 
L 502.70976 3.00024 
L 370.86774 3.00024 
z
" style="fill: #ffffff"/>
   </g>
   <g id="matplotlib.axis_5">
    <g id="xtick_7">
     <g id="line2d_17">
      <g>
       <use xlink:href="#m47af25588f" x="397.236144" y="158.16351" style="stroke: #000000; stroke-width: 0.8"/>
      </g>
     </g>
     <g id="text_11">
      <!-- 0 -->
      <g transform="translate(390.873644 180.360385) scale(0.2 -0.2)">
       <use xlink:href="#DejaVuSans-30"/>
      </g>
     </g>
    </g>
    <g id="xtick_8">
     <g id="line2d_18">
      <g>
       <use xlink:href="#m47af25588f" x="449.972952" y="158.16351" style="stroke: #000000; stroke-width: 0.8"/>
      </g>
     </g>
     <g id="text_12">
      <!-- 1 -->
      <g transform="translate(443.610452 180.360385) scale(0.2 -0.2)">
       <use xlink:href="#DejaVuSans-31"/>
      </g>
     </g>
    </g>
    <g id="xtick_9">
     <g id="line2d_19">
      <g>
       <use xlink:href="#m47af25588f" x="502.70976" y="158.16351" style="stroke: #000000; stroke-width: 0.8"/>
      </g>
     </g>
     <g id="text_13">
      <!-- 2 -->
      <g transform="translate(496.34726 180.360385) scale(0.2 -0.2)">
       <use xlink:href="#DejaVuSans-32"/>
      </g>
     </g>
    </g>
    <g id="text_14">
     <!-- $\dot{v}$ : $cos(\omega \cdot t)$ -->
     <g transform="translate(365.14875 208.00851) scale(0.24 -0.24)">
      <defs>
       <path id="DejaVuSans-Oblique-63" d="M 3431 3366 
L 3316 2797 
Q 3109 2947 2876 3022 
Q 2644 3097 2394 3097 
Q 2119 3097 1870 3000 
Q 1622 2903 1453 2725 
Q 1184 2453 1037 2087 
Q 891 1722 891 1331 
Q 891 859 1127 628 
Q 1363 397 1844 397 
Q 2081 397 2348 469 
Q 2616 541 2906 684 
L 2797 116 
Q 2547 13 2283 -39 
Q 2019 -91 1741 -91 
Q 1044 -91 669 257 
Q 294 606 294 1253 
Q 294 1797 489 2255 
Q 684 2713 1069 3078 
Q 1331 3328 1684 3456 
Q 2038 3584 2456 3584 
Q 2700 3584 2940 3529 
Q 3181 3475 3431 3366 
z
" transform="scale(0.015625)"/>
       <path id="DejaVuSans-Oblique-6f" d="M 1625 -91 
Q 1009 -91 651 289 
Q 294 669 294 1325 
Q 294 1706 417 2101 
Q 541 2497 738 2766 
Q 1047 3184 1428 3384 
Q 1809 3584 2291 3584 
Q 2888 3584 3255 3212 
Q 3622 2841 3622 2241 
Q 3622 1825 3500 1412 
Q 3378 1000 3181 728 
Q 2875 309 2494 109 
Q 2113 -91 1625 -91 
z
M 891 1344 
Q 891 869 1089 633 
Q 1288 397 1691 397 
Q 2269 397 2648 901 
Q 3028 1406 3028 2181 
Q 3028 2634 2825 2865 
Q 2622 3097 2228 3097 
Q 1903 3097 1650 2945 
Q 1397 2794 1197 2484 
Q 1050 2253 970 1956 
Q 891 1659 891 1344 
z
" transform="scale(0.015625)"/>
       <path id="DejaVuSans-Oblique-73" d="M 3200 3397 
L 3091 2853 
Q 2863 2978 2609 3040 
Q 2356 3103 2088 3103 
Q 1634 3103 1373 2948 
Q 1113 2794 1113 2528 
Q 1113 2219 1719 2053 
Q 1766 2041 1788 2034 
L 1972 1978 
Q 2547 1819 2739 1644 
Q 2931 1469 2931 1166 
Q 2931 609 2489 259 
Q 2047 -91 1331 -91 
Q 1053 -91 747 -37 
Q 441 16 72 128 
L 184 722 
Q 500 559 806 475 
Q 1113 391 1394 391 
Q 1816 391 2080 572 
Q 2344 753 2344 1031 
Q 2344 1331 1650 1516 
L 1591 1531 
L 1394 1581 
Q 956 1697 753 1886 
Q 550 2075 550 2369 
Q 550 2928 970 3256 
Q 1391 3584 2113 3584 
Q 2397 3584 2667 3537 
Q 2938 3491 3200 3397 
z
" transform="scale(0.015625)"/>
       <path id="DejaVuSans-28" d="M 1984 4856 
Q 1566 4138 1362 3434 
Q 1159 2731 1159 2009 
Q 1159 1288 1364 580 
Q 1569 -128 1984 -844 
L 1484 -844 
Q 1016 -109 783 600 
Q 550 1309 550 2009 
Q 550 2706 781 3412 
Q 1013 4119 1484 4856 
L 1984 4856 
z
" transform="scale(0.015625)"/>
       <path id="DejaVuSans-Oblique-3c9" d="M 1369 -91 
Q 72 -91 434 1766 
Q 575 2500 1256 3500 
L 1875 3500 
Q 1231 2500 1088 1750 
Q 819 397 1519 397 
Q 2166 397 2478 2078 
L 3009 2078 
Q 2669 388 3316 397 
Q 4013 403 4275 1750 
Q 4419 2500 4169 3500 
L 4788 3500 
Q 5075 2500 4934 1766 
Q 4578 -94 3278 -91 
Q 2428 -88 2503 844 
Q 2194 -91 1369 -91 
z
" transform="scale(0.015625)"/>
       <path id="DejaVuSans-22c5" d="M 684 2619 
L 1344 2619 
L 1344 1825 
L 684 1825 
L 684 2619 
z
" transform="scale(0.015625)"/>
       <path id="DejaVuSans-Oblique-74" d="M 2706 3500 
L 2619 3053 
L 1472 3053 
L 1100 1153 
Q 1081 1047 1072 975 
Q 1063 903 1063 863 
Q 1063 663 1183 572 
Q 1303 481 1569 481 
L 2150 481 
L 2053 0 
L 1503 0 
Q 991 0 739 200 
Q 488 400 488 806 
Q 488 878 497 964 
Q 506 1050 525 1153 
L 897 3053 
L 409 3053 
L 500 3500 
L 978 3500 
L 1172 4494 
L 1747 4494 
L 1556 3500 
L 2706 3500 
z
" transform="scale(0.015625)"/>
       <path id="DejaVuSans-29" d="M 513 4856 
L 1013 4856 
Q 1481 4119 1714 3412 
Q 1947 2706 1947 2009 
Q 1947 1309 1714 600 
Q 1481 -109 1013 -844 
L 513 -844 
Q 928 -128 1133 580 
Q 1338 1288 1338 2009 
Q 1338 2731 1133 3434 
Q 928 4138 513 4856 
z
" transform="scale(0.015625)"/>
      </defs>
      <use xlink:href="#DejaVuSans-307" transform="translate(62.388672 12.015625)"/>
      <use xlink:href="#DejaVuSans-Oblique-76" transform="translate(0 0.828125)"/>
      <use xlink:href="#DejaVuSans-20" transform="translate(59.179688 0.828125)"/>
      <use xlink:href="#DejaVuSans-3a" transform="translate(90.966797 0.828125)"/>
      <use xlink:href="#DejaVuSans-20" transform="translate(124.658203 0.828125)"/>
      <use xlink:href="#DejaVuSans-Oblique-63" transform="translate(156.445312 0.828125)"/>
      <use xlink:href="#DejaVuSans-Oblique-6f" transform="translate(211.425781 0.828125)"/>
      <use xlink:href="#DejaVuSans-Oblique-73" transform="translate(272.607422 0.828125)"/>
      <use xlink:href="#DejaVuSans-28" transform="translate(324.707031 0.828125)"/>
      <use xlink:href="#DejaVuSans-Oblique-3c9" transform="translate(363.720703 0.828125)"/>
      <use xlink:href="#DejaVuSans-22c5" transform="translate(466.943359 0.828125)"/>
      <use xlink:href="#DejaVuSans-Oblique-74" transform="translate(518.212891 0.828125)"/>
      <use xlink:href="#DejaVuSans-29" transform="translate(557.421875 0.828125)"/>
     </g>
    </g>
   </g>
   <g id="matplotlib.axis_6">
    <g id="ytick_3">
     <g id="line2d_20"/>
    </g>
    <g id="text_15">
     <!--   -->
     <g transform="translate(358.37649 84.395625) rotate(-90) scale(0.24 -0.24)">
      <use xlink:href="#DejaVuSans-20"/>
     </g>
    </g>
   </g>
   <g id="line2d_21">
    <path d="M 379.94582 157.492958 
L 380.829666 157.107202 
L 381.713512 156.53785 
L 382.597357 155.719238 
L 383.481203 154.573043 
L 384.365048 153.01081 
L 385.248894 150.939104 
L 386.13274 148.267629 
L 387.016585 144.920283 
L 387.900431 140.848481 
L 389.226199 133.382399 
L 390.551968 124.504326 
L 394.529273 96.456378 
L 395.413119 91.876177 
L 396.296965 88.54342 
L 396.738887 87.40786 
L 397.18081 86.647429 
L 397.622733 86.269292 
L 398.064656 86.273174 
L 398.506579 86.651256 
L 398.948502 87.388286 
L 399.390424 88.461898 
L 400.27427 91.497174 
L 401.158116 95.460166 
L 404.693498 113.148315 
L 405.577344 116.267581 
L 406.46119 118.356394 
L 406.903112 118.976037 
L 407.345035 119.303057 
L 407.786958 119.33694 
L 408.228881 119.082061 
L 408.670804 118.547279 
L 409.112727 117.74548 
L 409.996572 115.40951 
L 410.880418 112.238369 
L 412.206186 106.347485 
L 416.625414 85.020952 
L 417.951183 80.122715 
L 418.835029 77.49199 
L 419.718874 75.374522 
L 420.60272 73.743531 
L 421.486566 72.553452 
L 422.370411 71.749858 
L 423.254257 71.279737 
L 424.138102 71.100868 
L 425.021948 71.189066 
L 425.905794 71.542287 
L 426.789639 72.180956 
L 427.673485 73.144442 
L 428.557331 74.484179 
L 429.441176 76.254469 
L 430.325022 78.502368 
L 431.208868 81.258209 
L 432.534636 86.350115 
L 433.860405 92.491919 
L 435.628096 101.88467 
L 440.047324 126.111317 
L 441.815015 134.121631 
L 443.140784 139.115227 
L 444.466552 143.219545 
L 445.792321 146.493727 
L 447.118089 149.043584 
L 448.443858 150.999092 
L 449.769626 152.49449 
L 451.095395 153.652225 
L 452.863086 154.838789 
L 454.630777 155.75806 
L 456.840391 156.647621 
L 459.050005 157.293973 
L 461.25962 157.719455 
L 463.911157 157.996508 
L 467.888462 158.137009 
L 467.888462 158.137009 
" clip-path="url(#p87050cb067)" style="fill: none; stroke: #ff0000; stroke-opacity: 0.8; stroke-linecap: square"/>
   </g>
   <g id="line2d_22">
    <path d="M 390.3226 156.183376 
L 390.969631 153.743904 
L 391.616662 149.046814 
L 392.263694 140.783254 
L 392.910725 127.541065 
L 393.557756 108.299323 
L 394.851819 53.79165 
L 396.140221 -1 
M 398.302175 -1 
L 398.734006 13.803968 
L 400.6751 99.485017 
L 401.322131 120.948974 
L 401.969162 136.233375 
L 402.616194 146.022005 
L 403.263225 151.627894 
L 403.910256 154.408121 
L 404.557287 155.440434 
L 405.204319 155.436343 
L 405.85135 154.792552 
L 406.498381 153.687263 
L 407.145412 152.166855 
L 407.792444 150.205591 
L 408.439475 147.741885 
L 409.086506 144.700473 
L 409.733537 141.007811 
L 411.0276 131.454331 
L 412.321662 118.943237 
L 413.615725 103.954826 
L 416.850881 64.257889 
L 418.144944 51.245598 
L 419.439006 41.147351 
L 420.086037 37.346814 
L 420.733069 34.485955 
L 421.3801 32.664291 
L 422.027131 31.977811 
L 422.674162 32.489979 
L 423.321194 34.200076 
L 423.968225 37.020991 
L 424.615256 40.7781 
L 425.909319 50.135042 
L 431.085569 90.522385 
L 433.673694 108.990489 
L 435.614788 121.308974 
L 436.90885 128.336568 
L 438.202913 134.156506 
L 439.496975 138.713134 
L 440.791038 142.176891 
L 442.0851 144.851139 
L 443.379163 147.002719 
L 444.673225 148.778469 
L 445.967288 150.222093 
L 447.26135 151.353105 
L 453.084631 155.50699 
L 454.378694 156.218985 
L 455.672756 156.622882 
L 457.61385 156.867439 
L 466.672288 157.56965 
L 475.730725 157.995721 
L 519.081819 158.16285 
L 519.081819 158.16285 
" clip-path="url(#p87050cb067)" style="fill: none; stroke: #000000; stroke-opacity: 0.4; stroke-linecap: square"/>
   </g>
   <g id="line2d_23">
    <path d="M 370.115459 158.027127 
L 371.675887 157.784622 
L 372.846207 157.401296 
L 374.016528 156.714525 
L 374.796742 156.007423 
L 375.576955 155.031831 
L 376.357169 153.721133 
L 377.137383 152.005636 
L 377.917597 149.816936 
L 378.69781 147.092913 
L 379.868131 141.896033 
L 381.038452 135.280341 
L 382.208772 127.235932 
L 383.7692 114.439261 
L 385.329627 99.655595 
L 388.060375 71.06861 
L 390.01091 51.430969 
L 391.18123 41.562426 
L 391.961444 36.292336 
L 392.741658 32.321928 
L 393.521872 29.807759 
L 393.911979 29.125216 
L 394.302085 28.829988 
L 394.692192 28.918055 
L 395.082299 29.379605 
L 395.472406 30.19924 
L 396.25262 32.825789 
L 397.032834 36.581714 
L 398.203154 43.746234 
L 402.884437 74.913706 
L 404.054757 80.902235 
L 405.225078 85.936272 
L 406.395399 90.061671 
L 407.565719 93.316314 
L 408.73604 95.735056 
L 409.516254 96.915977 
L 410.296467 97.796758 
L 411.466788 98.69633 
L 413.807429 100.155038 
L 414.587643 100.944544 
L 415.367857 102.055786 
L 416.148071 103.560551 
L 416.928284 105.499167 
L 418.098605 109.22068 
L 419.268926 113.785167 
L 421.609567 124.193843 
L 423.169994 130.830734 
L 424.340315 135.085739 
L 425.510636 138.529801 
L 426.680956 141.158851 
L 427.851277 143.102873 
L 429.021598 144.574111 
L 431.362239 146.982742 
L 433.312773 149.124402 
L 438.384163 154.97007 
L 439.94459 156.220954 
L 441.114911 156.903823 
L 442.675338 157.513036 
L 444.235766 157.859049 
L 446.1863 158.061273 
L 447.746728 158.125507 
L 447.746728 158.125507 
" clip-path="url(#p87050cb067)" style="fill: none; stroke-dasharray: 14.8,6.4; stroke-dashoffset: 0; stroke: #0000ff; stroke-opacity: 0.4; stroke-width: 4"/>
   </g>
   <g id="line2d_24">
    <path d="M 395.593849 157.91188 
L 395.620447 152.622064 
L 395.731271 39.310942 
L 395.746571 -1 
M 396.369819 -1 
L 396.476005 157.910084 
L 396.476005 157.910084 
" clip-path="url(#p87050cb067)" style="fill: none; stroke-dasharray: 14.8,6.4; stroke-dashoffset: 0; stroke: #008000; stroke-opacity: 0.4; stroke-width: 4"/>
   </g>
   <g id="patch_7">
    <path d="M 370.86774 158.16351 
L 502.70976 158.16351 
" style="fill: none; stroke: #000000; stroke-width: 0.8; stroke-linejoin: miter; stroke-linecap: square"/>
   </g>
   <g id="legend_1">
    <g id="patch_8">
     <path d="M 519.50976 170.153202 
L 856.19976 170.153202 
Q 860.99976 170.153202 860.99976 165.353202 
L 860.99976 26.843202 
Q 860.99976 22.043202 856.19976 22.043202 
L 519.50976 22.043202 
Q 514.70976 22.043202 514.70976 26.843202 
L 514.70976 165.353202 
Q 514.70976 170.153202 519.50976 170.153202 
z
" style="fill: #ffffff; opacity: 0.8; stroke: #cccccc; stroke-linejoin: miter"/>
    </g>
    <g id="line2d_25">
     <path d="M 524.30976 41.479452 
L 548.30976 41.479452 
L 572.30976 41.479452 
" style="fill: none; stroke: #ff0000; stroke-opacity: 0.8; stroke-linecap: square"/>
    </g>
    <g id="text_16">
     <!-- Observed Data -->
     <g transform="translate(591.50976 49.879452) scale(0.24 -0.24)">
      <defs>
       <path id="DejaVuSans-4f" d="M 2522 4238 
Q 1834 4238 1429 3725 
Q 1025 3213 1025 2328 
Q 1025 1447 1429 934 
Q 1834 422 2522 422 
Q 3209 422 3611 934 
Q 4013 1447 4013 2328 
Q 4013 3213 3611 3725 
Q 3209 4238 2522 4238 
z
M 2522 4750 
Q 3503 4750 4090 4092 
Q 4678 3434 4678 2328 
Q 4678 1225 4090 567 
Q 3503 -91 2522 -91 
Q 1538 -91 948 565 
Q 359 1222 359 2328 
Q 359 3434 948 4092 
Q 1538 4750 2522 4750 
z
" transform="scale(0.015625)"/>
       <path id="DejaVuSans-62" d="M 3116 1747 
Q 3116 2381 2855 2742 
Q 2594 3103 2138 3103 
Q 1681 3103 1420 2742 
Q 1159 2381 1159 1747 
Q 1159 1113 1420 752 
Q 1681 391 2138 391 
Q 2594 391 2855 752 
Q 3116 1113 3116 1747 
z
M 1159 2969 
Q 1341 3281 1617 3432 
Q 1894 3584 2278 3584 
Q 2916 3584 3314 3078 
Q 3713 2572 3713 1747 
Q 3713 922 3314 415 
Q 2916 -91 2278 -91 
Q 1894 -91 1617 61 
Q 1341 213 1159 525 
L 1159 0 
L 581 0 
L 581 4863 
L 1159 4863 
L 1159 2969 
z
" transform="scale(0.015625)"/>
       <path id="DejaVuSans-73" d="M 2834 3397 
L 2834 2853 
Q 2591 2978 2328 3040 
Q 2066 3103 1784 3103 
Q 1356 3103 1142 2972 
Q 928 2841 928 2578 
Q 928 2378 1081 2264 
Q 1234 2150 1697 2047 
L 1894 2003 
Q 2506 1872 2764 1633 
Q 3022 1394 3022 966 
Q 3022 478 2636 193 
Q 2250 -91 1575 -91 
Q 1294 -91 989 -36 
Q 684 19 347 128 
L 347 722 
Q 666 556 975 473 
Q 1284 391 1588 391 
Q 1994 391 2212 530 
Q 2431 669 2431 922 
Q 2431 1156 2273 1281 
Q 2116 1406 1581 1522 
L 1381 1569 
Q 847 1681 609 1914 
Q 372 2147 372 2553 
Q 372 3047 722 3315 
Q 1072 3584 1716 3584 
Q 2034 3584 2315 3537 
Q 2597 3491 2834 3397 
z
" transform="scale(0.015625)"/>
       <path id="DejaVuSans-65" d="M 3597 1894 
L 3597 1613 
L 953 1613 
Q 991 1019 1311 708 
Q 1631 397 2203 397 
Q 2534 397 2845 478 
Q 3156 559 3463 722 
L 3463 178 
Q 3153 47 2828 -22 
Q 2503 -91 2169 -91 
Q 1331 -91 842 396 
Q 353 884 353 1716 
Q 353 2575 817 3079 
Q 1281 3584 2069 3584 
Q 2775 3584 3186 3129 
Q 3597 2675 3597 1894 
z
M 3022 2063 
Q 3016 2534 2758 2815 
Q 2500 3097 2075 3097 
Q 1594 3097 1305 2825 
Q 1016 2553 972 2059 
L 3022 2063 
z
" transform="scale(0.015625)"/>
       <path id="DejaVuSans-72" d="M 2631 2963 
Q 2534 3019 2420 3045 
Q 2306 3072 2169 3072 
Q 1681 3072 1420 2755 
Q 1159 2438 1159 1844 
L 1159 0 
L 581 0 
L 581 3500 
L 1159 3500 
L 1159 2956 
Q 1341 3275 1631 3429 
Q 1922 3584 2338 3584 
Q 2397 3584 2469 3576 
Q 2541 3569 2628 3553 
L 2631 2963 
z
" transform="scale(0.015625)"/>
       <path id="DejaVuSans-76" d="M 191 3500 
L 800 3500 
L 1894 563 
L 2988 3500 
L 3597 3500 
L 2284 0 
L 1503 0 
L 191 3500 
z
" transform="scale(0.015625)"/>
       <path id="DejaVuSans-64" d="M 2906 2969 
L 2906 4863 
L 3481 4863 
L 3481 0 
L 2906 0 
L 2906 525 
Q 2725 213 2448 61 
Q 2172 -91 1784 -91 
Q 1150 -91 751 415 
Q 353 922 353 1747 
Q 353 2572 751 3078 
Q 1150 3584 1784 3584 
Q 2172 3584 2448 3432 
Q 2725 3281 2906 2969 
z
M 947 1747 
Q 947 1113 1208 752 
Q 1469 391 1925 391 
Q 2381 391 2643 752 
Q 2906 1113 2906 1747 
Q 2906 2381 2643 2742 
Q 2381 3103 1925 3103 
Q 1469 3103 1208 2742 
Q 947 2381 947 1747 
z
" transform="scale(0.015625)"/>
       <path id="DejaVuSans-44" d="M 1259 4147 
L 1259 519 
L 2022 519 
Q 2988 519 3436 956 
Q 3884 1394 3884 2338 
Q 3884 3275 3436 3711 
Q 2988 4147 2022 4147 
L 1259 4147 
z
M 628 4666 
L 1925 4666 
Q 3281 4666 3915 4102 
Q 4550 3538 4550 2338 
Q 4550 1131 3912 565 
Q 3275 0 1925 0 
L 628 0 
L 628 4666 
z
" transform="scale(0.015625)"/>
       <path id="DejaVuSans-61" d="M 2194 1759 
Q 1497 1759 1228 1600 
Q 959 1441 959 1056 
Q 959 750 1161 570 
Q 1363 391 1709 391 
Q 2188 391 2477 730 
Q 2766 1069 2766 1631 
L 2766 1759 
L 2194 1759 
z
M 3341 1997 
L 3341 0 
L 2766 0 
L 2766 531 
Q 2569 213 2275 61 
Q 1981 -91 1556 -91 
Q 1019 -91 701 211 
Q 384 513 384 1019 
Q 384 1609 779 1909 
Q 1175 2209 1959 2209 
L 2766 2209 
L 2766 2266 
Q 2766 2663 2505 2880 
Q 2244 3097 1772 3097 
Q 1472 3097 1187 3025 
Q 903 2953 641 2809 
L 641 3341 
Q 956 3463 1253 3523 
Q 1550 3584 1831 3584 
Q 2591 3584 2966 3190 
Q 3341 2797 3341 1997 
z
" transform="scale(0.015625)"/>
       <path id="DejaVuSans-74" d="M 1172 4494 
L 1172 3500 
L 2356 3500 
L 2356 3053 
L 1172 3053 
L 1172 1153 
Q 1172 725 1289 603 
Q 1406 481 1766 481 
L 2356 481 
L 2356 0 
L 1766 0 
Q 1100 0 847 248 
Q 594 497 594 1153 
L 594 3053 
L 172 3053 
L 172 3500 
L 594 3500 
L 594 4494 
L 1172 4494 
z
" transform="scale(0.015625)"/>
      </defs>
      <use xlink:href="#DejaVuSans-4f"/>
      <use xlink:href="#DejaVuSans-62" transform="translate(78.710938 0)"/>
      <use xlink:href="#DejaVuSans-73" transform="translate(142.1875 0)"/>
      <use xlink:href="#DejaVuSans-65" transform="translate(194.287109 0)"/>
      <use xlink:href="#DejaVuSans-72" transform="translate(255.810547 0)"/>
      <use xlink:href="#DejaVuSans-76" transform="translate(296.923828 0)"/>
      <use xlink:href="#DejaVuSans-65" transform="translate(356.103516 0)"/>
      <use xlink:href="#DejaVuSans-64" transform="translate(417.626953 0)"/>
      <use xlink:href="#DejaVuSans-20" transform="translate(481.103516 0)"/>
      <use xlink:href="#DejaVuSans-44" transform="translate(512.890625 0)"/>
      <use xlink:href="#DejaVuSans-61" transform="translate(589.892578 0)"/>
      <use xlink:href="#DejaVuSans-74" transform="translate(651.171875 0)"/>
      <use xlink:href="#DejaVuSans-61" transform="translate(690.380859 0)"/>
     </g>
    </g>
    <g id="line2d_26">
     <path d="M 524.30976 76.706952 
L 548.30976 76.706952 
L 572.30976 76.706952 
" style="fill: none; stroke: #000000; stroke-opacity: 0.4; stroke-linecap: square"/>
    </g>
    <g id="text_17">
     <!-- Data Generating PDF -->
     <g transform="translate(591.50976 85.106952) scale(0.24 -0.24)">
      <defs>
       <path id="DejaVuSans-47" d="M 3809 666 
L 3809 1919 
L 2778 1919 
L 2778 2438 
L 4434 2438 
L 4434 434 
Q 4069 175 3628 42 
Q 3188 -91 2688 -91 
Q 1594 -91 976 548 
Q 359 1188 359 2328 
Q 359 3472 976 4111 
Q 1594 4750 2688 4750 
Q 3144 4750 3555 4637 
Q 3966 4525 4313 4306 
L 4313 3634 
Q 3963 3931 3569 4081 
Q 3175 4231 2741 4231 
Q 1884 4231 1454 3753 
Q 1025 3275 1025 2328 
Q 1025 1384 1454 906 
Q 1884 428 2741 428 
Q 3075 428 3337 486 
Q 3600 544 3809 666 
z
" transform="scale(0.015625)"/>
       <path id="DejaVuSans-6e" d="M 3513 2113 
L 3513 0 
L 2938 0 
L 2938 2094 
Q 2938 2591 2744 2837 
Q 2550 3084 2163 3084 
Q 1697 3084 1428 2787 
Q 1159 2491 1159 1978 
L 1159 0 
L 581 0 
L 581 3500 
L 1159 3500 
L 1159 2956 
Q 1366 3272 1645 3428 
Q 1925 3584 2291 3584 
Q 2894 3584 3203 3211 
Q 3513 2838 3513 2113 
z
" transform="scale(0.015625)"/>
       <path id="DejaVuSans-69" d="M 603 3500 
L 1178 3500 
L 1178 0 
L 603 0 
L 603 3500 
z
M 603 4863 
L 1178 4863 
L 1178 4134 
L 603 4134 
L 603 4863 
z
" transform="scale(0.015625)"/>
       <path id="DejaVuSans-67" d="M 2906 1791 
Q 2906 2416 2648 2759 
Q 2391 3103 1925 3103 
Q 1463 3103 1205 2759 
Q 947 2416 947 1791 
Q 947 1169 1205 825 
Q 1463 481 1925 481 
Q 2391 481 2648 825 
Q 2906 1169 2906 1791 
z
M 3481 434 
Q 3481 -459 3084 -895 
Q 2688 -1331 1869 -1331 
Q 1566 -1331 1297 -1286 
Q 1028 -1241 775 -1147 
L 775 -588 
Q 1028 -725 1275 -790 
Q 1522 -856 1778 -856 
Q 2344 -856 2625 -561 
Q 2906 -266 2906 331 
L 2906 616 
Q 2728 306 2450 153 
Q 2172 0 1784 0 
Q 1141 0 747 490 
Q 353 981 353 1791 
Q 353 2603 747 3093 
Q 1141 3584 1784 3584 
Q 2172 3584 2450 3431 
Q 2728 3278 2906 2969 
L 2906 3500 
L 3481 3500 
L 3481 434 
z
" transform="scale(0.015625)"/>
       <path id="DejaVuSans-50" d="M 1259 4147 
L 1259 2394 
L 2053 2394 
Q 2494 2394 2734 2622 
Q 2975 2850 2975 3272 
Q 2975 3691 2734 3919 
Q 2494 4147 2053 4147 
L 1259 4147 
z
M 628 4666 
L 2053 4666 
Q 2838 4666 3239 4311 
Q 3641 3956 3641 3272 
Q 3641 2581 3239 2228 
Q 2838 1875 2053 1875 
L 1259 1875 
L 1259 0 
L 628 0 
L 628 4666 
z
" transform="scale(0.015625)"/>
       <path id="DejaVuSans-46" d="M 628 4666 
L 3309 4666 
L 3309 4134 
L 1259 4134 
L 1259 2759 
L 3109 2759 
L 3109 2228 
L 1259 2228 
L 1259 0 
L 628 0 
L 628 4666 
z
" transform="scale(0.015625)"/>
      </defs>
      <use xlink:href="#DejaVuSans-44"/>
      <use xlink:href="#DejaVuSans-61" transform="translate(77.001953 0)"/>
      <use xlink:href="#DejaVuSans-74" transform="translate(138.28125 0)"/>
      <use xlink:href="#DejaVuSans-61" transform="translate(177.490234 0)"/>
      <use xlink:href="#DejaVuSans-20" transform="translate(238.769531 0)"/>
      <use xlink:href="#DejaVuSans-47" transform="translate(270.556641 0)"/>
      <use xlink:href="#DejaVuSans-65" transform="translate(348.046875 0)"/>
      <use xlink:href="#DejaVuSans-6e" transform="translate(409.570312 0)"/>
      <use xlink:href="#DejaVuSans-65" transform="translate(472.949219 0)"/>
      <use xlink:href="#DejaVuSans-72" transform="translate(534.472656 0)"/>
      <use xlink:href="#DejaVuSans-61" transform="translate(575.585938 0)"/>
      <use xlink:href="#DejaVuSans-74" transform="translate(636.865234 0)"/>
      <use xlink:href="#DejaVuSans-69" transform="translate(676.074219 0)"/>
      <use xlink:href="#DejaVuSans-6e" transform="translate(703.857422 0)"/>
      <use xlink:href="#DejaVuSans-67" transform="translate(767.236328 0)"/>
      <use xlink:href="#DejaVuSans-20" transform="translate(830.712891 0)"/>
      <use xlink:href="#DejaVuSans-50" transform="translate(862.5 0)"/>
      <use xlink:href="#DejaVuSans-44" transform="translate(922.802734 0)"/>
      <use xlink:href="#DejaVuSans-46" transform="translate(999.804688 0)"/>
     </g>
    </g>
    <g id="line2d_27">
     <path d="M 524.30976 111.934452 
L 548.30976 111.934452 
L 572.30976 111.934452 
" style="fill: none; stroke-dasharray: 14.8,6.4; stroke-dashoffset: 0; stroke: #0000ff; stroke-opacity: 0.4; stroke-width: 4"/>
    </g>
    <g id="text_18">
     <!-- Hierarchical Bayesian -->
     <g transform="translate(591.50976 120.334452) scale(0.24 -0.24)">
      <defs>
       <path id="DejaVuSans-48" d="M 628 4666 
L 1259 4666 
L 1259 2753 
L 3553 2753 
L 3553 4666 
L 4184 4666 
L 4184 0 
L 3553 0 
L 3553 2222 
L 1259 2222 
L 1259 0 
L 628 0 
L 628 4666 
z
" transform="scale(0.015625)"/>
       <path id="DejaVuSans-63" d="M 3122 3366 
L 3122 2828 
Q 2878 2963 2633 3030 
Q 2388 3097 2138 3097 
Q 1578 3097 1268 2742 
Q 959 2388 959 1747 
Q 959 1106 1268 751 
Q 1578 397 2138 397 
Q 2388 397 2633 464 
Q 2878 531 3122 666 
L 3122 134 
Q 2881 22 2623 -34 
Q 2366 -91 2075 -91 
Q 1284 -91 818 406 
Q 353 903 353 1747 
Q 353 2603 823 3093 
Q 1294 3584 2113 3584 
Q 2378 3584 2631 3529 
Q 2884 3475 3122 3366 
z
" transform="scale(0.015625)"/>
       <path id="DejaVuSans-68" d="M 3513 2113 
L 3513 0 
L 2938 0 
L 2938 2094 
Q 2938 2591 2744 2837 
Q 2550 3084 2163 3084 
Q 1697 3084 1428 2787 
Q 1159 2491 1159 1978 
L 1159 0 
L 581 0 
L 581 4863 
L 1159 4863 
L 1159 2956 
Q 1366 3272 1645 3428 
Q 1925 3584 2291 3584 
Q 2894 3584 3203 3211 
Q 3513 2838 3513 2113 
z
" transform="scale(0.015625)"/>
       <path id="DejaVuSans-6c" d="M 603 4863 
L 1178 4863 
L 1178 0 
L 603 0 
L 603 4863 
z
" transform="scale(0.015625)"/>
       <path id="DejaVuSans-42" d="M 1259 2228 
L 1259 519 
L 2272 519 
Q 2781 519 3026 730 
Q 3272 941 3272 1375 
Q 3272 1813 3026 2020 
Q 2781 2228 2272 2228 
L 1259 2228 
z
M 1259 4147 
L 1259 2741 
L 2194 2741 
Q 2656 2741 2882 2914 
Q 3109 3088 3109 3444 
Q 3109 3797 2882 3972 
Q 2656 4147 2194 4147 
L 1259 4147 
z
M 628 4666 
L 2241 4666 
Q 2963 4666 3353 4366 
Q 3744 4066 3744 3513 
Q 3744 3084 3544 2831 
Q 3344 2578 2956 2516 
Q 3422 2416 3680 2098 
Q 3938 1781 3938 1306 
Q 3938 681 3513 340 
Q 3088 0 2303 0 
L 628 0 
L 628 4666 
z
" transform="scale(0.015625)"/>
       <path id="DejaVuSans-79" d="M 2059 -325 
Q 1816 -950 1584 -1140 
Q 1353 -1331 966 -1331 
L 506 -1331 
L 506 -850 
L 844 -850 
Q 1081 -850 1212 -737 
Q 1344 -625 1503 -206 
L 1606 56 
L 191 3500 
L 800 3500 
L 1894 763 
L 2988 3500 
L 3597 3500 
L 2059 -325 
z
" transform="scale(0.015625)"/>
      </defs>
      <use xlink:href="#DejaVuSans-48"/>
      <use xlink:href="#DejaVuSans-69" transform="translate(75.195312 0)"/>
      <use xlink:href="#DejaVuSans-65" transform="translate(102.978516 0)"/>
      <use xlink:href="#DejaVuSans-72" transform="translate(164.501953 0)"/>
      <use xlink:href="#DejaVuSans-61" transform="translate(205.615234 0)"/>
      <use xlink:href="#DejaVuSans-72" transform="translate(266.894531 0)"/>
      <use xlink:href="#DejaVuSans-63" transform="translate(305.757812 0)"/>
      <use xlink:href="#DejaVuSans-68" transform="translate(360.738281 0)"/>
      <use xlink:href="#DejaVuSans-69" transform="translate(424.117188 0)"/>
      <use xlink:href="#DejaVuSans-63" transform="translate(451.900391 0)"/>
      <use xlink:href="#DejaVuSans-61" transform="translate(506.880859 0)"/>
      <use xlink:href="#DejaVuSans-6c" transform="translate(568.160156 0)"/>
      <use xlink:href="#DejaVuSans-20" transform="translate(595.943359 0)"/>
      <use xlink:href="#DejaVuSans-42" transform="translate(627.730469 0)"/>
      <use xlink:href="#DejaVuSans-61" transform="translate(696.333984 0)"/>
      <use xlink:href="#DejaVuSans-79" transform="translate(757.613281 0)"/>
      <use xlink:href="#DejaVuSans-65" transform="translate(816.792969 0)"/>
      <use xlink:href="#DejaVuSans-73" transform="translate(878.316406 0)"/>
      <use xlink:href="#DejaVuSans-69" transform="translate(930.416016 0)"/>
      <use xlink:href="#DejaVuSans-61" transform="translate(958.199219 0)"/>
      <use xlink:href="#DejaVuSans-6e" transform="translate(1019.478516 0)"/>
     </g>
    </g>
    <g id="line2d_28">
     <path d="M 524.30976 147.161952 
L 548.30976 147.161952 
L 572.30976 147.161952 
" style="fill: none; stroke-dasharray: 14.8,6.4; stroke-dashoffset: 0; stroke: #008000; stroke-opacity: 0.4; stroke-width: 4"/>
    </g>
    <g id="text_19">
     <!-- Flat Bayesian -->
     <g transform="translate(591.50976 155.561952) scale(0.24 -0.24)">
      <use xlink:href="#DejaVuSans-46"/>
      <use xlink:href="#DejaVuSans-6c" transform="translate(57.519531 0)"/>
      <use xlink:href="#DejaVuSans-61" transform="translate(85.302734 0)"/>
      <use xlink:href="#DejaVuSans-74" transform="translate(146.582031 0)"/>
      <use xlink:href="#DejaVuSans-20" transform="translate(185.791016 0)"/>
      <use xlink:href="#DejaVuSans-42" transform="translate(217.578125 0)"/>
      <use xlink:href="#DejaVuSans-61" transform="translate(286.181641 0)"/>
      <use xlink:href="#DejaVuSans-79" transform="translate(347.460938 0)"/>
      <use xlink:href="#DejaVuSans-65" transform="translate(406.640625 0)"/>
      <use xlink:href="#DejaVuSans-73" transform="translate(468.164062 0)"/>
      <use xlink:href="#DejaVuSans-69" transform="translate(520.263672 0)"/>
      <use xlink:href="#DejaVuSans-61" transform="translate(548.046875 0)"/>
      <use xlink:href="#DejaVuSans-6e" transform="translate(609.326172 0)"/>
     </g>
    </g>
   </g>
  </g>
 </g>
 <defs>
  <clipPath id="p26ace7f727">
   <rect x="33.72774" y="3.00024" width="131.84202" height="155.16327"/>
  </clipPath>
  <clipPath id="p2c42c96036">
   <rect x="202.29774" y="3.00024" width="131.84202" height="155.16327"/>
  </clipPath>
  <clipPath id="p87050cb067">
   <rect x="370.86774" y="3.00024" width="131.84202" height="155.16327"/>
  </clipPath>
 </defs>
</svg>
