<?xml version="1.0" encoding="utf-8" standalone="no"?>
<!DOCTYPE svg PUBLIC "-//W3C//DTD SVG 1.1//EN"
  "http://www.w3.org/Graphics/SVG/1.1/DTD/svg11.dtd">
<svg xmlns:xlink="http://www.w3.org/1999/xlink" width="864pt" height="216pt" viewBox="0 0 864 216" xmlns="http://www.w3.org/2000/svg" version="1.1">
 <metadata>
  <rdf:RDF xmlns:dc="http://purl.org/dc/elements/1.1/" xmlns:cc="http://creativecommons.org/ns#" xmlns:rdf="http://www.w3.org/1999/02/22-rdf-syntax-ns#">
   <cc:Work>
    <dc:type rdf:resource="http://purl.org/dc/dcmitype/StillImage"/>
    <dc:date>2025-10-17T11:17:11.097126</dc:date>
    <dc:format>image/svg+xml</dc:format>
    <dc:creator>
     <cc:Agent>
      <dc:title>Matplotlib v3.10.5, https://matplotlib.org/</dc:title>
     </cc:Agent>
    </dc:creator>
   </cc:Work>
  </rdf:RDF>
 </metadata>
 <defs>
  <style type="text/css">*{stroke-linejoin: round; stroke-linecap: butt}</style>
 </defs>
 <g id="figure_1">
  <g id="patch_1">
   <path d="M 0 216 
L 864 216 
L 864 0 
L 0 0 
z
" style="fill: #ffffff"/>
  </g>
  <g id="axes_1">
   <g id="patch_2">
    <path d="M 33.72774 159.41601 
L 284.99976 159.41601 
L 284.99976 3.00024 
L 33.72774 3.00024 
z
" style="fill: #ffffff"/>
   </g>
   <g id="matplotlib.axis_1">
    <g id="xtick_1">
     <g id="line2d_1">
      <defs>
       <path id="m6ce0b8bba9" d="M 0 0 
L 0 3.5 
" style="stroke: #000000; stroke-width: 0.8"/>
      </defs>
      <g>
       <use xlink:href="#m6ce0b8bba9" x="34.625473" y="159.41601" style="stroke: #000000; stroke-width: 0.8"/>
      </g>
     </g>
     <g id="text_1">
      <!-- 0.0 -->
      <g transform="translate(18.722348 181.612885) scale(0.2 -0.2)">
       <defs>
        <path id="DejaVuSans-30" d="M 2034 4250 
Q 1547 4250 1301 3770 
Q 1056 3291 1056 2328 
Q 1056 1369 1301 889 
Q 1547 409 2034 409 
Q 2525 409 2770 889 
Q 3016 1369 3016 2328 
Q 3016 3291 2770 3770 
Q 2525 4250 2034 4250 
z
M 2034 4750 
Q 2819 4750 3233 4129 
Q 3647 3509 3647 2328 
Q 3647 1150 3233 529 
Q 2819 -91 2034 -91 
Q 1250 -91 836 529 
Q 422 1150 422 2328 
Q 422 3509 836 4129 
Q 1250 4750 2034 4750 
z
" transform="scale(0.015625)"/>
        <path id="DejaVuSans-2e" d="M 684 794 
L 1344 794 
L 1344 0 
L 684 0 
L 684 794 
z
" transform="scale(0.015625)"/>
       </defs>
       <use xlink:href="#DejaVuSans-30"/>
       <use xlink:href="#DejaVuSans-2e" transform="translate(63.623047 0)"/>
       <use xlink:href="#DejaVuSans-30" transform="translate(95.410156 0)"/>
      </g>
     </g>
    </g>
    <g id="xtick_2">
     <g id="line2d_2">
      <g>
       <use xlink:href="#m6ce0b8bba9" x="125.542511" y="159.41601" style="stroke: #000000; stroke-width: 0.8"/>
      </g>
     </g>
     <g id="text_2">
      <!-- 0.8 -->
      <g transform="translate(109.639386 181.612885) scale(0.2 -0.2)">
       <defs>
        <path id="DejaVuSans-38" d="M 2034 2216 
Q 1584 2216 1326 1975 
Q 1069 1734 1069 1313 
Q 1069 891 1326 650 
Q 1584 409 2034 409 
Q 2484 409 2743 651 
Q 3003 894 3003 1313 
Q 3003 1734 2745 1975 
Q 2488 2216 2034 2216 
z
M 1403 2484 
Q 997 2584 770 2862 
Q 544 3141 544 3541 
Q 544 4100 942 4425 
Q 1341 4750 2034 4750 
Q 2731 4750 3128 4425 
Q 3525 4100 3525 3541 
Q 3525 3141 3298 2862 
Q 3072 2584 2669 2484 
Q 3125 2378 3379 2068 
Q 3634 1759 3634 1313 
Q 3634 634 3220 271 
Q 2806 -91 2034 -91 
Q 1263 -91 848 271 
Q 434 634 434 1313 
Q 434 1759 690 2068 
Q 947 2378 1403 2484 
z
M 1172 3481 
Q 1172 3119 1398 2916 
Q 1625 2713 2034 2713 
Q 2441 2713 2670 2916 
Q 2900 3119 2900 3481 
Q 2900 3844 2670 4047 
Q 2441 4250 2034 4250 
Q 1625 4250 1398 4047 
Q 1172 3844 1172 3481 
z
" transform="scale(0.015625)"/>
       </defs>
       <use xlink:href="#DejaVuSans-30"/>
       <use xlink:href="#DejaVuSans-2e" transform="translate(63.623047 0)"/>
       <use xlink:href="#DejaVuSans-38" transform="translate(95.410156 0)"/>
      </g>
     </g>
    </g>
    <g id="xtick_3">
     <g id="line2d_3">
      <g>
       <use xlink:href="#m6ce0b8bba9" x="216.459549" y="159.41601" style="stroke: #000000; stroke-width: 0.8"/>
      </g>
     </g>
     <g id="text_3">
      <!-- 1.6 -->
      <g transform="translate(200.556424 181.612885) scale(0.2 -0.2)">
       <defs>
        <path id="DejaVuSans-31" d="M 794 531 
L 1825 531 
L 1825 4091 
L 703 3866 
L 703 4441 
L 1819 4666 
L 2450 4666 
L 2450 531 
L 3481 531 
L 3481 0 
L 794 0 
L 794 531 
z
" transform="scale(0.015625)"/>
        <path id="DejaVuSans-36" d="M 2113 2584 
Q 1688 2584 1439 2293 
Q 1191 2003 1191 1497 
Q 1191 994 1439 701 
Q 1688 409 2113 409 
Q 2538 409 2786 701 
Q 3034 994 3034 1497 
Q 3034 2003 2786 2293 
Q 2538 2584 2113 2584 
z
M 3366 4563 
L 3366 3988 
Q 3128 4100 2886 4159 
Q 2644 4219 2406 4219 
Q 1781 4219 1451 3797 
Q 1122 3375 1075 2522 
Q 1259 2794 1537 2939 
Q 1816 3084 2150 3084 
Q 2853 3084 3261 2657 
Q 3669 2231 3669 1497 
Q 3669 778 3244 343 
Q 2819 -91 2113 -91 
Q 1303 -91 875 529 
Q 447 1150 447 2328 
Q 447 3434 972 4092 
Q 1497 4750 2381 4750 
Q 2619 4750 2861 4703 
Q 3103 4656 3366 4563 
z
" transform="scale(0.015625)"/>
       </defs>
       <use xlink:href="#DejaVuSans-31"/>
       <use xlink:href="#DejaVuSans-2e" transform="translate(63.623047 0)"/>
       <use xlink:href="#DejaVuSans-36" transform="translate(95.410156 0)"/>
      </g>
     </g>
    </g>
    <g id="text_4">
     <!-- $\dot{w}$ : $\text{Const.}$ -->
     <g transform="translate(99.72375 208.00851) scale(0.24 -0.24)">
      <defs>
       <path id="DejaVuSans-307" d="M -1894 4863 
L -1319 4863 
L -1319 4134 
L -1894 4134 
L -1894 4863 
z
M -1600 3584 
L -1600 3584 
z
" transform="scale(0.015625)"/>
       <path id="DejaVuSans-Oblique-77" d="M 544 3500 
L 1113 3500 
L 1259 684 
L 2566 3500 
L 3231 3500 
L 3425 684 
L 4666 3500 
L 5241 3500 
L 3641 0 
L 2969 0 
L 2797 2900 
L 1459 0 
L 781 0 
L 544 3500 
z
" transform="scale(0.015625)"/>
       <path id="DejaVuSans-20" transform="scale(0.015625)"/>
       <path id="DejaVuSans-3a" d="M 750 794 
L 1409 794 
L 1409 0 
L 750 0 
L 750 794 
z
M 750 3309 
L 1409 3309 
L 1409 2516 
L 750 2516 
L 750 3309 
z
" transform="scale(0.015625)"/>
       <path id="DejaVuSans-43" d="M 4122 4306 
L 4122 3641 
Q 3803 3938 3442 4084 
Q 3081 4231 2675 4231 
Q 1875 4231 1450 3742 
Q 1025 3253 1025 2328 
Q 1025 1406 1450 917 
Q 1875 428 2675 428 
Q 3081 428 3442 575 
Q 3803 722 4122 1019 
L 4122 359 
Q 3791 134 3420 21 
Q 3050 -91 2638 -91 
Q 1578 -91 968 557 
Q 359 1206 359 2328 
Q 359 3453 968 4101 
Q 1578 4750 2638 4750 
Q 3056 4750 3426 4639 
Q 3797 4528 4122 4306 
z
" transform="scale(0.015625)"/>
       <path id="DejaVuSans-6f" d="M 1959 3097 
Q 1497 3097 1228 2736 
Q 959 2375 959 1747 
Q 959 1119 1226 758 
Q 1494 397 1959 397 
Q 2419 397 2687 759 
Q 2956 1122 2956 1747 
Q 2956 2369 2687 2733 
Q 2419 3097 1959 3097 
z
M 1959 3584 
Q 2709 3584 3137 3096 
Q 3566 2609 3566 1747 
Q 3566 888 3137 398 
Q 2709 -91 1959 -91 
Q 1206 -91 779 398 
Q 353 888 353 1747 
Q 353 2609 779 3096 
Q 1206 3584 1959 3584 
z
" transform="scale(0.015625)"/>
       <path id="DejaVuSans-6e" d="M 3513 2113 
L 3513 0 
L 2938 0 
L 2938 2094 
Q 2938 2591 2744 2837 
Q 2550 3084 2163 3084 
Q 1697 3084 1428 2787 
Q 1159 2491 1159 1978 
L 1159 0 
L 581 0 
L 581 3500 
L 1159 3500 
L 1159 2956 
Q 1366 3272 1645 3428 
Q 1925 3584 2291 3584 
Q 2894 3584 3203 3211 
Q 3513 2838 3513 2113 
z
" transform="scale(0.015625)"/>
       <path id="DejaVuSans-73" d="M 2834 3397 
L 2834 2853 
Q 2591 2978 2328 3040 
Q 2066 3103 1784 3103 
Q 1356 3103 1142 2972 
Q 928 2841 928 2578 
Q 928 2378 1081 2264 
Q 1234 2150 1697 2047 
L 1894 2003 
Q 2506 1872 2764 1633 
Q 3022 1394 3022 966 
Q 3022 478 2636 193 
Q 2250 -91 1575 -91 
Q 1294 -91 989 -36 
Q 684 19 347 128 
L 347 722 
Q 666 556 975 473 
Q 1284 391 1588 391 
Q 1994 391 2212 530 
Q 2431 669 2431 922 
Q 2431 1156 2273 1281 
Q 2116 1406 1581 1522 
L 1381 1569 
Q 847 1681 609 1914 
Q 372 2147 372 2553 
Q 372 3047 722 3315 
Q 1072 3584 1716 3584 
Q 2034 3584 2315 3537 
Q 2597 3491 2834 3397 
z
" transform="scale(0.015625)"/>
       <path id="DejaVuSans-74" d="M 1172 4494 
L 1172 3500 
L 2356 3500 
L 2356 3053 
L 1172 3053 
L 1172 1153 
Q 1172 725 1289 603 
Q 1406 481 1766 481 
L 2356 481 
L 2356 0 
L 1766 0 
Q 1100 0 847 248 
Q 594 497 594 1153 
L 594 3053 
L 172 3053 
L 172 3500 
L 594 3500 
L 594 4494 
L 1172 4494 
z
" transform="scale(0.015625)"/>
      </defs>
      <use xlink:href="#DejaVuSans-307" transform="translate(76.040527 12.015625)"/>
      <use xlink:href="#DejaVuSans-Oblique-77" transform="translate(0 0.828125)"/>
      <use xlink:href="#DejaVuSans-20" transform="translate(81.787109 0.828125)"/>
      <use xlink:href="#DejaVuSans-3a" transform="translate(113.574219 0.828125)"/>
      <use xlink:href="#DejaVuSans-20" transform="translate(147.265625 0.828125)"/>
      <use xlink:href="#DejaVuSans-43" transform="translate(179.052734 0.828125)"/>
      <use xlink:href="#DejaVuSans-6f" transform="translate(248.876953 0.828125)"/>
      <use xlink:href="#DejaVuSans-6e" transform="translate(310.058594 0.828125)"/>
      <use xlink:href="#DejaVuSans-73" transform="translate(373.4375 0.828125)"/>
      <use xlink:href="#DejaVuSans-74" transform="translate(425.537109 0.828125)"/>
      <use xlink:href="#DejaVuSans-2e" transform="translate(464.746094 0.828125)"/>
     </g>
    </g>
   </g>
   <g id="matplotlib.axis_2">
    <g id="ytick_1">
     <g id="line2d_4"/>
    </g>
    <g id="text_5">
     <!--   -->
     <g transform="translate(21.23649 85.021875) rotate(-90) scale(0.24 -0.24)">
      <use xlink:href="#DejaVuSans-20"/>
     </g>
    </g>
   </g>
   <g id="line2d_5">
    <path d="M 70.260844 159.366125 
L 75.899055 159.156437 
L 79.657862 158.761125 
L 82.476967 158.216033 
L 85.296073 157.372148 
L 87.175476 156.612482 
L 89.05488 155.683391 
L 91.873986 153.976096 
L 94.693091 151.933872 
L 97.512196 149.632055 
L 101.271004 146.275928 
L 105.029811 142.584117 
L 107.848916 139.412339 
L 109.72832 136.958362 
L 111.607724 134.105089 
L 113.487127 130.728369 
L 115.366531 126.704725 
L 117.245934 121.927743 
L 119.125338 116.326387 
L 121.004742 109.882627 
L 122.884145 102.645233 
L 125.703251 90.588608 
L 133.220865 57.142003 
L 135.100269 50.009243 
L 136.979672 43.834874 
L 138.859076 38.74004 
L 139.798778 36.614081 
L 140.73848 34.769041 
L 141.678181 33.200218 
L 142.617883 31.90004 
L 143.557585 30.858885 
L 144.497287 30.065936 
L 145.436989 29.510013 
L 146.376691 29.180333 
L 147.316392 29.067151 
L 148.256094 29.16225 
L 149.195796 29.459247 
L 150.135498 29.953712 
L 151.0752 30.643106 
L 152.014901 31.526543 
L 152.954603 32.604417 
L 153.894305 33.877934 
L 155.773709 37.01759 
L 157.653112 40.9513 
L 159.532516 45.666119 
L 161.411919 51.120819 
L 163.291323 57.242885 
L 166.110429 67.44887 
L 169.869236 82.264904 
L 174.567745 100.973732 
L 177.38685 111.322514 
L 179.266254 117.54862 
L 181.145657 123.106269 
L 183.025061 127.925652 
L 184.904465 131.978809 
L 186.783868 135.278209 
L 188.663272 137.870311 
L 190.542676 139.825898 
L 192.422079 141.22976 
L 194.301483 142.172117 
L 196.180886 142.743219 
L 198.06029 143.031197 
L 200.879395 143.119809 
L 206.517606 143.061166 
L 208.39701 143.222381 
L 210.276414 143.546843 
L 212.155817 144.046392 
L 214.974923 145.098661 
L 217.794028 146.426534 
L 222.492537 148.938009 
L 230.949853 153.501623 
L 234.708661 155.325456 
L 237.527766 156.505773 
L 240.346872 157.471173 
L 243.165977 158.201717 
L 245.985082 158.710464 
L 249.74389 159.111632 
L 254.442399 159.328363 
L 257.261504 159.378654 
L 257.261504 159.378654 
" clip-path="url(#pe81baeb340)" style="fill: none; stroke: #ff0000; stroke-opacity: 0.8; stroke-linecap: square"/>
   </g>
   <g id="line2d_6">
    <path d="M 45.149195 159.415081 
L 55.99697 159.296106 
L 65.759966 159.050856 
L 69.014298 158.708105 
L 76.60774 157.564967 
L 80.94685 156.74757 
L 83.116405 156.117477 
L 85.28596 155.156232 
L 87.455514 153.802764 
L 89.625069 152.116557 
L 91.794624 150.157019 
L 93.964179 147.881027 
L 96.133734 145.205379 
L 98.303288 142.13476 
L 101.557621 137.027823 
L 104.811953 131.470916 
L 106.981508 127.355338 
L 109.151062 122.696261 
L 111.320617 117.277256 
L 113.490172 110.909197 
L 115.659727 103.604735 
L 119.998837 88.486408 
L 122.168391 82.315788 
L 124.337946 77.309966 
L 127.592278 70.766416 
L 129.761833 66.679818 
L 131.931388 63.015983 
L 134.100943 59.860892 
L 136.270498 57.149504 
L 138.440052 54.918048 
L 140.609607 53.237312 
L 142.779162 51.986163 
L 144.948717 50.978659 
L 146.033494 50.579373 
L 147.118272 50.305566 
L 148.203049 50.217577 
L 149.287827 50.372423 
L 150.372604 50.807926 
L 151.457381 51.531845 
L 152.542159 52.519598 
L 154.711714 55.076967 
L 156.881268 58.051408 
L 159.050823 61.280237 
L 161.220378 64.934226 
L 163.389933 69.20041 
L 165.559488 74.023946 
L 168.81382 81.97805 
L 172.068152 90.694075 
L 175.322484 99.336897 
L 177.492039 104.339253 
L 180.746371 110.849247 
L 184.000704 117.344763 
L 189.424591 128.455186 
L 191.594145 132.181372 
L 193.7637 135.214261 
L 195.933255 137.729788 
L 201.357142 143.743699 
L 204.611474 147.361909 
L 206.781029 149.480094 
L 208.950584 151.289479 
L 211.120139 152.772643 
L 213.289694 153.923957 
L 215.459248 154.784338 
L 218.713581 155.754014 
L 223.05269 156.829696 
L 226.307022 157.421753 
L 230.646132 157.931424 
L 238.239574 158.591741 
L 249.087348 159.270665 
L 256.68079 159.404641 
L 261.019899 159.415213 
L 261.019899 159.415213 
" clip-path="url(#pe81baeb340)" style="fill: none; stroke: #808080; stroke-opacity: 0.4; stroke-linecap: square"/>
   </g>
   <g id="line2d_7">
    <path d="M 50.846401 159.383495 
L 57.561936 159.232964 
L 62.038959 158.938679 
L 65.396727 158.527179 
L 68.754494 157.887471 
L 72.112262 156.978672 
L 75.470029 155.796137 
L 78.827796 154.382937 
L 85.543331 151.219408 
L 93.378122 147.40424 
L 95.616633 146.094074 
L 97.855145 144.491736 
L 100.093656 142.446254 
L 101.212912 141.208344 
L 102.332168 139.802288 
L 103.451424 138.211761 
L 105.689935 134.425621 
L 107.928447 129.78133 
L 110.166959 124.27268 
L 112.40547 117.957169 
L 114.643982 110.947008 
L 118.001749 99.466766 
L 128.075051 63.867758 
L 130.313563 57.027847 
L 132.552074 51.078598 
L 133.67133 48.513458 
L 134.790586 46.258545 
L 135.909842 44.338074 
L 137.029098 42.771961 
L 138.148353 41.574787 
L 139.267609 40.75492 
L 140.386865 40.31388 
L 141.506121 40.246009 
L 142.625377 40.538508 
L 143.744632 41.171855 
L 144.863888 42.120601 
L 145.983144 43.354511 
L 147.1024 44.839978 
L 149.340911 48.42396 
L 151.579423 52.597986 
L 154.93719 59.486866 
L 159.414214 69.281795 
L 162.771981 77.081105 
L 166.129748 85.407513 
L 170.606771 97.216796 
L 176.20305 111.915501 
L 178.441562 117.334743 
L 180.680074 122.33064 
L 182.918585 126.847674 
L 185.157097 130.864604 
L 187.395608 134.383328 
L 189.63412 137.416857 
L 191.872632 139.980756 
L 194.111143 142.090219 
L 196.349655 143.762493 
L 198.588166 145.022617 
L 200.826678 145.909661 
L 203.06519 146.480952 
L 205.303701 146.812557 
L 209.780724 147.127063 
L 213.138492 147.429071 
L 215.377003 147.803073 
L 217.615515 148.358814 
L 219.854026 149.09403 
L 223.211794 150.448246 
L 229.927329 153.252375 
L 233.285096 154.330674 
L 236.642863 155.130203 
L 241.119887 155.922162 
L 259.027979 158.726426 
L 263.505002 159.09854 
L 269.101281 159.321023 
L 273.578305 159.386139 
L 273.578305 159.386139 
" clip-path="url(#pe81baeb340)" style="fill: none; stroke-dasharray: 14.8,6.4; stroke-dashoffset: 0; stroke: #0000ff; stroke-opacity: 0.4; stroke-width: 4"/>
   </g>
   <g id="line2d_8">
    <path d="M 140.606291 159.38996 
L 140.828672 159.242647 
L 141.051053 158.726568 
L 141.569942 157.042899 
L 141.718196 157.296376 
L 142.014703 157.783473 
L 142.162957 157.416634 
L 142.533592 155.257884 
L 143.126608 150.188457 
L 143.348989 145.940251 
L 143.57137 135.454472 
L 143.942005 101.963256 
L 144.386766 44.149568 
L 144.603339 -1 
M 151.662668 -1 
L 152.021844 59.557719 
L 152.540733 99.874675 
L 153.059621 134.963895 
L 153.356129 141.963625 
L 154.023272 150.91667 
L 155.135177 159.204753 
L 155.357557 159.386381 
L 155.357557 159.386381 
" clip-path="url(#pe81baeb340)" style="fill: none; stroke-dasharray: 14.8,6.4; stroke-dashoffset: 0; stroke: #008000; stroke-opacity: 0.4; stroke-width: 4"/>
   </g>
   <g id="patch_3">
    <path d="M 33.72774 159.41601 
L 284.99976 159.41601 
" style="fill: none; stroke: #000000; stroke-width: 0.8; stroke-linejoin: miter; stroke-linecap: square"/>
   </g>
  </g>
  <g id="axes_2">
   <g id="patch_4">
    <path d="M 321.72774 159.41601 
L 572.99976 159.41601 
L 572.99976 3.00024 
L 321.72774 3.00024 
z
" style="fill: #ffffff"/>
   </g>
   <g id="matplotlib.axis_3">
    <g id="xtick_4">
     <g id="line2d_9">
      <g>
       <use xlink:href="#m6ce0b8bba9" x="416.484607" y="159.41601" style="stroke: #000000; stroke-width: 0.8"/>
      </g>
     </g>
     <g id="text_6">
      <!-- 0.8 -->
      <g transform="translate(400.581482 181.612885) scale(0.2 -0.2)">
       <use xlink:href="#DejaVuSans-30"/>
       <use xlink:href="#DejaVuSans-2e" transform="translate(63.623047 0)"/>
       <use xlink:href="#DejaVuSans-38" transform="translate(95.410156 0)"/>
      </g>
     </g>
    </g>
    <g id="xtick_5">
     <g id="line2d_10">
      <g>
       <use xlink:href="#m6ce0b8bba9" x="512.81349" y="159.41601" style="stroke: #000000; stroke-width: 0.8"/>
      </g>
     </g>
     <g id="text_7">
      <!-- 1.6 -->
      <g transform="translate(496.910365 181.612885) scale(0.2 -0.2)">
       <use xlink:href="#DejaVuSans-31"/>
       <use xlink:href="#DejaVuSans-2e" transform="translate(63.623047 0)"/>
       <use xlink:href="#DejaVuSans-36" transform="translate(95.410156 0)"/>
      </g>
     </g>
    </g>
    <g id="text_8">
     <!-- $\dot{w}$ : $v$ -->
     <g transform="translate(418.68375 208.00851) scale(0.24 -0.24)">
      <defs>
       <path id="DejaVuSans-Oblique-76" d="M 459 3500 
L 1069 3500 
L 1581 525 
L 3256 3500 
L 3866 3500 
L 1875 0 
L 1100 0 
L 459 3500 
z
" transform="scale(0.015625)"/>
      </defs>
      <use xlink:href="#DejaVuSans-307" transform="translate(76.040527 12.015625)"/>
      <use xlink:href="#DejaVuSans-Oblique-77" transform="translate(0 0.828125)"/>
      <use xlink:href="#DejaVuSans-20" transform="translate(81.787109 0.828125)"/>
      <use xlink:href="#DejaVuSans-3a" transform="translate(113.574219 0.828125)"/>
      <use xlink:href="#DejaVuSans-20" transform="translate(147.265625 0.828125)"/>
      <use xlink:href="#DejaVuSans-Oblique-76" transform="translate(179.052734 0.828125)"/>
     </g>
    </g>
   </g>
   <g id="matplotlib.axis_4">
    <g id="ytick_2">
     <g id="line2d_11"/>
    </g>
    <g id="text_9">
     <!--   -->
     <g transform="translate(309.23649 85.021875) rotate(-90) scale(0.24 -0.24)">
      <use xlink:href="#DejaVuSans-20"/>
     </g>
    </g>
   </g>
   <g id="line2d_12">
    <path d="M 357.715775 159.377895 
L 363.793427 159.210546 
L 367.845195 158.885293 
L 370.884021 158.42442 
L 373.922847 157.688951 
L 375.948731 157.006446 
L 377.974616 156.146455 
L 380.0005 155.094266 
L 382.026384 153.841358 
L 384.052268 152.385236 
L 386.078152 150.72786 
L 389.116978 147.871569 
L 392.155804 144.567012 
L 394.181688 142.095074 
L 396.207572 139.377241 
L 398.233456 136.37447 
L 400.25934 133.040957 
L 402.285224 129.331648 
L 404.311109 125.211639 
L 406.336993 120.665261 
L 408.362877 115.702242 
L 411.401703 107.561764 
L 414.440529 98.772443 
L 419.505239 83.28402 
L 430.647602 48.711204 
L 432.673486 43.117541 
L 434.69937 38.163824 
L 436.725254 34.086575 
L 437.738196 32.448415 
L 438.751138 31.111405 
L 439.76408 30.096942 
L 440.777022 29.422051 
L 441.789964 29.098737 
L 442.802906 29.13353 
L 443.815848 29.527252 
L 444.82879 30.275016 
L 445.841732 31.366452 
L 446.854674 32.78616 
L 447.867616 34.514348 
L 448.880558 36.527626 
L 450.906442 41.30336 
L 452.932326 46.889273 
L 455.971153 56.302942 
L 461.035863 73.226288 
L 465.087631 86.638987 
L 468.126457 96.003341 
L 470.152341 101.692245 
L 472.178225 106.815646 
L 474.204109 111.305644 
L 476.229993 115.146069 
L 478.255877 118.380829 
L 480.281761 121.109541 
L 482.307646 123.47034 
L 486.359414 127.674987 
L 491.424124 132.976249 
L 497.501776 139.495687 
L 500.540602 142.428444 
L 503.579428 144.994112 
L 506.618254 147.202378 
L 509.657081 149.107136 
L 512.695907 150.746622 
L 515.734733 152.122328 
L 518.773559 153.222724 
L 521.812385 154.063987 
L 525.864153 154.901754 
L 534.980632 156.6387 
L 543.084168 158.255689 
L 547.135936 158.810531 
L 551.187704 159.14481 
L 556.252414 159.336182 
L 559.291241 159.381945 
L 559.291241 159.381945 
" clip-path="url(#pa19209e91a)" style="fill: none; stroke: #ff0000; stroke-opacity: 0.8; stroke-linecap: square"/>
   </g>
   <g id="line2d_13">
    <path d="M 333.149195 159.41486 
L 342.627413 159.297518 
L 355.265036 158.942275 
L 361.583847 158.328883 
L 370.008929 157.246966 
L 372.1152 156.838448 
L 374.22147 156.21294 
L 376.327741 155.320073 
L 378.434011 154.158304 
L 380.540282 152.737335 
L 382.646552 151.080781 
L 385.805958 148.22592 
L 387.912229 146.02844 
L 390.018499 143.480538 
L 392.12477 140.518111 
L 394.23104 137.151887 
L 397.390446 131.503703 
L 400.549852 125.250397 
L 402.656122 120.42557 
L 404.762393 114.642819 
L 406.868663 107.773738 
L 412.13434 89.148376 
L 414.24061 83.022602 
L 416.346881 77.957677 
L 420.559422 68.762097 
L 422.665692 63.522077 
L 428.984504 46.561014 
L 431.090774 41.65944 
L 432.143909 39.504611 
L 433.197045 37.666284 
L 434.25018 36.259955 
L 435.303315 35.382932 
L 436.35645 35.076788 
L 437.409586 35.303668 
L 438.462721 35.947472 
L 442.675262 39.491354 
L 445.834668 41.444855 
L 446.887803 42.299831 
L 447.940938 43.400575 
L 448.994074 44.769138 
L 451.100344 48.184697 
L 453.206615 52.199799 
L 455.312885 56.775075 
L 457.419156 62.188939 
L 459.525426 68.439303 
L 462.684832 78.175038 
L 464.791102 84.065078 
L 466.897373 89.27918 
L 470.056779 96.209157 
L 474.26932 105.244805 
L 476.37559 110.435114 
L 478.481861 116.235558 
L 482.694402 128.127367 
L 484.800672 133.343814 
L 486.906943 137.827693 
L 489.013213 141.559182 
L 490.066349 143.129503 
L 491.119484 144.4953 
L 492.172619 145.660212 
L 493.225754 146.641283 
L 495.332025 148.185899 
L 503.757107 153.479386 
L 506.916513 155.382745 
L 509.022783 156.382223 
L 511.129054 157.166199 
L 514.288459 158.062364 
L 517.447865 158.679855 
L 520.607271 159.029302 
L 524.819812 159.226974 
L 542.723111 159.414923 
L 542.723111 159.414923 
" clip-path="url(#pa19209e91a)" style="fill: none; stroke: #808080; stroke-opacity: 0.4; stroke-linecap: square"/>
   </g>
   <g id="line2d_14">
    <path d="M 357.237125 159.376003 
L 363.398166 159.200406 
L 367.505526 158.851751 
L 370.586046 158.343545 
L 372.639727 157.828233 
L 374.693407 157.128416 
L 376.747087 156.204534 
L 378.800767 155.017198 
L 380.854447 153.529718 
L 382.908127 151.710862 
L 384.961808 149.537722 
L 387.015488 146.998572 
L 389.069168 144.095511 
L 391.122848 140.846566 
L 394.203369 135.405698 
L 397.283889 129.452875 
L 412.68649 98.39937 
L 415.767011 91.666316 
L 417.820691 86.716118 
L 419.874371 81.297526 
L 421.928051 75.385593 
L 425.008572 65.727498 
L 430.142772 49.095282 
L 432.196452 43.105869 
L 434.250132 38.003592 
L 435.276972 35.884946 
L 436.303813 34.100776 
L 437.330653 32.679477 
L 438.357493 31.643498 
L 439.384333 31.008765 
L 440.411173 30.784319 
L 441.438013 30.972198 
L 442.464853 31.567541 
L 443.491693 32.558923 
L 444.518533 33.92888 
L 445.545373 35.654607 
L 446.572214 37.708775 
L 448.625894 42.675967 
L 450.679574 48.55629 
L 453.760094 58.459606 
L 459.921135 78.973734 
L 463.001655 88.264467 
L 465.055335 93.825694 
L 467.109016 98.830493 
L 469.162696 103.289056 
L 471.216376 107.253169 
L 473.270056 110.804783 
L 476.350576 115.568477 
L 480.457937 121.306024 
L 484.565297 126.673821 
L 488.672658 131.710315 
L 492.780018 136.347092 
L 496.887378 140.573441 
L 499.967899 143.469861 
L 503.048419 146.084797 
L 506.128939 148.338419 
L 508.182619 149.600646 
L 510.2363 150.654702 
L 512.28998 151.502042 
L 514.34366 152.159302 
L 517.42418 152.857563 
L 521.531541 153.471149 
L 527.692581 154.357869 
L 531.799942 155.187653 
L 546.175703 158.4313 
L 550.283063 158.929691 
L 554.390424 159.207467 
L 560.551464 159.371411 
L 561.578305 159.382616 
L 561.578305 159.382616 
" clip-path="url(#pa19209e91a)" style="fill: none; stroke-dasharray: 14.8,6.4; stroke-dashoffset: 0; stroke: #0000ff; stroke-opacity: 0.4; stroke-width: 4"/>
   </g>
   <g id="line2d_15">
    <path d="M 455.391764 159.344782 
L 455.533587 158.948264 
L 455.67541 157.327562 
L 455.864508 150.502455 
L 456.148154 126.8159 
L 456.809994 48.599276 
L 456.986607 -1 
M 462.432761 -1 
L 462.766561 80.944264 
L 463.050207 110.695898 
L 463.333853 125.90353 
L 463.759322 156.065677 
L 463.85387 157.063565 
L 463.901145 157.037028 
L 464.137516 155.796285 
L 464.184791 155.83877 
L 464.326614 156.812592 
L 464.657534 159.183806 
L 464.799357 159.375879 
L 464.799357 159.375879 
" clip-path="url(#pa19209e91a)" style="fill: none; stroke-dasharray: 14.8,6.4; stroke-dashoffset: 0; stroke: #008000; stroke-opacity: 0.4; stroke-width: 4"/>
   </g>
   <g id="patch_5">
    <path d="M 321.72774 159.41601 
L 572.99976 159.41601 
" style="fill: none; stroke: #000000; stroke-width: 0.8; stroke-linejoin: miter; stroke-linecap: square"/>
   </g>
  </g>
  <g id="axes_3">
   <g id="patch_6">
    <path d="M 609.72774 159.41601 
L 860.99976 159.41601 
L 860.99976 3.00024 
L 609.72774 3.00024 
z
" style="fill: #ffffff"/>
   </g>
   <g id="matplotlib.axis_5">
    <g id="xtick_6">
     <g id="line2d_16">
      <g>
       <use xlink:href="#m6ce0b8bba9" x="673.385484" y="159.41601" style="stroke: #000000; stroke-width: 0.8"/>
      </g>
     </g>
     <g id="text_10">
      <!-- −0.8 -->
      <g transform="translate(649.102671 181.612885) scale(0.2 -0.2)">
       <defs>
        <path id="DejaVuSans-2212" d="M 678 2272 
L 4684 2272 
L 4684 1741 
L 678 1741 
L 678 2272 
z
" transform="scale(0.015625)"/>
       </defs>
       <use xlink:href="#DejaVuSans-2212"/>
       <use xlink:href="#DejaVuSans-30" transform="translate(83.789062 0)"/>
       <use xlink:href="#DejaVuSans-2e" transform="translate(147.412109 0)"/>
       <use xlink:href="#DejaVuSans-38" transform="translate(179.199219 0)"/>
      </g>
     </g>
    </g>
    <g id="xtick_7">
     <g id="line2d_17">
      <g>
       <use xlink:href="#m6ce0b8bba9" x="779.454985" y="159.41601" style="stroke: #000000; stroke-width: 0.8"/>
      </g>
     </g>
     <g id="text_11">
      <!-- 0.0 -->
      <g transform="translate(763.55186 181.612885) scale(0.2 -0.2)">
       <use xlink:href="#DejaVuSans-30"/>
       <use xlink:href="#DejaVuSans-2e" transform="translate(63.623047 0)"/>
       <use xlink:href="#DejaVuSans-30" transform="translate(95.410156 0)"/>
      </g>
     </g>
    </g>
    <g id="text_12">
     <!-- $\dot{w}$ : $w$ -->
     <g transform="translate(704.04375 208.00851) scale(0.24 -0.24)">
      <use xlink:href="#DejaVuSans-307" transform="translate(76.040527 12.015625)"/>
      <use xlink:href="#DejaVuSans-Oblique-77" transform="translate(0 0.828125)"/>
      <use xlink:href="#DejaVuSans-20" transform="translate(81.787109 0.828125)"/>
      <use xlink:href="#DejaVuSans-3a" transform="translate(113.574219 0.828125)"/>
      <use xlink:href="#DejaVuSans-20" transform="translate(147.265625 0.828125)"/>
      <use xlink:href="#DejaVuSans-Oblique-77" transform="translate(179.052734 0.828125)"/>
     </g>
    </g>
   </g>
   <g id="matplotlib.axis_6">
    <g id="ytick_3">
     <g id="line2d_18"/>
    </g>
    <g id="text_13">
     <!--   -->
     <g transform="translate(597.23649 85.021875) rotate(-90) scale(0.24 -0.24)">
      <use xlink:href="#DejaVuSans-20"/>
     </g>
    </g>
   </g>
   <g id="line2d_19">
    <path d="M 650.55597 159.380095 
L 654.35805 159.18475 
L 656.530668 158.878859 
L 658.703285 158.353191 
L 661.419057 157.41927 
L 664.677983 156.289113 
L 666.850601 155.79546 
L 670.652681 155.049217 
L 671.73899 154.599456 
L 672.825299 153.930325 
L 673.911607 153.003141 
L 674.997916 151.808415 
L 676.627379 149.573131 
L 678.799997 146.083418 
L 683.145231 139.051771 
L 685.317849 135.370614 
L 686.947312 132.044436 
L 688.033621 129.402913 
L 689.663084 124.676534 
L 691.292547 118.976544 
L 692.92201 112.312951 
L 694.551473 104.743135 
L 696.724091 93.453135 
L 703.241943 58.221236 
L 705.41456 48.492975 
L 707.044023 42.115356 
L 708.673487 36.610213 
L 709.759795 33.562606 
L 710.846104 31.173526 
L 711.389258 30.277275 
L 711.932413 29.607551 
L 712.475567 29.1836 
L 713.018721 29.022371 
L 713.561876 29.137757 
L 714.10503 29.540016 
L 714.648184 30.235406 
L 715.191339 31.226037 
L 715.734493 32.509935 
L 716.820802 35.9308 
L 717.907111 40.412733 
L 718.993419 45.830291 
L 720.622882 55.374183 
L 722.7955 69.825905 
L 726.59758 95.535227 
L 728.227044 105.153587 
L 729.856507 113.420585 
L 731.48597 120.346437 
L 733.115433 126.156524 
L 734.744896 131.151684 
L 736.917513 136.95867 
L 739.090131 142.046413 
L 741.262748 146.483214 
L 742.892211 149.382615 
L 744.521674 151.906979 
L 746.151138 154.041388 
L 747.780601 155.769603 
L 749.410064 157.090197 
L 751.039527 158.030891 
L 752.66899 158.649974 
L 754.298453 159.02419 
L 756.47107 159.27479 
L 758.643688 159.372161 
L 758.643688 159.372161 
" clip-path="url(#pea1345043e)" style="fill: none; stroke: #ff0000; stroke-opacity: 0.8; stroke-linecap: square"/>
   </g>
   <g id="line2d_20">
    <path d="M 658.168551 159.415088 
L 667.31776 159.287904 
L 669.605062 159.06962 
L 671.892365 158.599094 
L 673.607841 158.022668 
L 675.895144 157.046251 
L 677.038795 156.405806 
L 678.182446 155.517985 
L 679.326097 154.327977 
L 681.613399 151.417031 
L 683.328876 148.975456 
L 684.472527 146.944855 
L 685.616178 144.375541 
L 686.75983 141.263205 
L 688.475306 135.756528 
L 689.618957 131.360261 
L 690.762609 125.998989 
L 692.478085 116.284818 
L 693.621736 109.884539 
L 694.765388 104.517057 
L 697.624515 92.448337 
L 699.339992 82.982805 
L 702.770946 63.245543 
L 705.058248 50.959823 
L 706.201899 45.587636 
L 707.34555 41.171229 
L 708.489201 37.688283 
L 709.632853 34.991707 
L 710.204678 33.954252 
L 710.776504 33.167724 
L 711.348329 32.659199 
L 711.920155 32.423495 
L 712.49198 32.412325 
L 713.635632 32.74221 
L 714.779283 33.219083 
L 715.351108 33.604715 
L 715.922934 34.234725 
L 716.494759 35.213721 
L 717.066585 36.588262 
L 718.210236 40.31592 
L 720.497538 48.362124 
L 722.213015 53.993157 
L 723.356666 58.823389 
L 724.500317 65.057936 
L 726.78762 79.931911 
L 730.218573 101.823846 
L 731.93405 111.199567 
L 733.077701 116.366485 
L 735.936829 127.601955 
L 738.795957 138.616703 
L 739.939608 141.975892 
L 741.083259 144.365743 
L 745.086038 151.158693 
L 746.229689 153.123998 
L 747.37334 154.66614 
L 748.516992 155.708314 
L 749.660643 156.35183 
L 751.376119 156.95065 
L 757.094375 158.500637 
L 760.525329 159.121833 
L 762.240805 159.262545 
L 771.96184 159.414937 
L 771.96184 159.414937 
" clip-path="url(#pea1345043e)" style="fill: none; stroke: #808080; stroke-opacity: 0.4; stroke-linecap: square"/>
   </g>
   <g id="line2d_21">
    <path d="M 621.149195 159.395939 
L 629.18439 159.243621 
L 633.77593 158.974139 
L 638.36747 158.483627 
L 642.95901 157.758719 
L 648.698435 156.589064 
L 654.43786 155.162255 
L 659.029399 153.809813 
L 664.768824 151.873252 
L 668.212479 150.531329 
L 670.508249 149.477119 
L 672.804019 148.208545 
L 675.099789 146.640286 
L 677.395559 144.696128 
L 679.691329 142.325161 
L 681.987099 139.510335 
L 684.282869 136.266171 
L 686.578639 132.627398 
L 688.874409 128.634698 
L 692.318064 122.062397 
L 695.761719 114.901461 
L 706.092683 92.740278 
L 708.388453 88.616976 
L 710.684223 85.15469 
L 711.832108 83.720649 
L 712.979993 82.509081 
L 714.127878 81.537094 
L 715.275763 80.820701 
L 716.423648 80.374544 
L 717.571533 80.211442 
L 718.719418 80.341776 
L 719.867303 80.772725 
L 721.015188 81.507439 
L 722.163073 82.544209 
L 723.310958 83.875747 
L 724.458843 85.488672 
L 725.606728 87.363275 
L 727.902498 91.788136 
L 730.198268 96.880021 
L 737.085577 112.901394 
L 739.381347 117.557264 
L 741.677117 121.616845 
L 743.972887 125.086814 
L 746.268657 128.061901 
L 748.564427 130.690474 
L 761.191162 144.130432 
L 764.634817 147.60343 
L 766.930587 149.670208 
L 769.226357 151.491902 
L 771.522127 153.062316 
L 773.817897 154.396527 
L 776.113666 155.519243 
L 778.409436 156.455293 
L 781.853091 157.552596 
L 785.296746 158.327204 
L 788.740401 158.827919 
L 792.184056 159.109003 
L 796.775596 159.228615 
L 801.367136 159.119022 
L 805.958676 158.801194 
L 818.58541 157.652468 
L 822.029065 157.653731 
L 825.47272 157.860974 
L 833.507915 158.700101 
L 839.24734 159.144279 
L 844.986765 159.343006 
L 849.578305 159.396119 
L 849.578305 159.396119 
" clip-path="url(#pea1345043e)" style="fill: none; stroke-dasharray: 14.8,6.4; stroke-dashoffset: 0; stroke: #0000ff; stroke-opacity: 0.4; stroke-width: 4"/>
   </g>
   <g id="line2d_22">
    <path d="M 695.196406 159.396183 
L 695.588271 159.263427 
L 695.849515 158.979817 
L 696.24138 158.089883 
L 696.633246 157.100524 
L 696.894489 156.945669 
L 697.155733 157.347747 
L 697.67822 158.576741 
L 697.939464 158.672906 
L 698.200707 158.170047 
L 698.592573 156.347917 
L 699.506926 151.585384 
L 699.898791 149.100502 
L 700.290656 145.10321 
L 700.813144 136.861501 
L 701.205009 127.308424 
L 701.727496 107.999417 
L 702.511227 66.496131 
L 703.42558 8.726664 
L 703.5529 -1 
M 712.758093 -1 
L 713.352837 72.027868 
L 713.875324 112.06199 
L 714.26719 129.013173 
L 714.789677 141.378748 
L 715.312164 148.96876 
L 715.704029 152.368045 
L 716.48776 156.182068 
L 717.010247 158.382231 
L 717.271491 158.886467 
L 717.532735 158.984318 
L 717.9246 158.726641 
L 718.316466 158.542325 
L 719.36144 158.587015 
L 719.753305 158.582783 
L 720.275793 159.025407 
L 720.79828 159.348408 
L 721.190145 159.406663 
L 721.190145 159.406663 
" clip-path="url(#pea1345043e)" style="fill: none; stroke-dasharray: 14.8,6.4; stroke-dashoffset: 0; stroke: #008000; stroke-opacity: 0.4; stroke-width: 4"/>
   </g>
   <g id="patch_7">
    <path d="M 609.72774 159.41601 
L 860.99976 159.41601 
" style="fill: none; stroke: #000000; stroke-width: 0.8; stroke-linejoin: miter; stroke-linecap: square"/>
   </g>
  </g>
 </g>
 <defs>
  <clipPath id="pe81baeb340">
   <rect x="33.72774" y="3.00024" width="251.27202" height="156.41577"/>
  </clipPath>
  <clipPath id="pa19209e91a">
   <rect x="321.72774" y="3.00024" width="251.27202" height="156.41577"/>
  </clipPath>
  <clipPath id="pea1345043e">
   <rect x="609.72774" y="3.00024" width="251.27202" height="156.41577"/>
  </clipPath>
 </defs>
</svg>
