<?xml version="1.0" encoding="utf-8" standalone="no"?>
<!DOCTYPE svg PUBLIC "-//W3C//DTD SVG 1.1//EN"
  "http://www.w3.org/Graphics/SVG/1.1/DTD/svg11.dtd">
<svg xmlns:xlink="http://www.w3.org/1999/xlink" width="864pt" height="216pt" viewBox="0 0 864 216" xmlns="http://www.w3.org/2000/svg" version="1.1">
 <metadata>
  <rdf:RDF xmlns:dc="http://purl.org/dc/elements/1.1/" xmlns:cc="http://creativecommons.org/ns#" xmlns:rdf="http://www.w3.org/1999/02/22-rdf-syntax-ns#">
   <cc:Work>
    <dc:type rdf:resource="http://purl.org/dc/dcmitype/StillImage"/>
    <dc:date>2025-10-21T10:00:17.785002</dc:date>
    <dc:format>image/svg+xml</dc:format>
    <dc:creator>
     <cc:Agent>
      <dc:title>Matplotlib v3.10.5, https://matplotlib.org/</dc:title>
     </cc:Agent>
    </dc:creator>
   </cc:Work>
  </rdf:RDF>
 </metadata>
 <defs>
  <style type="text/css">*{stroke-linejoin: round; stroke-linecap: butt}</style>
 </defs>
 <g id="figure_1">
  <g id="patch_1">
   <path d="M 0 216 
L 864 216 
L 864 0 
L 0 0 
z
" style="fill: #ffffff"/>
  </g>
  <g id="axes_1">
   <g id="patch_2">
    <path d="M 32.759927 159.461322 
L 421.878862 159.461322 
L 421.878862 3.00024 
L 32.759927 3.00024 
z
" style="fill: #ffffff"/>
   </g>
   <g id="matplotlib.axis_1">
    <g id="xtick_1">
     <g id="line2d_1">
      <defs>
       <path id="m714ee003cb" d="M 0 0 
L 0 3.5 
" style="stroke: #000000; stroke-width: 0.8"/>
      </defs>
      <g>
       <use xlink:href="#m714ee003cb" x="114.935817" y="159.461322" style="stroke: #000000; stroke-width: 0.8"/>
      </g>
     </g>
     <g id="text_1">
      <text style="font-size: 19px; font-family: 'DejaVu Sans', 'Bitstream Vera Sans', 'Computer Modern Sans Serif', 'Lucida Grande', 'Verdana', 'Geneva', 'Lucid', 'Arial', 'Helvetica', 'Avant Garde', sans-serif; text-anchor: middle" x="114.935817" y="180.898354" transform="rotate(-0 114.935817 180.898354)">0.24</text>
     </g>
    </g>
    <g id="xtick_2">
     <g id="line2d_2">
      <g>
       <use xlink:href="#m714ee003cb" x="263.619631" y="159.461322" style="stroke: #000000; stroke-width: 0.8"/>
      </g>
     </g>
     <g id="text_2">
      <text style="font-size: 19px; font-family: 'DejaVu Sans', 'Bitstream Vera Sans', 'Computer Modern Sans Serif', 'Lucida Grande', 'Verdana', 'Geneva', 'Lucid', 'Arial', 'Helvetica', 'Avant Garde', sans-serif; text-anchor: middle" x="263.619631" y="180.898354" transform="rotate(-0 263.619631 180.898354)">0.32</text>
     </g>
    </g>
    <g id="xtick_3">
     <g id="line2d_3">
      <g>
       <use xlink:href="#m714ee003cb" x="412.303445" y="159.461322" style="stroke: #000000; stroke-width: 0.8"/>
      </g>
     </g>
     <g id="text_3">
      <text style="font-size: 19px; font-family: 'DejaVu Sans', 'Bitstream Vera Sans', 'Computer Modern Sans Serif', 'Lucida Grande', 'Verdana', 'Geneva', 'Lucid', 'Arial', 'Helvetica', 'Avant Garde', sans-serif; text-anchor: middle" x="412.303445" y="180.898354" transform="rotate(-0 412.303445 180.898354)">0.40</text>
     </g>
    </g>
    <g id="text_4">
     <!-- $Q_A [t] : R-Q_A [t-1]$ -->
     <g transform="translate(118.644395 206.326166)">
      <text>
       <tspan x="0" y="-0.53125" style="font-style: oblique; font-size: 23px; font-family: 'DejaVu Sans'">Q</tspan>
       <tspan x="38.719287" y="-0.53125" style="font-style: oblique; font-size: 23px; font-family: 'DejaVu Sans'">t</tspan>
       <tspan x="73.421436" y="-0.53125" style="font-style: oblique; font-size: 23px; font-family: 'DejaVu Sans'">R</tspan>
       <tspan x="117.635791" y="-0.53125" style="font-style: oblique; font-size: 23px; font-family: 'DejaVu Sans'">Q</tspan>
       <tspan x="156.355078" y="-0.53125" style="font-style: oblique; font-size: 23px; font-family: 'DejaVu Sans'">t</tspan>
       <tspan x="18.103516" y="3.242188" style="font-style: oblique; font-size: 16.1px; font-family: 'DejaVu Sans'">A</tspan>
       <tspan x="135.739307" y="3.242188" style="font-style: oblique; font-size: 16.1px; font-family: 'DejaVu Sans'">A</tspan>
       <tspan x="29.746143" y="-0.53125" style="font-size: 23px; font-family: 'DejaVu Sans'">[</tspan>
       <tspan x="47.737354" y="-0.53125" style="font-size: 23px; font-family: 'DejaVu Sans'">]</tspan>
       <tspan x="61.191455" y="-0.53125" style="font-size: 23px; font-family: 'DejaVu Sans'">:</tspan>
       <tspan x="93.88335" y="-0.53125" style="font-size: 23px; font-family: 'DejaVu Sans'">−</tspan>
       <tspan x="147.381934" y="-0.53125" style="font-size: 23px; font-family: 'DejaVu Sans'">[</tspan>
       <tspan x="169.854102" y="-0.53125" style="font-size: 23px; font-family: 'DejaVu Sans'">−</tspan>
       <tspan x="193.606543" y="-0.53125" style="font-size: 23px; font-family: 'DejaVu Sans'">1</tspan>
       <tspan x="208.239844" y="-0.53125" style="font-size: 23px; font-family: 'DejaVu Sans'">]</tspan>
      </text>
     </g>
    </g>
   </g>
   <g id="matplotlib.axis_2">
    <g id="ytick_1">
     <g id="line2d_4"/>
    </g>
    <g id="text_5">
     <text style="font-size: 23px; font-family: 'DejaVu Sans', 'Bitstream Vera Sans', 'Computer Modern Sans Serif', 'Lucida Grande', 'Verdana', 'Geneva', 'Lucid', 'Arial', 'Helvetica', 'Avant Garde', sans-serif; text-anchor: middle" x="20.476646" y="81.230781" transform="rotate(-90 20.476646 81.230781)"> </text>
    </g>
   </g>
   <g id="line2d_5">
    <path d="M 82.544704 159.423613 
L 92.219798 159.242996 
L 97.748423 158.958382 
L 103.277049 158.430622 
L 107.423517 157.819218 
L 111.569986 156.990898 
L 115.716455 155.931641 
L 119.862924 154.636366 
L 124.009393 153.093964 
L 128.155862 151.266751 
L 130.920174 149.852725 
L 133.684487 148.242935 
L 136.4488 146.39748 
L 139.213112 144.276711 
L 141.977425 141.848805 
L 144.741737 139.098084 
L 147.50605 136.03241 
L 150.270362 132.687837 
L 154.416831 127.296257 
L 162.709769 116.368796 
L 165.474082 113.049767 
L 168.238394 110.016306 
L 171.002707 107.301232 
L 173.767019 104.906433 
L 176.531332 102.805069 
L 179.295645 100.945367 
L 183.442113 98.445398 
L 188.970739 95.151945 
L 191.735051 93.283466 
L 194.499364 91.131028 
L 197.263676 88.614206 
L 200.027989 85.683577 
L 202.792302 82.328303 
L 205.556614 78.577221 
L 208.320927 74.492273 
L 212.467396 67.920247 
L 227.671115 43.055516 
L 230.435427 38.999378 
L 233.19974 35.372461 
L 234.581896 33.780138 
L 235.964053 32.371213 
L 237.346209 31.173822 
L 238.728365 30.215917 
L 240.110521 29.524252 
L 241.492678 29.123345 
L 242.874834 29.034484 
L 244.25699 29.274838 
L 245.639147 29.856706 
L 247.021303 30.786972 
L 248.403459 32.066757 
L 249.785615 33.691324 
L 251.167772 35.6502 
L 252.549928 37.927525 
L 253.932084 40.502592 
L 256.696397 46.443235 
L 259.460709 53.238875 
L 262.225022 60.632057 
L 276.046585 98.753428 
L 278.810898 105.555633 
L 281.57521 111.892222 
L 284.339523 117.723901 
L 287.103835 123.022061 
L 289.868148 127.768136 
L 292.63246 131.955859 
L 295.396773 135.594753 
L 298.161086 138.712936 
L 300.925398 141.357641 
L 303.689711 143.592583 
L 306.454023 145.492221 
L 309.218336 147.133877 
L 313.364805 149.26605 
L 318.89343 151.753146 
L 324.422055 153.979267 
L 328.568524 155.450003 
L 332.714993 156.691207 
L 336.861462 157.666038 
L 341.007931 158.373551 
L 345.1544 158.846708 
L 350.683025 159.204526 
L 357.593806 159.389456 
L 357.593806 159.389456 
" clip-path="url(#p664ec39bd5)" style="fill: none; stroke: #ff0000; stroke-opacity: 0.8; stroke-linecap: square"/>
   </g>
   <g id="line2d_6">
    <path d="M 50.447152 159.460409 
L 80.66653 159.351997 
L 96.665024 158.993216 
L 101.997856 158.914053 
L 105.553077 158.703277 
L 110.885908 158.118365 
L 117.99635 157.007409 
L 125.106792 155.669787 
L 128.662013 154.812325 
L 130.439623 154.252593 
L 132.217234 153.571696 
L 135.772455 151.847471 
L 139.327676 149.797058 
L 144.660507 146.481977 
L 149.993339 142.937764 
L 153.54856 140.334747 
L 157.103781 137.329825 
L 158.881391 135.587 
L 160.659002 133.614974 
L 162.436612 131.351006 
L 164.214222 128.740493 
L 165.991833 125.760896 
L 167.769443 122.441427 
L 171.324664 115.146225 
L 176.657496 104.056825 
L 192.65599 71.867552 
L 199.766432 56.510353 
L 201.544043 53.039889 
L 203.321653 49.91438 
L 205.099264 47.180872 
L 206.876874 44.842652 
L 208.654484 42.867108 
L 210.432095 41.199851 
L 212.209705 39.780422 
L 213.987316 38.554639 
L 217.542537 36.514546 
L 224.652979 32.993789 
L 226.430589 32.202727 
L 228.2082 31.645231 
L 229.98581 31.492945 
L 231.763421 31.87357 
L 233.541031 32.815436 
L 235.318642 34.2368 
L 237.096252 35.987793 
L 240.651473 39.95223 
L 244.206694 44.322517 
L 247.761915 49.304282 
L 251.317136 54.738972 
L 254.872357 60.48736 
L 256.649967 63.633012 
L 258.427578 67.086499 
L 260.205188 70.893811 
L 263.760409 79.356184 
L 267.31563 88.0302 
L 270.870851 95.995948 
L 274.426072 103.209538 
L 277.981293 109.901091 
L 281.536514 115.9563 
L 285.091735 121.305151 
L 288.646956 126.199401 
L 292.202177 130.806087 
L 295.757398 135.017048 
L 299.312619 138.729558 
L 302.86784 142.044339 
L 308.200671 146.622984 
L 311.755892 149.346138 
L 313.533503 150.535431 
L 315.311113 151.587271 
L 317.088724 152.500471 
L 320.643945 153.96065 
L 324.199166 155.074061 
L 329.531997 156.460057 
L 334.864829 157.663207 
L 338.42005 158.239688 
L 341.97527 158.569086 
L 347.308102 158.757477 
L 359.751375 159.127883 
L 370.417038 159.416682 
L 381.082701 159.405935 
L 393.525974 159.421311 
L 404.191637 159.460409 
L 404.191637 159.460409 
" clip-path="url(#p664ec39bd5)" style="fill: none; stroke: #808080; stroke-opacity: 0.4; stroke-linecap: square"/>
   </g>
   <g id="line2d_7">
    <path d="M 82.546114 159.423621 
L 92.221557 159.243055 
L 97.750381 158.958525 
L 103.279206 158.430904 
L 107.425824 157.81961 
L 111.572443 156.991321 
L 115.719061 155.931862 
L 119.865679 154.635922 
L 124.012298 153.09212 
L 128.158916 151.262546 
L 130.923328 149.846373 
L 133.687741 148.23403 
L 136.452153 146.385733 
L 139.216565 144.262024 
L 141.980977 141.831324 
L 144.74539 139.078235 
L 147.509802 136.0109 
L 150.274214 132.665613 
L 154.420833 127.275074 
L 161.331863 118.102902 
L 165.478482 113.042416 
L 168.242894 110.013594 
L 171.007306 107.302932 
L 173.771718 104.911979 
L 176.53613 102.813613 
L 179.300543 100.955851 
L 183.447161 98.456556 
L 188.975986 95.159826 
L 191.740398 93.288164 
L 194.50481 91.131785 
L 197.269222 88.610529 
L 200.033635 85.675265 
L 202.798047 82.315448 
L 205.562459 78.560184 
L 208.326871 74.471643 
L 212.47349 67.89571 
L 227.677757 43.036914 
L 230.442169 38.98568 
L 233.206582 35.364684 
L 234.588788 33.77562 
L 235.970994 32.370094 
L 237.3532 31.176188 
L 238.735406 30.221797 
L 240.117612 29.533613 
L 241.499818 29.136092 
L 242.882024 29.050464 
L 244.264231 29.293838 
L 245.646437 29.878468 
L 247.028643 30.811193 
L 248.410849 32.093107 
L 249.793055 33.719452 
L 251.175261 35.679749 
L 252.557467 37.958141 
L 253.939673 40.533937 
L 256.704086 46.475133 
L 259.468498 53.270363 
L 262.23291 60.662503 
L 276.054971 98.777371 
L 278.819384 105.578402 
L 281.583796 111.913688 
L 284.348208 117.743849 
L 287.11262 123.040234 
L 289.877033 127.784295 
L 292.641445 131.969841 
L 295.405857 135.606512 
L 298.170269 138.722568 
L 300.934682 141.365379 
L 303.699094 143.598768 
L 306.463506 145.497259 
L 309.227918 147.138179 
L 313.374537 149.269899 
L 318.903361 151.757076 
L 324.432186 153.983275 
L 328.578804 155.453759 
L 332.725422 156.694425 
L 336.872041 157.668548 
L 341.018659 158.375335 
L 345.165278 158.847866 
L 350.694102 159.205093 
L 357.605133 159.389644 
L 357.605133 159.389644 
" clip-path="url(#p664ec39bd5)" style="fill: none; stroke-dasharray: 14.8,6.4; stroke-dashoffset: 0; stroke: #0000ff; stroke-opacity: 0.4; stroke-width: 4"/>
   </g>
   <g id="line2d_8">
    <path d="M 225.88137 159.103958 
L 225.950592 155.739081 
L 226.054426 130.347748 
L 226.227483 109.148862 
L 226.40054 88.525256 
L 226.53201 -1 
M 228.729838 -1 
L 228.909863 153.199727 
L 228.979086 141.290789 
L 229.08292 118.121356 
L 229.134837 126.93657 
L 229.325199 159.139689 
L 229.325199 159.139689 
" clip-path="url(#p664ec39bd5)" style="fill: none; stroke-dasharray: 14.8,6.4; stroke-dashoffset: 0; stroke: #008000; stroke-opacity: 0.4; stroke-width: 4"/>
   </g>
   <g id="patch_3">
    <path d="M 32.759928 159.461322 
L 421.878862 159.461322 
" style="fill: none; stroke: #000000; stroke-width: 0.8; stroke-linejoin: miter; stroke-linecap: square"/>
   </g>
  </g>
  <g id="axes_2">
   <g id="patch_4">
    <path d="M 471.880826 159.461322 
L 860.99976 159.461322 
L 860.99976 3.00024 
L 471.880826 3.00024 
z
" style="fill: #ffffff"/>
   </g>
   <g id="matplotlib.axis_3">
    <g id="xtick_4">
     <g id="line2d_9">
      <g>
       <use xlink:href="#m714ee003cb" x="519.882129" y="159.461322" style="stroke: #000000; stroke-width: 0.8"/>
      </g>
     </g>
     <g id="text_6">
      <text style="font-size: 19px; font-family: 'DejaVu Sans', 'Bitstream Vera Sans', 'Computer Modern Sans Serif', 'Lucida Grande', 'Verdana', 'Geneva', 'Lucid', 'Arial', 'Helvetica', 'Avant Garde', sans-serif; text-anchor: middle" x="519.882129" y="180.898354" transform="rotate(-0 519.882129 180.898354)">0.36</text>
     </g>
    </g>
    <g id="xtick_5">
     <g id="line2d_10">
      <g>
       <use xlink:href="#m714ee003cb" x="673.322949" y="159.461322" style="stroke: #000000; stroke-width: 0.8"/>
      </g>
     </g>
     <g id="text_7">
      <text style="font-size: 19px; font-family: 'DejaVu Sans', 'Bitstream Vera Sans', 'Computer Modern Sans Serif', 'Lucida Grande', 'Verdana', 'Geneva', 'Lucid', 'Arial', 'Helvetica', 'Avant Garde', sans-serif; text-anchor: middle" x="673.322949" y="180.898354" transform="rotate(-0 673.322949 180.898354)">0.40</text>
     </g>
    </g>
    <g id="xtick_6">
     <g id="line2d_11">
      <g>
       <use xlink:href="#m714ee003cb" x="826.763768" y="159.461322" style="stroke: #000000; stroke-width: 0.8"/>
      </g>
     </g>
     <g id="text_8">
      <text style="font-size: 19px; font-family: 'DejaVu Sans', 'Bitstream Vera Sans', 'Computer Modern Sans Serif', 'Lucida Grande', 'Verdana', 'Geneva', 'Lucid', 'Arial', 'Helvetica', 'Avant Garde', sans-serif; text-anchor: middle" x="826.763768" y="180.898354" transform="rotate(-0 826.763768 180.898354)">0.44</text>
     </g>
    </g>
    <g id="text_9">
     <!-- $Q_A [t] : Q_{A_0}-Q_A [t-1]$ -->
     <g transform="translate(547.070293 206.32976)">
      <text>
       <tspan x="0" y="-0.53125" style="font-style: oblique; font-size: 23px; font-family: 'DejaVu Sans'">Q</tspan>
       <tspan x="38.719287" y="-0.53125" style="font-style: oblique; font-size: 23px; font-family: 'DejaVu Sans'">t</tspan>
       <tspan x="73.421436" y="-0.53125" style="font-style: oblique; font-size: 23px; font-family: 'DejaVu Sans'">Q</tspan>
       <tspan x="139.011528" y="-0.53125" style="font-style: oblique; font-size: 23px; font-family: 'DejaVu Sans'">Q</tspan>
       <tspan x="177.730815" y="-0.53125" style="font-style: oblique; font-size: 23px; font-family: 'DejaVu Sans'">t</tspan>
       <tspan x="18.103516" y="3.242188" style="font-style: oblique; font-size: 16.1px; font-family: 'DejaVu Sans'">A</tspan>
       <tspan x="91.524951" y="3.242188" style="font-style: oblique; font-size: 16.1px; font-family: 'DejaVu Sans'">A</tspan>
       <tspan x="157.115044" y="3.242188" style="font-style: oblique; font-size: 16.1px; font-family: 'DejaVu Sans'">A</tspan>
       <tspan x="29.746143" y="-0.53125" style="font-size: 23px; font-family: 'DejaVu Sans'">[</tspan>
       <tspan x="47.737354" y="-0.53125" style="font-size: 23px; font-family: 'DejaVu Sans'">]</tspan>
       <tspan x="61.191455" y="-0.53125" style="font-size: 23px; font-family: 'DejaVu Sans'">:</tspan>
       <tspan x="115.259087" y="-0.53125" style="font-size: 23px; font-family: 'DejaVu Sans'">−</tspan>
       <tspan x="168.757671" y="-0.53125" style="font-size: 23px; font-family: 'DejaVu Sans'">[</tspan>
       <tspan x="191.229839" y="-0.53125" style="font-size: 23px; font-family: 'DejaVu Sans'">−</tspan>
       <tspan x="214.98228" y="-0.53125" style="font-size: 23px; font-family: 'DejaVu Sans'">1</tspan>
       <tspan x="229.615581" y="-0.53125" style="font-size: 23px; font-family: 'DejaVu Sans'">]</tspan>
       <tspan x="102.538672" y="5.883594" style="font-size: 11.27px; font-family: 'DejaVu Sans'">0</tspan>
      </text>
     </g>
    </g>
   </g>
   <g id="matplotlib.axis_4">
    <g id="ytick_2">
     <g id="line2d_12"/>
    </g>
    <g id="text_10">
     <text style="font-size: 23px; font-family: 'DejaVu Sans', 'Bitstream Vera Sans', 'Computer Modern Sans Serif', 'Lucida Grande', 'Verdana', 'Geneva', 'Lucid', 'Arial', 'Helvetica', 'Avant Garde', sans-serif; text-anchor: middle" x="459.597545" y="81.230781" transform="rotate(-90 459.597545 81.230781)"> </text>
    </g>
   </g>
   <g id="line2d_13">
    <path d="M 535.67137 159.411341 
L 543.976279 159.231429 
L 549.512885 158.912084 
L 553.66534 158.481472 
L 557.817794 157.817127 
L 561.970249 156.858513 
L 564.738552 156.032034 
L 567.506855 155.04461 
L 570.275158 153.891224 
L 573.043461 152.569418 
L 575.811764 151.076886 
L 578.580067 149.408381 
L 581.34837 147.552514 
L 584.116673 145.489166 
L 586.884976 143.188165 
L 589.65328 140.609675 
L 592.421583 137.706473 
L 595.189886 134.42799 
L 597.958189 130.725835 
L 600.726492 126.560389 
L 603.494795 121.908071 
L 606.263098 116.768772 
L 609.031401 111.172798 
L 613.183856 102.077943 
L 624.257068 76.988755 
L 627.025371 71.47823 
L 629.793674 66.591511 
L 632.561977 62.411091 
L 635.33028 58.949662 
L 638.098583 56.147283 
L 640.866886 53.880547 
L 643.63519 51.982688 
L 653.32425 45.794411 
L 656.092553 43.693853 
L 660.245008 40.213951 
L 667.165766 34.29888 
L 669.934069 32.268785 
L 672.702372 30.640766 
L 674.086523 30.019913 
L 675.470675 29.549271 
L 676.854826 29.243943 
L 678.238978 29.118041 
L 679.623129 29.184462 
L 681.007281 29.454612 
L 682.391433 29.938092 
L 683.775584 30.642342 
L 685.159736 31.572277 
L 686.543887 32.72992 
L 687.928039 34.114079 
L 689.31219 35.720083 
L 690.696342 37.539611 
L 693.464645 41.767533 
L 696.232948 46.659783 
L 699.001251 52.03137 
L 708.690312 71.566542 
L 711.458615 76.63717 
L 714.226918 81.319051 
L 716.995221 85.631771 
L 721.147676 91.584216 
L 730.836736 105.005247 
L 736.373342 113.23192 
L 743.2941 123.610864 
L 747.446555 129.352807 
L 750.214858 132.827572 
L 752.983161 135.984841 
L 755.751464 138.82899 
L 758.519767 141.387257 
L 761.28807 143.699034 
L 765.440525 146.791431 
L 769.592979 149.519016 
L 773.745434 151.91936 
L 777.897889 153.979543 
L 780.666192 155.149284 
L 783.434495 156.149259 
L 786.202798 156.98049 
L 790.355252 157.930551 
L 794.507707 158.573119 
L 798.660162 158.977604 
L 804.196768 159.26683 
L 811.117526 159.408532 
L 811.117526 159.408532 
" clip-path="url(#p91c36ed243)" style="fill: none; stroke: #ff0000; stroke-opacity: 0.8; stroke-linecap: square"/>
   </g>
   <g id="line2d_14">
    <path d="M 489.56805 159.460297 
L 521.565039 159.347022 
L 541.118754 159.01059 
L 546.451586 158.636277 
L 551.784417 158.06091 
L 560.672469 156.853758 
L 566.005301 155.87323 
L 571.338132 154.560949 
L 574.893353 153.505983 
L 578.448574 152.220776 
L 580.226185 151.434388 
L 582.003795 150.514283 
L 583.781406 149.440563 
L 585.559016 148.211395 
L 589.114237 145.383139 
L 594.447069 140.695529 
L 598.002289 137.286744 
L 601.55751 133.462953 
L 605.112731 129.279044 
L 608.667952 124.824313 
L 610.445563 122.432748 
L 612.223173 119.85258 
L 614.000784 117.015582 
L 615.778394 113.864103 
L 617.556005 110.364598 
L 619.333615 106.51962 
L 622.888836 98.022206 
L 628.221668 84.815183 
L 631.776889 76.587712 
L 635.33211 68.931607 
L 638.887331 61.865276 
L 644.220162 51.772051 
L 647.775383 44.375146 
L 654.885825 28.710764 
L 656.663435 25.367875 
L 658.441046 22.414582 
L 660.218656 19.829142 
L 661.996267 17.566702 
L 663.773877 15.598847 
L 665.551488 13.934616 
L 667.329098 12.612453 
L 669.106709 11.672902 
L 670.884319 11.134916 
L 672.66193 10.994137 
L 674.43954 11.242726 
L 676.217151 11.891947 
L 677.994761 12.975626 
L 679.772372 14.527159 
L 681.549982 16.543542 
L 683.327593 18.960392 
L 686.882813 24.474715 
L 690.438034 29.961801 
L 693.993255 34.82701 
L 699.326087 41.5603 
L 701.103697 44.096451 
L 702.881308 47.005504 
L 704.658918 50.381415 
L 706.436529 54.25116 
L 708.214139 58.569604 
L 711.76936 68.14481 
L 720.657413 93.329167 
L 722.435023 97.980875 
L 724.212634 102.303999 
L 725.990244 106.250524 
L 727.767855 109.817889 
L 729.545465 113.035972 
L 731.323075 115.942898 
L 733.100686 118.56647 
L 734.878296 120.922027 
L 736.655907 123.025159 
L 740.211128 126.630443 
L 745.543959 131.62012 
L 749.09918 135.296072 
L 752.654401 139.057403 
L 756.209622 142.486658 
L 759.764843 145.521812 
L 765.097675 149.674488 
L 766.875285 150.908134 
L 768.652896 152.000079 
L 770.430506 152.918183 
L 772.208117 153.65477 
L 773.985727 154.229327 
L 777.540948 155.055258 
L 788.206611 156.966216 
L 795.317053 158.100636 
L 798.872274 158.472135 
L 804.205105 158.737736 
L 830.869262 159.391226 
L 843.312536 159.460282 
L 843.312536 159.460282 
" clip-path="url(#p91c36ed243)" style="fill: none; stroke: #808080; stroke-opacity: 0.4; stroke-linecap: square"/>
   </g>
   <g id="line2d_15">
    <path d="M 535.657448 159.411567 
L 543.962926 159.23249 
L 549.499912 158.914545 
L 553.652651 158.485621 
L 557.80539 157.82344 
L 561.95813 156.867036 
L 564.726622 156.041619 
L 567.495115 155.054465 
L 570.263608 153.900064 
L 573.032101 152.57543 
L 575.800594 151.07777 
L 578.569086 149.401472 
L 581.337579 147.535005 
L 584.106072 145.4584 
L 586.874565 143.141963 
L 589.643057 140.546663 
L 592.41155 137.626333 
L 595.180043 134.331618 
L 597.948536 130.615353 
L 600.717029 126.439036 
L 603.485521 121.779982 
L 606.254014 116.638702 
L 609.022507 111.045843 
L 613.175246 101.965366 
L 624.249217 76.965484 
L 627.01771 71.485582 
L 629.786203 66.630452 
L 632.554696 62.480681 
L 635.323188 59.046694 
L 638.091681 56.266115 
L 640.860174 54.013245 
L 643.628667 52.11953 
L 651.934145 46.854715 
L 654.702638 44.824824 
L 658.855377 41.409111 
L 667.160855 34.223833 
L 669.929348 32.186328 
L 672.697841 30.561344 
L 674.082087 29.945627 
L 675.466334 29.482234 
L 676.85058 29.185975 
L 678.234827 29.070627 
L 679.619073 29.148721 
L 681.003319 29.431283 
L 682.387566 29.92753 
L 683.771812 30.64453 
L 685.156059 31.586844 
L 686.540305 32.756172 
L 687.924551 34.151041 
L 689.308798 35.766542 
L 690.693044 37.59417 
L 693.461537 41.833641 
L 696.23003 46.731035 
L 698.998523 52.101863 
L 708.688247 71.609063 
L 711.45674 76.671698 
L 714.225233 81.347991 
L 716.993726 85.65787 
L 721.146465 91.610337 
L 730.83619 105.034214 
L 736.373175 113.255059 
L 743.294407 123.622794 
L 747.447146 129.360817 
L 750.215639 132.835288 
L 752.984132 135.994137 
L 755.752625 138.841348 
L 758.521117 141.403519 
L 761.28961 143.719305 
L 765.442349 146.816443 
L 769.595089 149.545945 
L 773.747828 151.945044 
L 777.900567 154.00152 
L 780.66906 155.168019 
L 783.437553 156.164573 
L 786.206045 156.99251 
L 790.358785 157.93832 
L 794.511524 158.577732 
L 798.664263 158.980125 
L 804.201248 159.267824 
L 811.12248 159.408786 
L 811.12248 159.408786 
" clip-path="url(#p91c36ed243)" style="fill: none; stroke-dasharray: 14.8,6.4; stroke-dashoffset: 0; stroke: #0000ff; stroke-opacity: 0.4; stroke-width: 4"/>
   </g>
   <g id="line2d_16">
    <path d="M 651.851431 159.428048 
L 652.219332 159.299536 
L 652.587234 158.895957 
L 652.955135 158.023424 
L 653.690937 155.271744 
L 654.304106 152.589549 
L 654.672007 150.142999 
L 655.039909 146.276588 
L 655.40781 140.003364 
L 655.898345 127.03017 
L 656.511514 103.79819 
L 657.002049 76.530773 
L 657.615217 27.408043 
L 657.909852 -1 
M 672.049878 -1 
L 672.699168 45.563115 
L 674.170773 130.96491 
L 674.661308 146.433467 
L 675.151843 155.011826 
L 675.519745 157.955553 
L 675.887646 159.077509 
L 676.255547 159.389282 
L 676.255547 159.389282 
" clip-path="url(#p91c36ed243)" style="fill: none; stroke-dasharray: 14.8,6.4; stroke-dashoffset: 0; stroke: #008000; stroke-opacity: 0.4; stroke-width: 4"/>
   </g>
   <g id="patch_5">
    <path d="M 471.880826 159.461322 
L 860.99976 159.461322 
" style="fill: none; stroke: #000000; stroke-width: 0.8; stroke-linejoin: miter; stroke-linecap: square"/>
   </g>
  </g>
 </g>
 <defs>
  <clipPath id="p664ec39bd5">
   <rect x="32.759927" y="3.00024" width="389.118934" height="156.461083"/>
  </clipPath>
  <clipPath id="p91c36ed243">
   <rect x="471.880826" y="3.00024" width="389.118934" height="156.461083"/>
  </clipPath>
 </defs>
</svg>
