<?xml version="1.0" encoding="utf-8" standalone="no"?>
<!DOCTYPE svg PUBLIC "-//W3C//DTD SVG 1.1//EN"
  "http://www.w3.org/Graphics/SVG/1.1/DTD/svg11.dtd">
<svg xmlns:xlink="http://www.w3.org/1999/xlink" width="864pt" height="288pt" viewBox="0 0 864 288" xmlns="http://www.w3.org/2000/svg" version="1.1">
 <metadata>
  <rdf:RDF xmlns:dc="http://purl.org/dc/elements/1.1/" xmlns:cc="http://creativecommons.org/ns#" xmlns:rdf="http://www.w3.org/1999/02/22-rdf-syntax-ns#">
   <cc:Work>
    <dc:type rdf:resource="http://purl.org/dc/dcmitype/StillImage"/>
    <dc:date>2025-10-20T11:45:51.533515</dc:date>
    <dc:format>image/svg+xml</dc:format>
    <dc:creator>
     <cc:Agent>
      <dc:title>Matplotlib v3.10.5, https://matplotlib.org/</dc:title>
     </cc:Agent>
    </dc:creator>
   </cc:Work>
  </rdf:RDF>
 </metadata>
 <defs>
  <style type="text/css">*{stroke-linejoin: round; stroke-linecap: butt}</style>
 </defs>
 <g id="figure_1">
  <g id="patch_1">
   <path d="M 0 288 
L 864 288 
L 864 0 
L 0 0 
z
" style="fill: #ffffff"/>
  </g>
  <g id="axes_1">
   <g id="patch_2">
    <path d="M 33.72774 228.48351 
L 212.99976 228.48351 
L 212.99976 3.00024 
L 33.72774 3.00024 
z
" style="fill: #ffffff"/>
   </g>
   <g id="matplotlib.axis_1">
    <g id="xtick_1">
     <g id="line2d_1">
      <defs>
       <path id="mf93ca12cd9" d="M 0 0 
L 0 3.5 
" style="stroke: #000000; stroke-width: 0.8"/>
      </defs>
      <g>
       <use xlink:href="#mf93ca12cd9" x="84.712585" y="228.48351" style="stroke: #000000; stroke-width: 0.8"/>
      </g>
     </g>
     <g id="text_1">
      <!-- 0.8 -->
      <g transform="translate(68.80946 250.680385) scale(0.2 -0.2)">
       <defs>
        <path id="DejaVuSans-30" d="M 2034 4250 
Q 1547 4250 1301 3770 
Q 1056 3291 1056 2328 
Q 1056 1369 1301 889 
Q 1547 409 2034 409 
Q 2525 409 2770 889 
Q 3016 1369 3016 2328 
Q 3016 3291 2770 3770 
Q 2525 4250 2034 4250 
z
M 2034 4750 
Q 2819 4750 3233 4129 
Q 3647 3509 3647 2328 
Q 3647 1150 3233 529 
Q 2819 -91 2034 -91 
Q 1250 -91 836 529 
Q 422 1150 422 2328 
Q 422 3509 836 4129 
Q 1250 4750 2034 4750 
z
" transform="scale(0.015625)"/>
        <path id="DejaVuSans-2e" d="M 684 794 
L 1344 794 
L 1344 0 
L 684 0 
L 684 794 
z
" transform="scale(0.015625)"/>
        <path id="DejaVuSans-38" d="M 2034 2216 
Q 1584 2216 1326 1975 
Q 1069 1734 1069 1313 
Q 1069 891 1326 650 
Q 1584 409 2034 409 
Q 2484 409 2743 651 
Q 3003 894 3003 1313 
Q 3003 1734 2745 1975 
Q 2488 2216 2034 2216 
z
M 1403 2484 
Q 997 2584 770 2862 
Q 544 3141 544 3541 
Q 544 4100 942 4425 
Q 1341 4750 2034 4750 
Q 2731 4750 3128 4425 
Q 3525 4100 3525 3541 
Q 3525 3141 3298 2862 
Q 3072 2584 2669 2484 
Q 3125 2378 3379 2068 
Q 3634 1759 3634 1313 
Q 3634 634 3220 271 
Q 2806 -91 2034 -91 
Q 1263 -91 848 271 
Q 434 634 434 1313 
Q 434 1759 690 2068 
Q 947 2378 1403 2484 
z
M 1172 3481 
Q 1172 3119 1398 2916 
Q 1625 2713 2034 2713 
Q 2441 2713 2670 2916 
Q 2900 3119 2900 3481 
Q 2900 3844 2670 4047 
Q 2441 4250 2034 4250 
Q 1625 4250 1398 4047 
Q 1172 3844 1172 3481 
z
" transform="scale(0.015625)"/>
       </defs>
       <use xlink:href="#DejaVuSans-30"/>
       <use xlink:href="#DejaVuSans-2e" transform="translate(63.623047 0)"/>
       <use xlink:href="#DejaVuSans-38" transform="translate(95.410156 0)"/>
      </g>
     </g>
    </g>
    <g id="xtick_2">
     <g id="line2d_2">
      <g>
       <use xlink:href="#mf93ca12cd9" x="161.603247" y="228.48351" style="stroke: #000000; stroke-width: 0.8"/>
      </g>
     </g>
     <g id="text_2">
      <!-- 1.2 -->
      <g transform="translate(145.700122 250.680385) scale(0.2 -0.2)">
       <defs>
        <path id="DejaVuSans-31" d="M 794 531 
L 1825 531 
L 1825 4091 
L 703 3866 
L 703 4441 
L 1819 4666 
L 2450 4666 
L 2450 531 
L 3481 531 
L 3481 0 
L 794 0 
L 794 531 
z
" transform="scale(0.015625)"/>
        <path id="DejaVuSans-32" d="M 1228 531 
L 3431 531 
L 3431 0 
L 469 0 
L 469 531 
Q 828 903 1448 1529 
Q 2069 2156 2228 2338 
Q 2531 2678 2651 2914 
Q 2772 3150 2772 3378 
Q 2772 3750 2511 3984 
Q 2250 4219 1831 4219 
Q 1534 4219 1204 4116 
Q 875 4013 500 3803 
L 500 4441 
Q 881 4594 1212 4672 
Q 1544 4750 1819 4750 
Q 2544 4750 2975 4387 
Q 3406 4025 3406 3419 
Q 3406 3131 3298 2873 
Q 3191 2616 2906 2266 
Q 2828 2175 2409 1742 
Q 1991 1309 1228 531 
z
" transform="scale(0.015625)"/>
       </defs>
       <use xlink:href="#DejaVuSans-31"/>
       <use xlink:href="#DejaVuSans-2e" transform="translate(63.623047 0)"/>
       <use xlink:href="#DejaVuSans-32" transform="translate(95.410156 0)"/>
      </g>
     </g>
    </g>
    <g id="text_3">
     <!-- $\dot{x}$ : $x$ -->
     <g transform="translate(97.44375 277.07601) scale(0.24 -0.24)">
      <defs>
       <path id="DejaVuSans-307" d="M -1894 4863 
L -1319 4863 
L -1319 4134 
L -1894 4134 
L -1894 4863 
z
M -1600 3584 
L -1600 3584 
z
" transform="scale(0.015625)"/>
       <path id="DejaVuSans-Oblique-78" d="M 3841 3500 
L 2234 1784 
L 3219 0 
L 2559 0 
L 1819 1388 
L 531 0 
L -166 0 
L 1556 1844 
L 641 3500 
L 1300 3500 
L 1972 2234 
L 3144 3500 
L 3841 3500 
z
" transform="scale(0.015625)"/>
       <path id="DejaVuSans-20" transform="scale(0.015625)"/>
       <path id="DejaVuSans-3a" d="M 750 794 
L 1409 794 
L 1409 0 
L 750 0 
L 750 794 
z
M 750 3309 
L 1409 3309 
L 1409 2516 
L 750 2516 
L 750 3309 
z
" transform="scale(0.015625)"/>
      </defs>
      <use xlink:href="#DejaVuSans-307" transform="translate(62.388672 12.015625)"/>
      <use xlink:href="#DejaVuSans-Oblique-78" transform="translate(0 0.828125)"/>
      <use xlink:href="#DejaVuSans-20" transform="translate(59.179688 0.828125)"/>
      <use xlink:href="#DejaVuSans-3a" transform="translate(90.966797 0.828125)"/>
      <use xlink:href="#DejaVuSans-20" transform="translate(124.658203 0.828125)"/>
      <use xlink:href="#DejaVuSans-Oblique-78" transform="translate(156.445312 0.828125)"/>
     </g>
    </g>
   </g>
   <g id="matplotlib.axis_2">
    <g id="ytick_1">
     <g id="line2d_3"/>
    </g>
    <g id="text_4">
     <!--   -->
     <g transform="translate(21.23649 119.555625) rotate(-90) scale(0.24 -0.24)">
      <use xlink:href="#DejaVuSans-20"/>
     </g>
    </g>
   </g>
   <g id="line2d_4">
    <path d="M 43.574209 228.431424 
L 48.235497 228.21803 
L 51.343023 227.826422 
L 53.673667 227.297663 
L 56.004311 226.491334 
L 58.334955 225.349268 
L 59.888718 224.380515 
L 62.219362 222.595422 
L 64.550006 220.391295 
L 66.88065 217.742276 
L 69.211295 214.624565 
L 71.541939 211.038154 
L 73.872583 207.030272 
L 76.980109 201.18972 
L 80.087634 194.932575 
L 82.418278 189.886563 
L 84.748922 184.261431 
L 86.302685 179.991369 
L 87.856448 175.141962 
L 89.410211 169.572148 
L 90.963974 163.154854 
L 92.517736 155.789547 
L 94.071499 147.414265 
L 95.625262 138.018202 
L 97.955906 122.150496 
L 101.063432 98.635673 
L 104.170957 74.924424 
L 105.72472 64.203819 
L 107.278483 54.971542 
L 108.832245 47.737306 
L 109.609127 45.000171 
L 110.386008 42.899792 
L 111.16289 41.458459 
L 111.939771 40.684731 
L 112.716652 40.57276 
L 113.493534 41.102153 
L 114.270415 42.238435 
L 115.047297 43.934101 
L 115.824178 46.130215 
L 117.377941 51.743913 
L 118.931704 58.468198 
L 123.592992 79.432186 
L 125.146755 85.339692 
L 126.700517 90.488783 
L 129.031162 97.128586 
L 132.915569 107.728368 
L 134.469331 112.656221 
L 136.023094 118.243344 
L 137.576857 124.502475 
L 139.907501 134.890438 
L 145.345671 159.803947 
L 147.676315 169.083968 
L 150.006959 177.138075 
L 152.337603 184.160178 
L 154.668247 190.481535 
L 157.775773 198.249282 
L 160.106417 203.636661 
L 162.437061 208.496136 
L 163.990824 211.344194 
L 165.544587 213.826059 
L 167.09835 215.92528 
L 168.652112 217.656583 
L 170.205875 219.063342 
L 171.759638 220.209287 
L 174.090282 221.596733 
L 177.974689 223.519404 
L 182.635977 225.620365 
L 185.743503 226.774279 
L 188.074147 227.423575 
L 190.404791 227.878046 
L 193.512317 228.231856 
L 197.396724 228.415752 
L 198.173605 228.432874 
L 198.173605 228.432874 
" clip-path="url(#pedbcc3f201)" style="fill: none; stroke: #ff0000; stroke-opacity: 0.8; stroke-linecap: square"/>
   </g>
   <g id="line2d_5">
    <path d="M 42.548114 228.482198 
L 49.888447 228.361935 
L 53.96641 228.128937 
L 56.413187 227.769523 
L 64.569113 226.000798 
L 67.015891 225.15872 
L 70.278261 223.965695 
L 72.725039 223.158188 
L 73.540631 222.71862 
L 74.356224 222.092075 
L 75.171816 221.22492 
L 75.987409 220.080853 
L 76.803001 218.646112 
L 78.434186 214.971862 
L 80.880964 208.260581 
L 82.512149 203.849434 
L 84.958927 198.067402 
L 86.590112 194.249224 
L 88.221297 189.760906 
L 89.852482 184.437822 
L 93.114852 172.618793 
L 94.746037 165.768031 
L 96.377222 157.248065 
L 98.824 141.975855 
L 106.979926 90.356196 
L 108.611111 81.807356 
L 109.426703 78.390645 
L 111.057888 72.939547 
L 113.504666 65.615557 
L 115.951444 57.041896 
L 117.582629 51.33926 
L 119.213814 46.496931 
L 120.029406 44.605043 
L 120.844999 43.178119 
L 121.660592 42.283285 
L 122.476184 41.950337 
L 123.291777 42.158083 
L 124.107369 42.834589 
L 124.922962 43.872252 
L 126.554147 46.579979 
L 128.185332 49.705828 
L 129.816517 53.446284 
L 130.63211 55.762748 
L 131.447702 58.495801 
L 132.263295 61.711187 
L 133.078887 65.453469 
L 134.710072 74.600907 
L 136.341258 85.808513 
L 139.603628 110.162123 
L 141.234813 120.360789 
L 142.865998 128.630256 
L 148.575146 154.897088 
L 151.021923 166.240904 
L 152.653109 173.128873 
L 154.284294 179.274023 
L 155.915479 184.650393 
L 159.177849 194.175741 
L 164.886997 210.453149 
L 166.518182 213.982241 
L 167.333774 215.393109 
L 168.96496 217.569791 
L 170.596145 219.14503 
L 176.305293 223.726748 
L 177.936478 224.8892 
L 179.567663 225.777217 
L 181.198848 226.415691 
L 184.461218 227.352063 
L 186.907996 227.825633 
L 189.354773 228.084407 
L 193.432736 228.243521 
L 204.851032 228.482185 
L 204.851032 228.482185 
" clip-path="url(#pedbcc3f201)" style="fill: none; stroke: #808080; stroke-opacity: 0.4; stroke-linecap: square"/>
   </g>
   <g id="line2d_6">
    <path d="M 41.876468 228.43385 
L 46.627151 228.236897 
L 49.794273 227.887457 
L 52.169615 227.431965 
L 54.544956 226.765211 
L 56.920298 225.867061 
L 59.295639 224.737192 
L 61.670981 223.375079 
L 64.046323 221.744326 
L 65.629884 220.460354 
L 67.213445 218.96592 
L 68.797006 217.207177 
L 70.380567 215.133737 
L 71.964128 212.710566 
L 73.547689 209.928006 
L 75.92303 205.132061 
L 78.298372 199.74677 
L 81.465494 191.975649 
L 84.632616 183.620246 
L 87.007957 176.701088 
L 88.591518 171.58487 
L 90.175079 165.941597 
L 91.75864 159.688607 
L 93.342202 152.776509 
L 95.717543 141.149499 
L 98.092885 128.088398 
L 100.468226 113.797207 
L 107.594251 69.102456 
L 109.177812 60.865523 
L 110.761373 54.209597 
L 111.553153 51.609793 
L 112.344934 49.554415 
L 113.136714 48.075783 
L 113.928495 47.1946 
L 114.720275 46.918714 
L 115.512056 47.242425 
L 116.303836 48.146369 
L 117.095617 49.598015 
L 117.887397 51.552745 
L 118.679178 53.955486 
L 120.262739 59.845234 
L 122.638081 70.316638 
L 125.805203 84.534802 
L 127.388764 90.909986 
L 128.972325 96.600353 
L 130.555886 101.666476 
L 132.931227 108.516173 
L 136.098349 117.569113 
L 138.473691 125.187098 
L 140.849032 133.782516 
L 144.016154 146.311195 
L 147.975057 161.948798 
L 150.350398 170.51882 
L 152.72574 178.269434 
L 155.101082 185.285562 
L 158.268204 193.791497 
L 161.435326 201.51716 
L 163.810667 206.70352 
L 165.394228 209.782004 
L 166.977789 212.506475 
L 168.56135 214.856407 
L 170.144911 216.839367 
L 171.728472 218.490293 
L 173.312033 219.864391 
L 175.687375 221.546921 
L 178.062716 222.946844 
L 181.229838 224.572194 
L 184.396961 225.962672 
L 186.772302 226.806026 
L 189.147644 227.448052 
L 191.522985 227.893312 
L 194.690107 228.238241 
L 198.64901 228.417272 
L 199.44079 228.433963 
L 199.44079 228.433963 
" clip-path="url(#pedbcc3f201)" style="fill: none; stroke-dasharray: 14.8,6.4; stroke-dashoffset: 0; stroke: #0000ff; stroke-opacity: 0.4; stroke-width: 4"/>
   </g>
   <g id="line2d_7">
    <path d="M 63.416097 228.301259 
L 63.534593 227.682689 
L 63.692587 224.836872 
L 64.087573 212.120903 
L 64.127071 212.598096 
L 64.324564 220.004224 
L 64.561555 225.36235 
L 64.640552 224.193763 
L 64.798547 216.466185 
L 64.996039 191.552407 
L 65.154034 141.594389 
L 65.362743 -1 
M 69.723057 -1 
L 70.17035 186.564062 
L 70.367843 212.217358 
L 70.44684 213.166811 
L 70.486338 212.802647 
L 70.604834 211.691156 
L 70.644333 211.932457 
L 70.762828 215.162651 
L 71.157814 227.682683 
L 71.276309 228.301258 
L 71.276309 228.301258 
" clip-path="url(#pedbcc3f201)" style="fill: none; stroke-dasharray: 14.8,6.4; stroke-dashoffset: 0; stroke: #008000; stroke-opacity: 0.4; stroke-width: 4"/>
   </g>
   <g id="patch_3">
    <path d="M 33.72774 228.48351 
L 212.99976 228.48351 
" style="fill: none; stroke: #000000; stroke-width: 0.8; stroke-linejoin: miter; stroke-linecap: square"/>
   </g>
  </g>
  <g id="axes_2">
   <g id="patch_4">
    <path d="M 249.72774 228.48351 
L 428.99976 228.48351 
L 428.99976 3.00024 
L 249.72774 3.00024 
z
" style="fill: #ffffff"/>
   </g>
   <g id="matplotlib.axis_3">
    <g id="xtick_3">
     <g id="line2d_8">
      <g>
       <use xlink:href="#mf93ca12cd9" x="283.303002" y="228.48351" style="stroke: #000000; stroke-width: 0.8"/>
      </g>
     </g>
     <g id="text_5">
      <!-- −0.16 -->
      <g transform="translate(252.65769 250.680385) scale(0.2 -0.2)">
       <defs>
        <path id="DejaVuSans-2212" d="M 678 2272 
L 4684 2272 
L 4684 1741 
L 678 1741 
L 678 2272 
z
" transform="scale(0.015625)"/>
        <path id="DejaVuSans-36" d="M 2113 2584 
Q 1688 2584 1439 2293 
Q 1191 2003 1191 1497 
Q 1191 994 1439 701 
Q 1688 409 2113 409 
Q 2538 409 2786 701 
Q 3034 994 3034 1497 
Q 3034 2003 2786 2293 
Q 2538 2584 2113 2584 
z
M 3366 4563 
L 3366 3988 
Q 3128 4100 2886 4159 
Q 2644 4219 2406 4219 
Q 1781 4219 1451 3797 
Q 1122 3375 1075 2522 
Q 1259 2794 1537 2939 
Q 1816 3084 2150 3084 
Q 2853 3084 3261 2657 
Q 3669 2231 3669 1497 
Q 3669 778 3244 343 
Q 2819 -91 2113 -91 
Q 1303 -91 875 529 
Q 447 1150 447 2328 
Q 447 3434 972 4092 
Q 1497 4750 2381 4750 
Q 2619 4750 2861 4703 
Q 3103 4656 3366 4563 
z
" transform="scale(0.015625)"/>
       </defs>
       <use xlink:href="#DejaVuSans-2212"/>
       <use xlink:href="#DejaVuSans-30" transform="translate(83.789062 0)"/>
       <use xlink:href="#DejaVuSans-2e" transform="translate(147.412109 0)"/>
       <use xlink:href="#DejaVuSans-31" transform="translate(179.199219 0)"/>
       <use xlink:href="#DejaVuSans-36" transform="translate(242.822266 0)"/>
      </g>
     </g>
    </g>
    <g id="xtick_4">
     <g id="line2d_9">
      <g>
       <use xlink:href="#mf93ca12cd9" x="361.438318" y="228.48351" style="stroke: #000000; stroke-width: 0.8"/>
      </g>
     </g>
     <g id="text_6">
      <!-- −0.08 -->
      <g transform="translate(330.793005 250.680385) scale(0.2 -0.2)">
       <use xlink:href="#DejaVuSans-2212"/>
       <use xlink:href="#DejaVuSans-30" transform="translate(83.789062 0)"/>
       <use xlink:href="#DejaVuSans-2e" transform="translate(147.412109 0)"/>
       <use xlink:href="#DejaVuSans-30" transform="translate(179.199219 0)"/>
       <use xlink:href="#DejaVuSans-38" transform="translate(242.822266 0)"/>
      </g>
     </g>
    </g>
    <g id="text_7">
     <!-- $\dot{x}$ : $x\cdot y$ -->
     <g transform="translate(297.84375 279.95976) scale(0.24 -0.24)">
      <defs>
       <path id="DejaVuSans-22c5" d="M 684 2619 
L 1344 2619 
L 1344 1825 
L 684 1825 
L 684 2619 
z
" transform="scale(0.015625)"/>
       <path id="DejaVuSans-Oblique-79" d="M 1588 -325 
Q 1188 -997 936 -1164 
Q 684 -1331 294 -1331 
L -159 -1331 
L -63 -850 
L 269 -850 
Q 509 -850 678 -719 
Q 847 -588 1056 -206 
L 1234 128 
L 459 3500 
L 1069 3500 
L 1650 819 
L 3256 3500 
L 3859 3500 
L 1588 -325 
z
" transform="scale(0.015625)"/>
      </defs>
      <use xlink:href="#DejaVuSans-307" transform="translate(62.388672 12.015625)"/>
      <use xlink:href="#DejaVuSans-Oblique-78" transform="translate(0 0.828125)"/>
      <use xlink:href="#DejaVuSans-20" transform="translate(59.179688 0.828125)"/>
      <use xlink:href="#DejaVuSans-3a" transform="translate(90.966797 0.828125)"/>
      <use xlink:href="#DejaVuSans-20" transform="translate(124.658203 0.828125)"/>
      <use xlink:href="#DejaVuSans-Oblique-78" transform="translate(156.445312 0.828125)"/>
      <use xlink:href="#DejaVuSans-22c5" transform="translate(235.107422 0.828125)"/>
      <use xlink:href="#DejaVuSans-Oblique-79" transform="translate(286.376953 0.828125)"/>
     </g>
    </g>
   </g>
   <g id="matplotlib.axis_4">
    <g id="ytick_2">
     <g id="line2d_10"/>
    </g>
    <g id="text_8">
     <!--   -->
     <g transform="translate(237.23649 119.555625) rotate(-90) scale(0.24 -0.24)">
      <use xlink:href="#DejaVuSans-20"/>
     </g>
    </g>
   </g>
   <g id="line2d_11">
    <path d="M 257.876468 228.402462 
L 261.779973 228.170044 
L 264.122076 227.846013 
L 266.464179 227.280968 
L 268.02558 226.721716 
L 269.586982 225.984783 
L 271.148384 225.050885 
L 272.709786 223.91303 
L 275.051889 221.849304 
L 278.174693 218.622394 
L 282.858898 213.70475 
L 285.201001 211.592931 
L 287.543104 209.776434 
L 293.008011 205.815346 
L 294.569413 204.423664 
L 296.130815 202.783884 
L 297.692216 200.844539 
L 299.253618 198.570594 
L 300.81502 195.939706 
L 302.376422 192.93527 
L 303.937824 189.538329 
L 305.499226 185.720848 
L 307.060628 181.442516 
L 308.62203 176.652284 
L 310.183432 171.294433 
L 311.744833 165.317764 
L 313.306235 158.68574 
L 315.648338 147.488988 
L 317.990441 134.884403 
L 321.113245 116.370845 
L 327.358852 78.241039 
L 329.700955 65.753733 
L 331.262357 58.571451 
L 332.823759 52.502235 
L 334.385161 47.659731 
L 335.165862 45.718309 
L 335.946563 44.100259 
L 336.727264 42.804196 
L 337.507965 41.826021 
L 338.288666 41.159451 
L 339.069367 40.796605 
L 339.850067 40.728607 
L 340.630768 40.946177 
L 341.411469 41.440166 
L 342.19217 42.201989 
L 342.972871 43.223939 
L 343.753572 44.499355 
L 345.314974 47.789084 
L 346.876376 52.035567 
L 348.437778 57.206538 
L 349.99918 63.258092 
L 351.560582 70.120014 
L 353.902685 81.690299 
L 357.025488 98.680935 
L 362.490395 128.816621 
L 365.613199 144.564386 
L 367.955302 155.391672 
L 370.297404 165.370378 
L 372.639507 174.486628 
L 374.98161 182.680612 
L 377.323713 189.880256 
L 378.885115 194.115384 
L 380.446517 197.919438 
L 382.78862 202.914847 
L 385.130722 207.241078 
L 387.472825 211.101489 
L 390.595629 215.733777 
L 392.937732 218.833518 
L 395.279835 221.534903 
L 396.841237 223.073106 
L 398.402638 224.382826 
L 399.96404 225.46205 
L 401.525442 226.32147 
L 403.086844 226.98231 
L 405.428947 227.663775 
L 407.77105 228.066553 
L 410.893854 228.332253 
L 413.235956 228.418624 
L 413.235956 228.418624 
" clip-path="url(#pa5e4af12fe)" style="fill: none; stroke: #ff0000; stroke-opacity: 0.8; stroke-linecap: square"/>
   </g>
   <g id="line2d_12">
    <path d="M 262.980292 228.482113 
L 270.120175 228.366719 
L 274.086777 228.133094 
L 276.466737 227.79009 
L 278.846698 227.234173 
L 282.01998 226.256604 
L 285.193261 225.081562 
L 287.573222 223.95868 
L 289.159862 223.021737 
L 290.746503 221.870884 
L 292.333143 220.485017 
L 293.919784 218.882012 
L 295.506425 217.004273 
L 297.093065 214.653822 
L 298.679706 211.62333 
L 300.266346 207.874706 
L 301.852987 203.539575 
L 304.232948 196.231119 
L 306.612909 188.0995 
L 308.199549 182.133607 
L 309.78619 175.44442 
L 311.372831 167.815752 
L 314.546112 150.691599 
L 317.719393 133.910042 
L 320.892674 117.489997 
L 323.272635 103.877108 
L 326.445916 85.628892 
L 329.619197 69.447226 
L 332.792479 53.99222 
L 334.379119 47.19871 
L 335.96576 41.402315 
L 337.5524 36.546854 
L 338.345721 34.507097 
L 339.139041 32.808776 
L 339.932361 31.535758 
L 340.725682 30.754575 
L 341.519002 30.488099 
L 342.312322 30.707412 
L 343.105643 31.345953 
L 343.898963 32.328138 
L 344.692283 33.597769 
L 345.485603 35.133209 
L 346.278924 36.944433 
L 347.072244 39.056155 
L 348.658885 44.229556 
L 350.245525 50.487533 
L 353.418806 64.38376 
L 355.798767 75.539238 
L 357.385408 83.856711 
L 359.765369 98.011373 
L 364.525291 127.871535 
L 366.905252 141.331846 
L 369.285212 153.615034 
L 371.665173 164.621349 
L 374.838454 178.148823 
L 377.218415 187.314171 
L 378.805056 192.737624 
L 380.391697 197.606152 
L 382.771657 204.017162 
L 385.151618 209.593868 
L 386.738259 212.798687 
L 388.3249 215.475095 
L 389.91154 217.684026 
L 392.291501 220.560311 
L 394.671462 223.176438 
L 396.258103 224.655028 
L 397.844743 225.800638 
L 399.431384 226.570607 
L 401.018024 227.008078 
L 403.397985 227.324783 
L 410.537868 227.996873 
L 418.471071 228.466449 
L 420.851032 228.481503 
L 420.851032 228.481503 
" clip-path="url(#pa5e4af12fe)" style="fill: none; stroke: #808080; stroke-opacity: 0.4; stroke-linecap: square"/>
   </g>
   <g id="line2d_13">
    <path d="M 258.409632 228.390906 
L 262.3005 228.131129 
L 264.635021 227.773282 
L 266.969541 227.155016 
L 268.525889 226.547533 
L 270.082236 225.751759 
L 271.638583 224.749225 
L 273.19493 223.535042 
L 275.529451 221.350282 
L 278.642145 217.975956 
L 282.533013 213.724373 
L 284.867534 211.507585 
L 287.202055 209.633923 
L 291.092923 206.956193 
L 293.427444 205.218365 
L 294.983791 203.832384 
L 296.540138 202.182441 
L 298.096485 200.217436 
L 299.652832 197.903604 
L 301.20918 195.219988 
L 302.765527 192.151084 
L 304.321874 188.678961 
L 305.878221 184.777297 
L 307.434568 180.409185 
L 308.990915 175.529425 
L 310.547263 170.09073 
L 312.10361 164.05221 
L 314.438131 153.819373 
L 316.772651 142.196843 
L 319.107172 129.3407 
L 322.219867 110.838248 
L 327.667082 78.232808 
L 330.001603 65.923711 
L 331.55795 58.789417 
L 333.114297 52.710531 
L 334.670644 47.808888 
L 335.448818 45.823854 
L 336.226991 44.155899 
L 337.005165 42.806173 
L 337.783338 41.773174 
L 338.561512 41.053158 
L 339.339686 40.640613 
L 340.117859 40.528778 
L 340.896033 40.710154 
L 341.674206 41.176989 
L 342.45238 41.921681 
L 343.230554 42.93709 
L 344.008727 44.216723 
L 344.786901 45.754781 
L 346.343248 49.58577 
L 347.899595 54.390992 
L 349.455942 60.125225 
L 351.01229 66.723087 
L 353.34681 78.016477 
L 355.681331 90.546659 
L 363.463067 133.611179 
L 365.797588 145.22878 
L 368.132109 155.968406 
L 370.466629 165.848682 
L 372.80115 174.868125 
L 375.135671 182.972131 
L 377.470192 190.089477 
L 379.026539 194.274062 
L 380.582886 198.031476 
L 382.917407 202.966 
L 385.251928 207.245011 
L 387.586448 211.0739 
L 390.699143 215.687557 
L 393.033664 218.786804 
L 395.368184 221.494401 
L 396.924532 223.038445 
L 398.480879 224.354287 
L 400.037226 225.439309 
L 401.593573 226.303859 
L 403.14992 226.969014 
L 405.484441 227.655431 
L 407.818962 228.061583 
L 410.931656 228.329971 
L 413.266177 228.417441 
L 413.266177 228.417441 
" clip-path="url(#pa5e4af12fe)" style="fill: none; stroke-dasharray: 14.8,6.4; stroke-dashoffset: 0; stroke: #0000ff; stroke-opacity: 0.4; stroke-width: 4"/>
   </g>
   <g id="line2d_14">
    <path d="M 352.750765 225.029062 
L 352.775146 144.780335 
L 352.785994 -1 
M 353.320702 -1 
L 353.35725 224.79426 
L 353.35725 224.79426 
" clip-path="url(#pa5e4af12fe)" style="fill: none; stroke-dasharray: 14.8,6.4; stroke-dashoffset: 0; stroke: #008000; stroke-opacity: 0.4; stroke-width: 4"/>
   </g>
   <g id="patch_5">
    <path d="M 249.72774 228.48351 
L 428.99976 228.48351 
" style="fill: none; stroke: #000000; stroke-width: 0.8; stroke-linejoin: miter; stroke-linecap: square"/>
   </g>
  </g>
  <g id="axes_3">
   <g id="patch_6">
    <path d="M 465.72774 228.48351 
L 644.99976 228.48351 
L 644.99976 3.00024 
L 465.72774 3.00024 
z
" style="fill: #ffffff"/>
   </g>
   <g id="matplotlib.axis_5">
    <g id="xtick_5">
     <g id="line2d_15">
      <g>
       <use xlink:href="#mf93ca12cd9" x="524.175374" y="228.48351" style="stroke: #000000; stroke-width: 0.8"/>
      </g>
     </g>
     <g id="text_9">
      <!-- −2 -->
      <g transform="translate(509.433186 250.680385) scale(0.2 -0.2)">
       <use xlink:href="#DejaVuSans-2212"/>
       <use xlink:href="#DejaVuSans-32" transform="translate(83.789062 0)"/>
      </g>
     </g>
    </g>
    <g id="xtick_6">
     <g id="line2d_16">
      <g>
       <use xlink:href="#mf93ca12cd9" x="586.660913" y="228.48351" style="stroke: #000000; stroke-width: 0.8"/>
      </g>
     </g>
     <g id="text_10">
      <!-- −1 -->
      <g transform="translate(571.918726 250.680385) scale(0.2 -0.2)">
       <use xlink:href="#DejaVuSans-2212"/>
       <use xlink:href="#DejaVuSans-31" transform="translate(83.789062 0)"/>
      </g>
     </g>
    </g>
    <g id="text_11">
     <!-- $\dot{y}$ : $y$ -->
     <g transform="translate(529.44375 279.95976) scale(0.24 -0.24)">
      <use xlink:href="#DejaVuSans-307" transform="translate(62.388672 12.015625)"/>
      <use xlink:href="#DejaVuSans-Oblique-79" transform="translate(0 0.828125)"/>
      <use xlink:href="#DejaVuSans-20" transform="translate(59.179688 0.828125)"/>
      <use xlink:href="#DejaVuSans-3a" transform="translate(90.966797 0.828125)"/>
      <use xlink:href="#DejaVuSans-20" transform="translate(124.658203 0.828125)"/>
      <use xlink:href="#DejaVuSans-Oblique-79" transform="translate(156.445312 0.828125)"/>
     </g>
    </g>
   </g>
   <g id="matplotlib.axis_6">
    <g id="ytick_3">
     <g id="line2d_17"/>
    </g>
    <g id="text_12">
     <!--   -->
     <g transform="translate(453.23649 119.555625) rotate(-90) scale(0.24 -0.24)">
      <use xlink:href="#DejaVuSans-20"/>
     </g>
    </g>
   </g>
   <g id="line2d_18">
    <path d="M 488.071161 228.418856 
L 491.63929 228.198389 
L 494.018042 227.831955 
L 495.802107 227.371008 
L 497.586171 226.715761 
L 499.964924 225.545998 
L 507.695869 221.309889 
L 511.263998 219.746306 
L 512.453374 219.045076 
L 513.64275 218.121901 
L 514.832126 216.888895 
L 516.021502 215.259787 
L 517.210879 213.153837 
L 518.400255 210.498503 
L 519.589631 207.231224 
L 520.779007 203.300825 
L 521.968384 198.668991 
L 523.15776 193.31204 
L 524.941824 183.907041 
L 526.725888 172.919145 
L 528.509953 160.521691 
L 530.888705 142.331491 
L 536.835586 95.425617 
L 538.619651 82.944354 
L 540.403715 71.803639 
L 542.187779 62.16422 
L 543.377155 56.632091 
L 544.566532 51.862858 
L 545.755908 47.906462 
L 546.945284 44.81501 
L 548.13466 42.628757 
L 548.729348 41.879795 
L 549.324037 41.357228 
L 549.918725 41.054367 
L 550.513413 40.96056 
L 551.108101 41.061033 
L 551.702789 41.336931 
L 552.892165 42.321008 
L 554.081541 43.695888 
L 556.460294 46.647952 
L 557.64967 47.789244 
L 558.839046 48.513687 
L 560.028422 48.781781 
L 561.217799 48.646454 
L 563.001863 48.000618 
L 564.191239 47.575532 
L 565.380615 47.42852 
L 565.975304 47.531824 
L 566.569992 47.78868 
L 567.16468 48.222968 
L 567.759368 48.855771 
L 568.354056 49.705118 
L 568.948744 50.785837 
L 570.13812 53.684596 
L 571.327497 57.607648 
L 572.516873 62.565776 
L 573.706249 68.533223 
L 574.895625 75.456848 
L 576.679689 87.472712 
L 578.463754 101.172584 
L 580.842506 121.413211 
L 587.384075 178.795181 
L 589.16814 191.826266 
L 590.357516 199.338007 
L 591.546892 205.822949 
L 592.736268 211.269254 
L 593.925645 215.716192 
L 595.115021 219.244619 
L 596.304397 221.964252 
L 597.493773 224.000053 
L 598.683149 225.479741 
L 599.872526 226.523853 
L 601.061902 227.239024 
L 602.251278 227.714478 
L 604.035342 228.128829 
L 606.414095 228.368978 
L 606.414095 228.368978 
" clip-path="url(#pfd155aea30)" style="fill: none; stroke: #ff0000; stroke-opacity: 0.8; stroke-linecap: square"/>
   </g>
   <g id="line2d_19">
    <path d="M 473.876468 228.480769 
L 478.790274 228.375149 
L 484.523048 228.14105 
L 491.074789 228.198562 
L 493.531692 227.932301 
L 495.988595 227.384801 
L 498.445498 226.526856 
L 500.902401 225.389288 
L 504.178271 223.638111 
L 505.816207 222.575469 
L 507.454142 221.11845 
L 509.092077 219.136323 
L 511.54898 215.493266 
L 513.186916 212.834124 
L 514.824851 209.739886 
L 516.462786 205.787449 
L 518.100722 200.928378 
L 520.557625 192.654632 
L 522.19556 186.210361 
L 523.833495 178.092651 
L 525.471431 168.180698 
L 527.928334 152.663654 
L 529.566269 143.747646 
L 534.480075 119.546561 
L 536.936978 105.311101 
L 541.031816 81.479951 
L 544.307687 63.000551 
L 545.945622 54.872818 
L 547.583557 47.874067 
L 550.04046 38.488745 
L 551.678396 33.096026 
L 552.497363 30.901414 
L 553.316331 29.125308 
L 554.135299 27.797664 
L 554.954266 26.944483 
L 555.773234 26.6099 
L 556.592201 26.862593 
L 557.411169 27.77989 
L 558.230137 29.41467 
L 559.049104 31.758619 
L 559.868072 34.718049 
L 563.96291 51.672089 
L 568.057749 65.461621 
L 569.695684 72.950918 
L 572.152587 86.196476 
L 576.247425 109.167631 
L 577.885361 119.60484 
L 579.523296 131.5444 
L 583.618134 163.934154 
L 585.256069 174.303771 
L 586.894005 182.261214 
L 587.712972 185.433447 
L 589.350908 190.511205 
L 590.988843 194.560481 
L 593.445746 200.489388 
L 595.902649 206.584776 
L 597.540584 210.089732 
L 599.997487 214.556357 
L 601.635423 217.232319 
L 603.273358 219.519635 
L 604.911293 221.310734 
L 606.549229 222.698708 
L 608.187164 223.806682 
L 610.644067 225.111599 
L 613.919937 226.568597 
L 615.557873 227.134766 
L 617.195808 227.52539 
L 619.652711 227.861778 
L 622.928582 228.058465 
L 636.851032 228.482062 
L 636.851032 228.482062 
" clip-path="url(#pfd155aea30)" style="fill: none; stroke: #808080; stroke-opacity: 0.4; stroke-linecap: square"/>
   </g>
   <g id="line2d_20">
    <path d="M 482.049727 228.419676 
L 485.79884 228.187723 
L 488.298248 227.794518 
L 490.172805 227.299334 
L 492.047361 226.603227 
L 494.54677 225.402127 
L 498.295882 223.488 
L 500.170438 222.788832 
L 502.044995 222.405304 
L 503.919551 222.33088 
L 508.918368 222.428301 
L 510.168072 222.135646 
L 511.417776 221.576317 
L 512.667481 220.693351 
L 513.917185 219.43566 
L 515.166889 217.753351 
L 516.416593 215.592945 
L 517.666297 212.894487 
L 518.916002 209.591921 
L 520.165706 205.617106 
L 521.41541 200.906696 
L 522.665114 195.410318 
L 523.914818 189.098253 
L 525.789375 178.10163 
L 527.663931 165.384926 
L 529.538487 151.219228 
L 532.662748 125.593249 
L 536.411861 94.950068 
L 538.286417 81.172399 
L 540.160973 69.10639 
L 541.410677 62.163606 
L 542.660382 56.15835 
L 543.910086 51.115016 
L 545.15979 47.048938 
L 546.409494 43.972333 
L 547.034346 42.807468 
L 547.659198 41.891091 
L 548.284051 41.220802 
L 548.908903 40.791793 
L 549.533755 40.596187 
L 550.158607 40.622467 
L 550.783459 40.855037 
L 551.408311 41.274 
L 552.658015 42.570421 
L 554.532572 45.194263 
L 556.407128 47.807753 
L 557.656832 49.133261 
L 558.906536 49.94498 
L 559.531388 50.143776 
L 560.15624 50.211937 
L 561.405945 50.02187 
L 564.530205 48.970388 
L 565.155057 48.942206 
L 565.779909 49.058624 
L 566.404762 49.351639 
L 567.029614 49.84966 
L 567.654466 50.576957 
L 568.279318 51.55334 
L 568.90417 52.794044 
L 570.153874 56.107067 
L 571.403578 60.552895 
L 572.653283 66.113474 
L 573.902987 72.731602 
L 575.152691 80.325875 
L 577.027247 93.338066 
L 578.901804 107.975776 
L 581.401212 129.283346 
L 586.400029 172.662739 
L 588.274585 186.929653 
L 589.524289 195.290684 
L 590.773994 202.590123 
L 592.023698 208.777655 
L 593.273402 213.866176 
L 594.523106 217.923547 
L 595.77281 221.058842 
L 597.022515 223.406018 
L 598.272219 225.107936 
L 599.521923 226.302955 
L 600.771627 227.115395 
L 602.021331 227.650124 
L 603.895888 228.108938 
L 606.395296 228.367587 
L 606.395296 228.367587 
" clip-path="url(#pfd155aea30)" style="fill: none; stroke-dasharray: 14.8,6.4; stroke-dashoffset: 0; stroke: #0000ff; stroke-opacity: 0.4; stroke-width: 4"/>
   </g>
   <g id="line2d_21">
    <path d="M 532.451097 227.356594 
L 532.499133 217.626089 
L 532.566384 125.186423 
L 532.602438 -1 
M 534.07413 -1 
L 534.29568 217.849599 
L 534.362931 227.7829 
L 534.362931 227.7829 
" clip-path="url(#pfd155aea30)" style="fill: none; stroke-dasharray: 14.8,6.4; stroke-dashoffset: 0; stroke: #008000; stroke-opacity: 0.4; stroke-width: 4"/>
   </g>
   <g id="patch_7">
    <path d="M 465.72774 228.48351 
L 644.99976 228.48351 
" style="fill: none; stroke: #000000; stroke-width: 0.8; stroke-linejoin: miter; stroke-linecap: square"/>
   </g>
  </g>
  <g id="axes_4">
   <g id="patch_8">
    <path d="M 681.72774 228.48351 
L 860.99976 228.48351 
L 860.99976 3.00024 
L 681.72774 3.00024 
z
" style="fill: #ffffff"/>
   </g>
   <g id="matplotlib.axis_7">
    <g id="xtick_7">
     <g id="line2d_22">
      <g>
       <use xlink:href="#mf93ca12cd9" x="751.295659" y="228.48351" style="stroke: #000000; stroke-width: 0.8"/>
      </g>
     </g>
     <g id="text_13">
      <!-- 0.6 -->
      <g transform="translate(735.392534 250.680385) scale(0.2 -0.2)">
       <use xlink:href="#DejaVuSans-30"/>
       <use xlink:href="#DejaVuSans-2e" transform="translate(63.623047 0)"/>
       <use xlink:href="#DejaVuSans-36" transform="translate(95.410156 0)"/>
      </g>
     </g>
    </g>
    <g id="xtick_8">
     <g id="line2d_23">
      <g>
       <use xlink:href="#mf93ca12cd9" x="822.512123" y="228.48351" style="stroke: #000000; stroke-width: 0.8"/>
      </g>
     </g>
     <g id="text_14">
      <!-- 1.2 -->
      <g transform="translate(806.608998 250.680385) scale(0.2 -0.2)">
       <use xlink:href="#DejaVuSans-31"/>
       <use xlink:href="#DejaVuSans-2e" transform="translate(63.623047 0)"/>
       <use xlink:href="#DejaVuSans-32" transform="translate(95.410156 0)"/>
      </g>
     </g>
    </g>
    <g id="text_15">
     <!-- $\dot{y}$ : $x\cdot y$ -->
     <g transform="translate(729.84375 279.95976) scale(0.24 -0.24)">
      <use xlink:href="#DejaVuSans-307" transform="translate(62.388672 12.015625)"/>
      <use xlink:href="#DejaVuSans-Oblique-79" transform="translate(0 0.828125)"/>
      <use xlink:href="#DejaVuSans-20" transform="translate(59.179688 0.828125)"/>
      <use xlink:href="#DejaVuSans-3a" transform="translate(90.966797 0.828125)"/>
      <use xlink:href="#DejaVuSans-20" transform="translate(124.658203 0.828125)"/>
      <use xlink:href="#DejaVuSans-Oblique-78" transform="translate(156.445312 0.828125)"/>
      <use xlink:href="#DejaVuSans-22c5" transform="translate(235.107422 0.828125)"/>
      <use xlink:href="#DejaVuSans-Oblique-79" transform="translate(286.376953 0.828125)"/>
     </g>
    </g>
   </g>
   <g id="matplotlib.axis_8">
    <g id="ytick_4">
     <g id="line2d_24"/>
    </g>
    <g id="text_16">
     <!--   -->
     <g transform="translate(669.23649 119.555625) rotate(-90) scale(0.24 -0.24)">
      <use xlink:href="#DejaVuSans-20"/>
     </g>
    </g>
   </g>
   <g id="line2d_25">
    <path d="M 690.694785 228.379827 
L 693.954207 228.16033 
L 696.398774 227.800393 
L 698.84334 227.161994 
L 700.473051 226.529274 
L 702.102762 225.702512 
L 703.732473 224.672537 
L 706.17704 222.775467 
L 709.436462 219.808042 
L 713.51074 216.047138 
L 720.844439 209.546522 
L 722.47415 207.63794 
L 724.103861 205.335598 
L 725.733572 202.556764 
L 727.363283 199.241114 
L 728.992994 195.346449 
L 730.622705 190.840282 
L 732.252416 185.6913 
L 733.882127 179.864476 
L 735.511838 173.322148 
L 737.141549 166.031607 
L 738.77126 157.978066 
L 741.215827 144.522409 
L 743.660393 129.694105 
L 750.179238 88.974564 
L 751.808949 80.084308 
L 753.43866 72.206126 
L 755.068371 65.446243 
L 756.698082 59.80185 
L 758.327793 55.175747 
L 759.957504 51.411346 
L 761.587215 48.338524 
L 763.216926 45.817399 
L 764.846637 43.76809 
L 766.476348 42.1796 
L 768.106059 41.098167 
L 768.920914 40.771613 
L 769.73577 40.602116 
L 770.550625 40.599875 
L 771.365481 40.773963 
L 772.180336 41.132003 
L 772.995192 41.680084 
L 773.810047 42.422915 
L 774.624903 43.364182 
L 775.439758 44.50704 
L 777.069469 47.410878 
L 778.69918 51.169718 
L 780.328891 55.83939 
L 781.958602 61.495799 
L 783.588313 68.219642 
L 785.218024 76.069254 
L 786.847735 85.049006 
L 788.477446 95.082665 
L 790.922013 111.711587 
L 797.440857 157.886138 
L 799.070568 168.005266 
L 800.700279 177.035595 
L 802.32999 184.860461 
L 803.959701 191.453976 
L 805.589412 196.87155 
L 807.219123 201.233134 
L 808.848834 204.701566 
L 810.478545 207.45863 
L 812.108256 209.681829 
L 813.737967 211.525112 
L 816.182534 213.824943 
L 818.6271 215.762311 
L 821.071667 217.427033 
L 823.516233 218.854857 
L 826.775655 220.493248 
L 838.998488 226.188568 
L 841.443055 227.021683 
L 843.887621 227.627362 
L 846.332188 228.023682 
L 849.59161 228.308517 
L 852.851032 228.426691 
L 852.851032 228.426691 
" clip-path="url(#p2b0152d81a)" style="fill: none; stroke: #ff0000; stroke-opacity: 0.8; stroke-linecap: square"/>
   </g>
   <g id="line2d_26">
    <path d="M 689.876468 228.481897 
L 696.203326 228.374753 
L 702.530184 228.130329 
L 705.693613 227.633235 
L 712.811328 226.576963 
L 715.1839 226.141485 
L 716.765615 225.60473 
L 718.347329 224.652287 
L 719.929044 223.214822 
L 721.510758 221.354432 
L 723.092473 219.173836 
L 724.674187 216.71694 
L 726.255902 213.924971 
L 727.837616 210.648224 
L 729.419331 206.659297 
L 731.001045 201.74545 
L 733.373617 193.029144 
L 735.746189 184.55371 
L 737.327903 179.178893 
L 738.11876 176.1856 
L 738.909618 172.742231 
L 739.700475 168.712624 
L 741.282189 158.805445 
L 743.654761 141.191063 
L 746.81819 118.131698 
L 753.145048 73.74275 
L 757.099334 41.853097 
L 757.890192 37.069653 
L 759.471906 29.540951 
L 761.053621 22.748412 
L 762.635335 14.740095 
L 765.007907 2.166634 
L 765.808125 -1 
M 770.856499 -1 
L 771.334765 0.345143 
L 772.125622 3.105768 
L 773.707337 10.021203 
L 775.289051 18.273246 
L 781.615909 53.420009 
L 783.988481 69.811258 
L 786.361053 85.81475 
L 790.315339 110.298596 
L 792.687911 127.820325 
L 795.85134 151.558419 
L 797.433054 162.191944 
L 799.014769 171.709961 
L 800.596483 179.839756 
L 802.178198 186.52712 
L 803.759912 192.191627 
L 806.923341 202.473425 
L 808.505056 207.141245 
L 810.08677 211.073539 
L 811.668485 214.134891 
L 813.250199 216.476325 
L 814.831914 218.364457 
L 817.204485 220.767139 
L 819.577057 222.767251 
L 822.740486 224.970354 
L 824.322201 225.917946 
L 825.903915 226.614446 
L 827.48563 227.010307 
L 836.185059 228.250754 
L 843.302775 228.444087 
L 847.257061 228.481897 
L 847.257061 228.481897 
" clip-path="url(#p2b0152d81a)" style="fill: none; stroke: #808080; stroke-opacity: 0.4; stroke-linecap: square"/>
   </g>
   <g id="line2d_27">
    <path d="M 690.254675 228.384966 
L 693.522079 228.174484 
L 695.972632 227.827299 
L 698.423185 227.208124 
L 700.056887 226.591583 
L 701.690589 225.782712 
L 703.324291 224.770784 
L 705.774844 222.896494 
L 709.042248 219.940625 
L 713.943353 215.443232 
L 719.66131 210.482163 
L 721.295012 208.763933 
L 722.928714 206.723139 
L 724.562416 204.268874 
L 726.196118 201.33123 
L 727.82982 197.860252 
L 729.463522 193.818962 
L 731.097224 189.174062 
L 732.730925 183.888501 
L 734.364627 177.919205 
L 735.998329 171.221497 
L 737.632031 163.7599 
L 739.265733 155.523453 
L 741.716286 141.798222 
L 744.98369 121.576094 
L 749.067945 95.82174 
L 751.518498 81.896302 
L 753.152199 73.786701 
L 754.785901 66.777226 
L 756.419603 60.88548 
L 758.053305 56.032231 
L 759.687007 52.073402 
L 761.320709 48.844245 
L 762.954411 46.203198 
L 764.588113 44.063303 
L 766.221815 42.403641 
L 767.855517 41.260256 
L 768.672368 40.903396 
L 769.489219 40.702835 
L 770.30607 40.668063 
L 771.122921 40.80758 
L 771.939772 41.128555 
L 772.756623 41.636716 
L 773.573473 42.336491 
L 774.390324 43.231339 
L 775.207175 44.324241 
L 776.840877 47.11713 
L 778.474579 50.750337 
L 780.108281 55.281214 
L 781.741983 60.789477 
L 783.375685 67.362267 
L 785.009387 75.066744 
L 786.643089 83.9176 
L 788.276791 93.84904 
L 790.727344 110.393599 
L 798.079002 162.052989 
L 799.712704 171.791904 
L 801.346406 180.377623 
L 802.980108 187.728479 
L 804.61381 193.851586 
L 806.247512 198.830327 
L 807.881214 202.805382 
L 809.514916 205.951721 
L 811.148618 208.454335 
L 812.78232 210.485883 
L 814.416022 212.189566 
L 816.866574 214.348013 
L 819.317127 216.190365 
L 821.76768 217.785891 
L 825.035084 219.595298 
L 832.386743 223.178872 
L 837.287848 225.513536 
L 839.738401 226.48915 
L 842.188954 227.248608 
L 844.639507 227.781057 
L 847.09006 228.117272 
L 850.357464 228.349614 
L 852.808017 228.426796 
L 852.808017 228.426796 
" clip-path="url(#p2b0152d81a)" style="fill: none; stroke-dasharray: 14.8,6.4; stroke-dashoffset: 0; stroke: #0000ff; stroke-opacity: 0.4; stroke-width: 4"/>
   </g>
   <g id="line2d_28">
    <path d="M 768.154052 224.574377 
L 768.180348 143.589742 
L 768.19428 -1 
M 768.735135 -1 
L 768.78141 222.605913 
L 768.84903 46.274745 
L 768.901623 226.246702 
L 768.901623 226.246702 
" clip-path="url(#p2b0152d81a)" style="fill: none; stroke-dasharray: 14.8,6.4; stroke-dashoffset: 0; stroke: #008000; stroke-opacity: 0.4; stroke-width: 4"/>
   </g>
   <g id="patch_9">
    <path d="M 681.72774 228.48351 
L 860.99976 228.48351 
" style="fill: none; stroke: #000000; stroke-width: 0.8; stroke-linejoin: miter; stroke-linecap: square"/>
   </g>
  </g>
 </g>
 <defs>
  <clipPath id="pedbcc3f201">
   <rect x="33.72774" y="3.00024" width="179.27202" height="225.48327"/>
  </clipPath>
  <clipPath id="pa5e4af12fe">
   <rect x="249.72774" y="3.00024" width="179.27202" height="225.48327"/>
  </clipPath>
  <clipPath id="pfd155aea30">
   <rect x="465.72774" y="3.00024" width="179.27202" height="225.48327"/>
  </clipPath>
  <clipPath id="p2b0152d81a">
   <rect x="681.72774" y="3.00024" width="179.27202" height="225.48327"/>
  </clipPath>
 </defs>
</svg>
