<?xml version="1.0" encoding="utf-8" standalone="no"?>
<!DOCTYPE svg PUBLIC "-//W3C//DTD SVG 1.1//EN"
  "http://www.w3.org/Graphics/SVG/1.1/DTD/svg11.dtd">
<svg xmlns:xlink="http://www.w3.org/1999/xlink" width="864pt" height="216pt" viewBox="0 0 864 216" xmlns="http://www.w3.org/2000/svg" version="1.1">
 <metadata>
  <rdf:RDF xmlns:dc="http://purl.org/dc/elements/1.1/" xmlns:cc="http://creativecommons.org/ns#" xmlns:rdf="http://www.w3.org/1999/02/22-rdf-syntax-ns#">
   <cc:Work>
    <dc:type rdf:resource="http://purl.org/dc/dcmitype/StillImage"/>
    <dc:date>2025-09-16T15:48:40.800622</dc:date>
    <dc:format>image/svg+xml</dc:format>
    <dc:creator>
     <cc:Agent>
      <dc:title>Matplotlib v3.10.5, https://matplotlib.org/</dc:title>
     </cc:Agent>
    </dc:creator>
   </cc:Work>
  </rdf:RDF>
 </metadata>
 <defs>
  <style type="text/css">*{stroke-linejoin: round; stroke-linecap: butt}</style>
 </defs>
 <g id="figure_1">
  <g id="patch_1">
   <path d="M 0 216 
L 864 216 
L 864 0 
L 0 0 
z
" style="fill: #ffffff"/>
  </g>
  <g id="axes_1">
   <g id="patch_2">
    <path d="M 33.90024 153.85976 
L 280.744869 153.85976 
L 280.744869 3.00024 
L 33.90024 3.00024 
z
" style="fill: #ffffff"/>
   </g>
   <g id="matplotlib.axis_1">
    <g id="xtick_1">
     <g id="line2d_1">
      <defs>
       <path id="m7e0568535d" d="M 0 0 
L 0 3.5 
" style="stroke: #000000; stroke-width: 0.8"/>
      </defs>
      <g>
       <use xlink:href="#m7e0568535d" x="73.277787" y="153.85976" style="stroke: #000000; stroke-width: 0.8"/>
      </g>
     </g>
     <g id="text_1">
      <!-- 0.0 -->
      <g transform="translate(59.527787 175.885073) scale(0.22 -0.22)">
       <defs>
        <path id="STIXGeneral-Regular-30" d="M 3046 2112 
Q 3046 1683 2963 1302 
Q 2880 922 2717 602 
Q 2554 282 2266 96 
Q 1978 -90 1600 -90 
Q 1210 -90 915 108 
Q 621 307 461 640 
Q 301 973 227 1350 
Q 154 1728 154 2150 
Q 154 2746 301 3222 
Q 448 3699 790 4012 
Q 1133 4326 1626 4326 
Q 2253 4326 2649 3712 
Q 3046 3098 3046 2112 
z
M 2432 2080 
Q 2432 3091 2217 3625 
Q 2003 4160 1587 4160 
Q 1190 4160 979 3622 
Q 768 3085 768 2106 
Q 768 1120 979 598 
Q 1190 77 1600 77 
Q 2003 77 2217 598 
Q 2432 1120 2432 2080 
z
" transform="scale(0.015625)"/>
        <path id="STIXGeneral-Regular-2e" d="M 1158 275 
Q 1158 134 1052 32 
Q 947 -70 800 -70 
Q 653 -70 550 32 
Q 448 134 448 281 
Q 448 429 553 534 
Q 659 640 806 640 
Q 947 640 1052 531 
Q 1158 422 1158 275 
z
" transform="scale(0.015625)"/>
       </defs>
       <use xlink:href="#STIXGeneral-Regular-30"/>
       <use xlink:href="#STIXGeneral-Regular-2e" transform="translate(49.999985 0)"/>
       <use xlink:href="#STIXGeneral-Regular-30" transform="translate(74.999969 0)"/>
      </g>
     </g>
    </g>
    <g id="xtick_2">
     <g id="line2d_2">
      <g>
       <use xlink:href="#m7e0568535d" x="176.518532" y="153.85976" style="stroke: #000000; stroke-width: 0.8"/>
      </g>
     </g>
     <g id="text_2">
      <!-- 0.8 -->
      <g transform="translate(162.768532 175.885073) scale(0.22 -0.22)">
       <defs>
        <path id="STIXGeneral-Regular-38" d="M 2848 992 
Q 2848 499 2505 204 
Q 2163 -90 1587 -90 
Q 1050 -90 704 204 
Q 358 499 358 954 
Q 358 1293 524 1533 
Q 691 1773 1190 2125 
Q 710 2522 553 2765 
Q 397 3008 397 3328 
Q 397 3782 745 4054 
Q 1094 4326 1638 4326 
Q 2106 4326 2410 4060 
Q 2714 3795 2714 3411 
Q 2714 3059 2531 2848 
Q 2349 2637 1856 2374 
Q 2432 1990 2640 1689 
Q 2848 1389 2848 992 
z
M 2272 3411 
Q 2272 3744 2086 3945 
Q 1901 4147 1574 4147 
Q 1248 4147 1059 3977 
Q 870 3808 870 3513 
Q 870 3219 1059 2979 
Q 1248 2739 1670 2490 
Q 1997 2682 2134 2896 
Q 2272 3110 2272 3411 
z
M 1734 1741 
L 1357 1997 
Q 1075 1766 960 1545 
Q 845 1325 845 1011 
Q 845 576 1065 333 
Q 1286 90 1658 90 
Q 1971 90 2166 285 
Q 2362 480 2362 794 
Q 2362 1082 2214 1299 
Q 2067 1517 1734 1741 
z
" transform="scale(0.015625)"/>
       </defs>
       <use xlink:href="#STIXGeneral-Regular-30"/>
       <use xlink:href="#STIXGeneral-Regular-2e" transform="translate(49.999985 0)"/>
       <use xlink:href="#STIXGeneral-Regular-38" transform="translate(74.999969 0)"/>
      </g>
     </g>
    </g>
    <g id="xtick_3">
     <g id="line2d_3">
      <g>
       <use xlink:href="#m7e0568535d" x="279.759278" y="153.85976" style="stroke: #000000; stroke-width: 0.8"/>
      </g>
     </g>
     <g id="text_3">
      <!-- 1.6 -->
      <g transform="translate(266.009278 175.885073) scale(0.22 -0.22)">
       <defs>
        <path id="STIXGeneral-Regular-31" d="M 2522 0 
L 755 0 
L 755 96 
Q 1107 115 1235 227 
Q 1363 339 1363 608 
L 1363 3482 
Q 1363 3795 1171 3795 
Q 1082 3795 883 3718 
L 710 3654 
L 710 3744 
L 1856 4326 
L 1914 4307 
L 1914 486 
Q 1914 275 2042 185 
Q 2170 96 2522 96 
L 2522 0 
z
" transform="scale(0.015625)"/>
        <path id="STIXGeneral-Regular-36" d="M 2854 4378 
L 2867 4275 
Q 2112 4154 1606 3664 
Q 1101 3174 973 2451 
Q 1344 2739 1786 2739 
Q 2349 2739 2672 2380 
Q 2995 2022 2995 1402 
Q 2995 774 2669 378 
Q 2291 -90 1651 -90 
Q 870 -90 518 557 
Q 218 1107 218 1786 
Q 218 2835 915 3552 
Q 1312 3962 1731 4131 
Q 2150 4301 2854 4378 
z
M 2419 1203 
Q 2419 2445 1555 2445 
Q 1235 2445 1024 2275 
Q 813 2106 813 1702 
Q 813 954 1046 522 
Q 1280 90 1722 90 
Q 2061 90 2240 394 
Q 2419 698 2419 1203 
z
" transform="scale(0.015625)"/>
       </defs>
       <use xlink:href="#STIXGeneral-Regular-31"/>
       <use xlink:href="#STIXGeneral-Regular-2e" transform="translate(49.999985 0)"/>
       <use xlink:href="#STIXGeneral-Regular-36" transform="translate(74.999969 0)"/>
      </g>
     </g>
    </g>
    <g id="text_4">
     <!-- $\dot{i}$ : $\text{Const.}$ -->
     <g transform="translate(110.002554 202.416947) scale(0.26 -0.26)">
      <defs>
       <path id="STIXGeneral-Regular-307" d="M -1158 3661 
Q -1158 3526 -1251 3436 
Q -1344 3347 -1478 3347 
Q -1606 3347 -1699 3440 
Q -1792 3533 -1792 3661 
Q -1792 3795 -1705 3888 
Q -1619 3981 -1478 3981 
Q -1331 3981 -1244 3891 
Q -1158 3802 -1158 3661 
z
" transform="scale(0.015625)"/>
       <path id="STIXGeneral-Italic-69" d="M 1690 3834 
Q 1690 3699 1597 3603 
Q 1504 3507 1376 3507 
Q 1235 3507 1152 3600 
Q 1069 3693 1069 3846 
Q 1069 3994 1155 4090 
Q 1242 4186 1370 4186 
Q 1498 4186 1594 4080 
Q 1690 3974 1690 3834 
z
M 1421 730 
L 1504 659 
Q 1235 243 1049 86 
Q 864 -70 627 -70 
Q 314 -70 314 282 
Q 314 467 454 992 
L 762 2125 
Q 819 2330 819 2406 
Q 819 2502 745 2528 
Q 672 2554 410 2560 
L 410 2662 
Q 704 2688 1434 2822 
L 1459 2803 
L 858 608 
Q 794 390 794 326 
Q 794 230 883 230 
Q 1043 230 1421 730 
z
" transform="scale(0.015625)"/>
       <path id="STIXGeneral-Regular-20" transform="scale(0.015625)"/>
       <path id="STIXGeneral-Regular-3a" d="M 1123 2832 
Q 1229 2726 1229 2579 
Q 1229 2432 1126 2329 
Q 1024 2227 877 2227 
Q 730 2227 624 2332 
Q 518 2438 518 2579 
Q 518 2733 620 2835 
Q 723 2938 877 2938 
Q 1018 2938 1123 2832 
z
M 1229 282 
Q 1229 141 1126 35 
Q 1024 -70 877 -70 
Q 730 -70 624 35 
Q 518 141 518 282 
Q 518 435 620 537 
Q 723 640 877 640 
Q 1018 640 1123 534 
Q 1229 429 1229 282 
z
" transform="scale(0.015625)"/>
       <path id="STIXGeneral-Regular-43" d="M 3930 838 
L 4051 723 
Q 3482 -90 2304 -90 
Q 1376 -90 794 480 
Q 179 1082 179 2080 
Q 179 3014 755 3661 
Q 1357 4326 2310 4326 
Q 2720 4326 3072 4230 
Q 3475 4115 3514 4115 
Q 3725 4115 3782 4326 
L 3910 4326 
L 3968 2874 
L 3821 2874 
Q 3718 3334 3488 3584 
Q 3034 4070 2458 4070 
Q 1747 4070 1334 3548 
Q 922 3027 922 2182 
Q 922 1152 1382 653 
Q 1811 192 2522 192 
Q 2944 192 3251 339 
Q 3558 486 3930 838 
z
" transform="scale(0.015625)"/>
       <path id="STIXGeneral-Regular-6f" d="M 3008 1478 
Q 3008 806 2608 371 
Q 2208 -64 1568 -64 
Q 979 -64 582 368 
Q 186 800 186 1459 
Q 186 2125 582 2534 
Q 979 2944 1626 2944 
Q 2221 2944 2614 2537 
Q 3008 2131 3008 1478 
z
M 2432 1306 
Q 2432 2035 2112 2445 
Q 1856 2765 1504 2765 
Q 1171 2765 966 2493 
Q 762 2221 762 1747 
Q 762 928 1101 435 
Q 1318 115 1677 115 
Q 2029 115 2230 432 
Q 2432 749 2432 1306 
z
" transform="scale(0.015625)"/>
       <path id="STIXGeneral-Regular-6e" d="M 3104 0 
L 1773 0 
L 1779 96 
Q 2016 115 2096 233 
Q 2176 352 2176 672 
L 2176 1946 
Q 2176 2592 1709 2592 
Q 1549 2592 1408 2515 
Q 1267 2438 1050 2227 
L 1050 461 
Q 1050 269 1136 192 
Q 1222 115 1466 96 
L 1466 0 
L 115 0 
L 115 96 
Q 358 115 435 214 
Q 512 314 512 602 
L 512 2157 
Q 512 2394 467 2483 
Q 422 2573 288 2573 
Q 160 2573 102 2547 
L 102 2656 
Q 550 2784 979 2944 
L 1030 2925 
L 1030 2426 
L 1037 2426 
Q 1491 2944 1958 2944 
Q 2323 2944 2518 2688 
Q 2714 2432 2714 1958 
L 2714 544 
Q 2714 288 2790 205 
Q 2867 122 3104 96 
L 3104 0 
z
" transform="scale(0.015625)"/>
       <path id="STIXGeneral-Regular-73" d="M 998 1926 
L 1664 1523 
Q 1984 1331 2105 1164 
Q 2227 998 2227 736 
Q 2227 416 1961 176 
Q 1696 -64 1331 -64 
Q 1030 -64 864 -6 
Q 691 51 570 51 
Q 461 51 416 -26 
L 333 -26 
L 333 979 
L 435 979 
Q 538 512 730 294 
Q 922 77 1248 77 
Q 1485 77 1632 211 
Q 1779 346 1779 550 
Q 1779 845 1440 1030 
L 1094 1222 
Q 326 1651 326 2150 
Q 326 2522 566 2730 
Q 806 2938 1210 2938 
Q 1491 2938 1638 2867 
Q 1754 2816 1818 2816 
Q 1862 2816 1920 2880 
L 1990 2880 
L 2022 2010 
L 1926 2010 
Q 1818 2445 1654 2621 
Q 1491 2797 1203 2797 
Q 986 2797 854 2688 
Q 723 2579 723 2362 
Q 723 2253 796 2128 
Q 870 2003 998 1926 
z
" transform="scale(0.015625)"/>
       <path id="STIXGeneral-Regular-74" d="M 1702 493 
L 1786 422 
Q 1478 -64 1011 -64 
Q 448 -64 448 749 
L 448 2675 
L 109 2675 
Q 83 2694 83 2720 
Q 83 2771 192 2842 
Q 435 2982 813 3526 
Q 826 3546 874 3606 
Q 922 3667 941 3706 
Q 986 3706 986 3622 
L 986 2880 
L 1632 2880 
L 1632 2675 
L 986 2675 
L 986 845 
Q 986 538 1062 403 
Q 1139 269 1318 269 
Q 1510 269 1702 493 
z
" transform="scale(0.015625)"/>
      </defs>
      <use xlink:href="#STIXGeneral-Regular-307" transform="translate(39.949997 25.796875)"/>
      <use xlink:href="#STIXGeneral-Italic-69" transform="translate(0 0.1875)"/>
      <use xlink:href="#STIXGeneral-Regular-20" transform="translate(27.799988 0.1875)"/>
      <use xlink:href="#STIXGeneral-Regular-3a" transform="translate(52.799973 0.1875)"/>
      <use xlink:href="#STIXGeneral-Regular-20" transform="translate(80.59996 0.1875)"/>
      <use xlink:href="#STIXGeneral-Regular-43" transform="translate(105.599945 0.1875)"/>
      <use xlink:href="#STIXGeneral-Regular-6f" transform="translate(172.299942 0.1875)"/>
      <use xlink:href="#STIXGeneral-Regular-6e" transform="translate(222.299927 0.1875)"/>
      <use xlink:href="#STIXGeneral-Regular-73" transform="translate(272.299911 0.1875)"/>
      <use xlink:href="#STIXGeneral-Regular-74" transform="translate(311.199905 0.1875)"/>
      <use xlink:href="#STIXGeneral-Regular-2e" transform="translate(338.999893 0.1875)"/>
     </g>
    </g>
   </g>
   <g id="matplotlib.axis_2">
    <g id="ytick_1">
     <g id="line2d_4"/>
    </g>
    <g id="text_5">
     <!--   -->
     <g transform="translate(20.757428 81.68) rotate(-90) scale(0.26 -0.26)">
      <use xlink:href="#STIXGeneral-Regular-20"/>
     </g>
    </g>
   </g>
   <g id="line2d_5">
    <path d="M 45.12045 152.805879 
L 48.503428 152.086907 
L 50.758747 151.393635 
L 53.014066 150.474742 
L 55.269384 149.275062 
L 57.524703 147.732529 
L 59.780022 145.77957 
L 62.03534 143.345404 
L 64.290659 140.35933 
L 66.545978 136.755027 
L 68.801296 132.475768 
L 71.056615 127.480351 
L 73.311934 121.749404 
L 75.567252 115.291594 
L 77.822571 108.149191 
L 80.07789 100.402331 
L 83.460868 87.923041 
L 91.354483 58.13547 
L 93.609802 50.52739 
L 95.865121 43.793436 
L 98.120439 38.174929 
L 99.248099 35.851103 
L 100.375758 33.881567 
L 101.503417 32.285458 
L 102.631077 31.078443 
L 103.758736 30.272455 
L 104.886395 29.875504 
L 106.014055 29.891536 
L 107.141714 30.320374 
L 108.269373 31.157711 
L 109.397033 32.395189 
L 110.524692 34.02053 
L 111.652351 36.017739 
L 112.780011 38.367358 
L 113.90767 41.046785 
L 116.162989 47.291088 
L 118.418307 54.521283 
L 120.673626 62.483586 
L 125.184263 79.552747 
L 129.694901 96.503358 
L 133.077879 108.152441 
L 135.333197 115.132866 
L 137.588516 121.370249 
L 139.843835 126.804399 
L 142.099153 131.403462 
L 144.354472 135.157624 
L 145.482131 136.719155 
L 146.609791 138.072321 
L 147.73745 139.219097 
L 148.865109 140.161621 
L 149.992769 140.90204 
L 151.120428 141.442371 
L 152.248087 141.784391 
L 153.375747 141.92956 
L 154.503406 141.878956 
L 155.631065 141.633256 
L 156.758725 141.192733 
L 157.886384 140.55729 
L 159.014043 139.726512 
L 160.141703 138.699755 
L 161.269362 137.476252 
L 162.397021 136.055241 
L 163.524681 134.436117 
L 165.779999 130.602886 
L 168.035318 125.98138 
L 170.290637 120.590422 
L 172.545955 114.468784 
L 174.801274 107.680542 
L 178.184252 96.461586 
L 182.694889 80.309986 
L 187.205527 64.180412 
L 189.460845 56.682527 
L 191.716164 49.876948 
L 193.971483 43.990252 
L 195.099142 41.456633 
L 196.226801 39.227139 
L 197.354461 37.322034 
L 198.48212 35.758846 
L 199.609779 34.552096 
L 200.737439 33.713081 
L 201.865098 33.249694 
L 202.992757 33.166309 
L 204.120417 33.463709 
L 205.248076 34.139076 
L 206.375735 35.186039 
L 207.503395 36.594769 
L 208.631054 38.352138 
L 209.758714 40.441922 
L 210.886373 42.84505 
L 213.141692 48.502581 
L 215.39701 55.127018 
L 217.652329 62.49656 
L 221.035307 74.43663 
L 227.801263 98.747976 
L 231.184241 109.869414 
L 233.43956 116.600831 
L 235.694878 122.699155 
L 237.950197 128.127278 
L 240.205516 132.87735 
L 242.460834 136.966078 
L 244.716153 140.429458 
L 246.971472 143.317427 
L 249.22679 145.688782 
L 251.482109 147.606673 
L 253.737428 149.13484 
L 255.992746 150.334668 
L 258.248065 151.263078 
L 260.503384 151.97118 
L 263.886362 152.716013 
L 267.26934 153.186698 
L 269.524658 153.394598 
L 269.524658 153.394598 
" clip-path="url(#p6ddfcefc5f)" style="fill: none; stroke: #ff0000; stroke-opacity: 0.8; stroke-linecap: square"/>
   </g>
   <g id="line2d_6">
    <path d="M 78.971457 152.980378 
L 79.780238 152.609178 
L 80.589018 152.100547 
L 81.397799 151.411847 
L 82.20658 150.490417 
L 83.01536 149.272367 
L 83.824141 147.681611 
L 84.632922 145.62933 
L 85.441702 143.014041 
L 86.250483 139.722478 
L 87.059264 135.631497 
L 87.868044 130.611178 
L 88.676825 124.529256 
L 89.485605 117.256945 
L 90.294386 108.676103 
L 91.103167 98.687569 
L 92.720728 74.241255 
L 94.338289 43.858885 
L 96.351522 -1 
M 114.722981 -1 
L 116.175366 32.033129 
L 117.792928 64.334931 
L 119.410489 90.874526 
L 121.02805 111.43412 
L 121.836831 119.603986 
L 122.645611 126.499959 
L 123.454392 132.244229 
L 124.263173 136.967305 
L 125.071953 140.801252 
L 125.880734 143.874293 
L 126.689515 146.306799 
L 127.498295 148.208566 
L 128.307076 149.677247 
L 129.115857 150.797735 
L 129.924637 151.642307 
L 130.733418 152.271307 
L 132.350979 153.070831 
L 133.96854 153.484615 
L 136.394882 153.746389 
L 140.438785 153.847348 
L 160.658301 153.857247 
L 167.937327 153.757784 
L 170.363669 153.560856 
L 171.98123 153.273815 
L 173.598791 152.750585 
L 174.407572 152.353546 
L 175.216353 151.832139 
L 176.025133 151.153916 
L 176.833914 150.280144 
L 177.642695 149.165256 
L 178.451475 147.756477 
L 179.260256 145.993668 
L 180.069037 143.809506 
L 180.877817 141.130065 
L 181.686598 137.875876 
L 182.495378 133.963561 
L 183.304159 129.308067 
L 184.11294 123.825559 
L 184.92172 117.436926 
L 185.730501 110.071874 
L 187.348062 92.203121 
L 188.965624 70.012689 
L 190.583185 43.738597 
L 192.988634 -1 
M 211.807925 -1 
L 214.037823 40.710679 
L 215.655384 67.393093 
L 217.272946 90.041081 
L 218.890507 108.362957 
L 220.508068 122.52811 
L 221.316849 128.193684 
L 222.12563 133.015242 
L 222.93441 137.076162 
L 223.743191 140.46165 
L 224.551971 143.255713 
L 225.360752 145.5388 
L 226.169533 147.386058 
L 226.978313 148.86617 
L 227.787094 150.040695 
L 228.595875 150.963834 
L 229.404655 151.682521 
L 231.022217 152.660225 
L 232.639778 153.221087 
L 234.257339 153.531143 
L 236.683681 153.746025 
L 239.918803 153.835262 
L 239.918803 153.835262 
" clip-path="url(#p6ddfcefc5f)" style="fill: none; stroke: #808080; stroke-opacity: 0.6; stroke-linecap: square"/>
   </g>
   <g id="line2d_7">
    <path d="M 45.659985 152.808992 
L 49.012226 152.086443 
L 51.247054 151.388064 
L 53.481881 150.460729 
L 55.716709 149.248005 
L 57.951536 147.686299 
L 60.186364 145.706292 
L 62.421191 143.23529 
L 64.656019 140.200618 
L 66.890846 136.53406 
L 69.125674 132.177259 
L 71.360501 127.08786 
L 73.595328 121.246047 
L 75.830156 114.660983 
L 78.064983 107.376562 
L 80.299811 99.475815 
L 83.652052 86.752997 
L 91.473948 56.447759 
L 93.708776 48.737548 
L 95.943603 41.934587 
L 97.061017 38.951526 
L 98.178431 36.285472 
L 99.295844 33.961906 
L 100.413258 32.003367 
L 101.530672 30.429085 
L 102.648086 29.254668 
L 103.765499 28.491842 
L 104.882913 28.148259 
L 106.000327 28.227363 
L 107.11774 28.728335 
L 108.235154 29.646104 
L 109.352568 30.971431 
L 110.469982 32.691059 
L 111.587395 34.787936 
L 112.704809 37.241487 
L 113.822223 40.027948 
L 116.05705 46.490905 
L 118.291878 53.938119 
L 121.644119 66.377351 
L 130.583429 100.78201 
L 132.818256 108.46954 
L 135.053084 115.476871 
L 137.287911 121.712264 
L 139.522739 127.117852 
L 141.757566 131.66417 
L 143.992394 135.343538 
L 145.109807 136.859943 
L 146.227221 138.163046 
L 147.344635 139.254935 
L 148.462049 140.137823 
L 149.579462 140.813898 
L 150.696876 141.285188 
L 151.81429 141.553459 
L 152.931704 141.620139 
L 154.049117 141.486277 
L 155.166531 141.152517 
L 156.283945 140.619119 
L 157.401358 139.885996 
L 158.518772 138.952788 
L 159.636186 137.818951 
L 160.7536 136.483883 
L 161.871013 134.947063 
L 164.105841 131.267447 
L 166.340668 126.783919 
L 168.575496 121.512942 
L 170.810323 115.489715 
L 173.045151 108.773791 
L 175.279978 101.45362 
L 178.632219 89.612331 
L 186.454116 61.0791 
L 188.688943 53.678499 
L 190.92377 47.04518 
L 193.158598 41.403262 
L 194.276012 39.017423 
L 195.393425 36.951215 
L 196.510839 35.223567 
L 197.628253 33.850479 
L 198.745667 32.844771 
L 199.86308 32.21589 
L 200.980494 31.969764 
L 202.097908 32.108709 
L 203.215322 32.631396 
L 204.332735 33.532873 
L 205.450149 34.804642 
L 206.567563 36.434794 
L 207.684976 38.408195 
L 208.80239 40.706721 
L 211.037218 46.193398 
L 213.272045 52.701412 
L 215.506873 60.010494 
L 218.859114 71.96151 
L 226.68101 100.50697 
L 230.033251 111.517793 
L 232.268079 118.135119 
L 234.502906 124.098009 
L 236.737734 129.37815 
L 238.972561 133.975507 
L 241.207388 137.913344 
L 243.442216 141.23283 
L 245.677043 143.987659 
L 247.911871 146.239066 
L 250.146698 148.051469 
L 252.381526 149.488902 
L 254.616353 150.612292 
L 256.851181 151.477559 
L 259.086008 152.13447 
L 262.438249 152.821585 
L 265.790491 153.252795 
L 268.025318 153.442125 
L 268.025318 153.442125 
" clip-path="url(#p6ddfcefc5f)" style="fill: none; stroke-dasharray: 14.8,6.4; stroke-dashoffset: 0; stroke: #0000ff; stroke-opacity: 0.4; stroke-width: 4"/>
   </g>
   <g id="line2d_8">
    <path d="M 123.009818 153.52534 
L 123.05121 150.061878 
L 123.123647 113.129674 
L 123.220796 -1 
M 124.640787 -1 
L 124.800047 108.081859 
L 124.851787 120.031519 
L 124.89318 107.400288 
L 124.924224 100.194818 
L 124.965617 118.471543 
L 125.069098 153.491946 
L 125.069098 153.491946 
" clip-path="url(#p6ddfcefc5f)" style="fill: none; stroke-dasharray: 14.8,6.4; stroke-dashoffset: 0; stroke: #008000; stroke-opacity: 0.4; stroke-width: 4"/>
   </g>
   <g id="patch_3">
    <path d="M 33.90024 153.85976 
L 280.744869 153.85976 
" style="fill: none; stroke: #000000; stroke-width: 0.8; stroke-linejoin: miter; stroke-linecap: square"/>
   </g>
  </g>
  <g id="axes_2">
   <g id="patch_4">
    <path d="M 330.410023 153.85976 
L 577.254651 153.85976 
L 577.254651 3.00024 
L 330.410023 3.00024 
z
" style="fill: #ffffff"/>
   </g>
   <g id="matplotlib.axis_3">
    <g id="xtick_4">
     <g id="line2d_9">
      <g>
       <use xlink:href="#m7e0568535d" x="344.557919" y="153.85976" style="stroke: #000000; stroke-width: 0.8"/>
      </g>
     </g>
     <g id="text_6">
      <!-- −3.0 -->
      <g transform="translate(323.272919 175.885073) scale(0.22 -0.22)">
       <defs>
        <path id="STIXGeneral-Regular-2212" d="M 3974 1408 
L 410 1408 
L 410 1830 
L 3974 1830 
L 3974 1408 
z
" transform="scale(0.015625)"/>
        <path id="STIXGeneral-Regular-33" d="M 390 3264 
L 288 3290 
Q 435 3770 748 4048 
Q 1062 4326 1542 4326 
Q 1990 4326 2265 4083 
Q 2541 3840 2541 3450 
Q 2541 2925 1946 2566 
Q 2298 2413 2477 2227 
Q 2758 1914 2758 1402 
Q 2758 890 2464 506 
Q 2246 211 1840 60 
Q 1434 -90 979 -90 
Q 262 -90 262 275 
Q 262 378 339 442 
Q 416 506 525 506 
Q 685 506 915 339 
Q 1197 141 1466 141 
Q 1818 141 2058 425 
Q 2298 710 2298 1120 
Q 2298 1856 1632 2048 
Q 1434 2112 979 2112 
L 979 2202 
Q 1338 2323 1517 2432 
Q 2035 2726 2035 3290 
Q 2035 3610 1852 3776 
Q 1670 3942 1344 3942 
Q 768 3942 390 3264 
z
" transform="scale(0.015625)"/>
       </defs>
       <use xlink:href="#STIXGeneral-Regular-2212"/>
       <use xlink:href="#STIXGeneral-Regular-33" transform="translate(68.499985 0)"/>
       <use xlink:href="#STIXGeneral-Regular-2e" transform="translate(118.499969 0)"/>
       <use xlink:href="#STIXGeneral-Regular-30" transform="translate(143.499954 0)"/>
      </g>
     </g>
    </g>
    <g id="xtick_5">
     <g id="line2d_10">
      <g>
       <use xlink:href="#m7e0568535d" x="440.655951" y="153.85976" style="stroke: #000000; stroke-width: 0.8"/>
      </g>
     </g>
     <g id="text_7">
      <!-- −1.5 -->
      <g transform="translate(419.370951 175.885073) scale(0.22 -0.22)">
       <defs>
        <path id="STIXGeneral-Regular-35" d="M 2803 4358 
L 2573 3814 
Q 2534 3731 2400 3731 
L 1158 3731 
L 902 3187 
Q 1606 3053 1920 2896 
Q 2234 2739 2502 2368 
Q 2726 2061 2726 1555 
Q 2726 1094 2576 780 
Q 2426 467 2099 224 
Q 1664 -90 1011 -90 
Q 646 -90 422 19 
Q 198 128 198 307 
Q 198 550 486 550 
Q 717 550 960 352 
Q 1210 147 1414 147 
Q 1747 147 2012 480 
Q 2278 813 2278 1229 
Q 2278 1843 1850 2189 
Q 1293 2637 486 2637 
Q 410 2637 410 2688 
L 416 2720 
L 1114 4237 
L 2438 4237 
Q 2547 4237 2608 4269 
Q 2669 4301 2746 4403 
L 2803 4358 
z
" transform="scale(0.015625)"/>
       </defs>
       <use xlink:href="#STIXGeneral-Regular-2212"/>
       <use xlink:href="#STIXGeneral-Regular-31" transform="translate(68.499985 0)"/>
       <use xlink:href="#STIXGeneral-Regular-2e" transform="translate(118.499969 0)"/>
       <use xlink:href="#STIXGeneral-Regular-35" transform="translate(143.499954 0)"/>
      </g>
     </g>
    </g>
    <g id="xtick_6">
     <g id="line2d_11">
      <g>
       <use xlink:href="#m7e0568535d" x="536.753982" y="153.85976" style="stroke: #000000; stroke-width: 0.8"/>
      </g>
     </g>
     <g id="text_8">
      <!-- 0.0 -->
      <g transform="translate(523.003982 175.885073) scale(0.22 -0.22)">
       <use xlink:href="#STIXGeneral-Regular-30"/>
       <use xlink:href="#STIXGeneral-Regular-2e" transform="translate(49.999985 0)"/>
       <use xlink:href="#STIXGeneral-Regular-30" transform="translate(74.999969 0)"/>
      </g>
     </g>
    </g>
    <g id="text_9">
     <!-- $\dot{i}$ : $q$ -->
     <g transform="translate(433.552337 207.356947) scale(0.26 -0.26)">
      <defs>
       <path id="STIXGeneral-Italic-71" d="M 3098 2739 
L 2042 -966 
Q 2029 -1018 2029 -1037 
Q 2029 -1235 2394 -1235 
L 2490 -1235 
L 2490 -1338 
L 973 -1338 
L 973 -1235 
Q 1267 -1216 1382 -1139 
Q 1498 -1062 1555 -877 
L 2131 979 
Q 1754 378 1466 154 
Q 1178 -70 800 -70 
Q 499 -70 329 128 
Q 160 326 160 672 
Q 160 1165 445 1670 
Q 730 2176 1168 2499 
Q 1606 2822 2035 2822 
Q 2438 2822 2528 2426 
L 2630 2739 
L 3098 2739 
z
M 2432 2298 
Q 2432 2458 2323 2570 
Q 2214 2682 2054 2682 
Q 1792 2682 1459 2368 
Q 1133 2054 921 1606 
Q 710 1158 710 762 
Q 710 269 1050 269 
Q 1312 269 1574 499 
Q 1901 781 2166 1341 
Q 2432 1901 2432 2298 
z
" transform="scale(0.015625)"/>
      </defs>
      <use xlink:href="#STIXGeneral-Regular-307" transform="translate(39.949997 25.796875)"/>
      <use xlink:href="#STIXGeneral-Italic-69" transform="translate(0 0.1875)"/>
      <use xlink:href="#STIXGeneral-Regular-20" transform="translate(27.799988 0.1875)"/>
      <use xlink:href="#STIXGeneral-Regular-3a" transform="translate(52.799973 0.1875)"/>
      <use xlink:href="#STIXGeneral-Regular-20" transform="translate(80.59996 0.1875)"/>
      <use xlink:href="#STIXGeneral-Italic-71" transform="translate(105.599945 0.1875)"/>
     </g>
    </g>
   </g>
   <g id="matplotlib.axis_4">
    <g id="ytick_2">
     <g id="line2d_12"/>
    </g>
    <g id="text_10">
     <!--   -->
     <g transform="translate(317.26721 81.68) rotate(-90) scale(0.26 -0.26)">
      <use xlink:href="#STIXGeneral-Regular-20"/>
     </g>
    </g>
   </g>
   <g id="line2d_13">
    <path d="M 344.907718 153.185911 
L 348.214742 152.71092 
L 351.521765 151.956601 
L 353.726447 151.237448 
L 355.931129 150.292404 
L 358.135811 149.068373 
L 360.340493 147.506025 
L 362.545175 145.541168 
L 364.749857 143.106909 
L 366.954539 140.136715 
L 369.159222 136.568346 
L 371.363904 132.348609 
L 373.568586 127.438716 
L 375.773268 121.819984 
L 377.97795 115.499445 
L 380.182632 108.514902 
L 382.387314 100.938875 
L 385.694337 88.715624 
L 393.410725 59.253715 
L 395.615407 51.59259 
L 397.820089 44.714104 
L 400.024771 38.851382 
L 401.127112 36.367089 
L 402.229453 34.211812 
L 403.331794 32.405455 
L 404.434135 30.964893 
L 405.536476 29.903702 
L 406.638817 29.231955 
L 407.741158 28.956052 
L 408.843499 29.078626 
L 409.94584 29.598497 
L 411.048181 30.51069 
L 412.150523 31.806513 
L 413.252864 33.473695 
L 414.355205 35.496575 
L 415.457546 37.856346 
L 417.662228 43.497378 
L 419.86691 50.195293 
L 422.071592 57.720147 
L 425.378615 70.019669 
L 431.992661 95.300762 
L 435.299685 106.903317 
L 437.504367 113.906951 
L 439.709049 120.213178 
L 441.913731 125.761421 
L 444.118413 130.518021 
L 446.323095 134.470532 
L 448.527777 137.621397 
L 449.630118 138.899483 
L 450.732459 139.98163 
L 451.8348 140.869603 
L 452.937141 141.565032 
L 454.039482 142.069291 
L 455.141824 142.3834 
L 456.244165 142.507959 
L 457.346506 142.443096 
L 458.448847 142.188457 
L 459.551188 141.743211 
L 460.653529 141.106094 
L 461.75587 140.275469 
L 462.858211 139.249423 
L 463.960552 138.025879 
L 465.062893 136.602737 
L 466.165234 134.978033 
L 468.369916 131.117835 
L 470.574598 126.43932 
L 472.77928 120.951106 
L 474.983962 114.682949 
L 477.188645 107.691762 
L 479.393327 100.066486 
L 482.70035 87.720804 
L 490.416737 57.961602 
L 492.621419 50.259986 
L 494.826101 43.37599 
L 497.030783 37.548063 
L 498.133124 35.097298 
L 499.235466 32.986519 
L 500.337807 31.235581 
L 501.440148 29.861131 
L 502.542489 28.876355 
L 503.64483 28.290758 
L 504.747171 28.110025 
L 505.849512 28.33592 
L 506.951853 28.966266 
L 508.054194 29.994977 
L 509.156535 31.412158 
L 510.258876 33.204262 
L 511.361217 35.354308 
L 512.463558 37.842151 
L 514.66824 43.736729 
L 516.872922 50.676367 
L 519.077604 58.42231 
L 522.384628 71.000719 
L 528.998674 96.629061 
L 532.305697 108.329821 
L 534.510379 115.396386 
L 536.715061 121.784146 
L 538.919743 127.455144 
L 541.124425 132.403105 
L 543.329108 136.648151 
L 545.53379 140.230943 
L 547.738472 143.206755 
L 549.943154 145.63992 
L 552.147836 147.598931 
L 554.352518 149.152399 
L 556.5572 150.36594 
L 558.761882 151.299992 
L 560.966564 152.008455 
L 564.273587 152.748409 
L 564.273587 152.748409 
" clip-path="url(#pc8d832bf5b)" style="fill: none; stroke: #ff0000; stroke-opacity: 0.8; stroke-linecap: square"/>
   </g>
   <g id="line2d_14">
    <path d="M 375.254866 153.796297 
L 378.362895 153.575905 
L 379.916909 153.291119 
L 381.470923 152.761113 
L 382.24793 152.353267 
L 383.024938 151.812661 
L 383.801945 151.103181 
L 384.578952 150.181355 
L 385.355959 148.995647 
L 386.132966 147.485936 
L 386.909973 145.583271 
L 387.68698 143.210013 
L 388.463987 140.280478 
L 389.240995 136.70218 
L 390.018002 132.377778 
L 390.795009 127.207804 
L 391.572016 121.094199 
L 392.349023 113.944658 
L 393.903037 96.228339 
L 395.457052 73.641302 
L 397.011066 46.22284 
L 398.56508 14.640486 
L 399.282278 -1 
M 417.934686 -1 
L 419.544273 33.388459 
L 421.098287 62.845628 
L 422.652301 87.624831 
L 424.206316 107.429265 
L 425.76033 122.509326 
L 426.537337 128.458451 
L 427.314344 133.470808 
L 428.091351 137.646941 
L 428.868358 141.08815 
L 429.645366 143.892977 
L 430.422373 146.154533 
L 431.19938 147.958621 
L 431.976387 149.382574 
L 432.753394 150.494702 
L 433.530401 151.354244 
L 434.307408 152.01169 
L 435.861423 152.882281 
L 437.415437 153.361843 
L 438.969451 153.615494 
L 442.07748 153.80725 
L 449.070544 153.858807 
L 473.934772 153.762121 
L 476.265794 153.542241 
L 477.819808 153.19785 
L 479.373822 152.535699 
L 480.150829 152.01584 
L 480.927836 151.318226 
L 481.704843 150.392633 
L 482.481851 149.178495 
L 483.258858 147.604053 
L 484.035865 145.585878 
L 484.812872 143.028925 
L 485.589879 139.827287 
L 486.366886 135.865823 
L 487.143893 131.022827 
L 487.9209 125.173825 
L 488.697908 118.196597 
L 489.474915 109.977368 
L 490.251922 100.418056 
L 491.805936 77.014168 
L 493.35995 47.828066 
L 494.913965 13.47164 
L 495.516233 -1 
M 513.896508 -1 
L 515.11615 27.683923 
L 516.670164 60.115647 
L 518.224179 87.02735 
L 519.778193 108.139851 
L 520.5552 116.625512 
L 521.332207 123.847512 
L 522.109214 129.917058 
L 522.886221 134.955205 
L 523.663229 139.086431 
L 524.440236 142.433373 
L 525.217243 145.112781 
L 525.99425 147.232626 
L 526.771257 148.890268 
L 527.548264 150.17154 
L 528.325271 151.150566 
L 529.102279 151.890143 
L 529.879286 152.442524 
L 529.879286 152.442524 
" clip-path="url(#pc8d832bf5b)" style="fill: none; stroke: #808080; stroke-opacity: 0.6; stroke-linecap: square"/>
   </g>
   <g id="line2d_15">
    <path d="M 341.630233 153.375529 
L 345.013211 153.016481 
L 348.396189 152.433552 
L 350.651508 151.867874 
L 352.906826 151.113772 
L 355.162145 150.123084 
L 357.417464 148.840668 
L 359.672782 147.205224 
L 361.928101 145.150861 
L 364.18342 142.609522 
L 366.438738 139.514348 
L 368.694057 135.803942 
L 370.949376 131.427447 
L 373.204694 126.350206 
L 375.460013 120.559664 
L 377.715332 114.071064 
L 379.97065 106.932417 
L 383.353628 95.200728 
L 387.864266 78.389405 
L 392.374903 61.683167 
L 394.630222 53.959219 
L 396.88554 46.987619 
L 399.140859 41.007514 
L 400.268518 38.457639 
L 401.396178 36.233454 
L 402.523837 34.355841 
L 403.651496 32.842643 
L 404.779156 31.708383 
L 405.906815 30.964032 
L 407.034474 30.61683 
L 408.162134 30.670171 
L 409.289793 31.123543 
L 410.417452 31.972541 
L 411.545112 33.208929 
L 412.672771 34.820779 
L 413.80043 36.792659 
L 414.92809 39.105871 
L 416.055749 41.73875 
L 418.311068 47.864038 
L 420.566386 54.9493 
L 422.821705 62.752049 
L 427.332343 79.503792 
L 431.84298 96.205003 
L 435.225958 107.745317 
L 437.481277 114.697372 
L 439.736595 120.942917 
L 441.991914 126.421096 
L 444.247233 131.098256 
L 446.502551 134.961969 
L 447.630211 136.589089 
L 448.75787 138.014466 
L 449.885529 139.239602 
L 451.013189 140.266126 
L 452.140848 141.09564 
L 453.268507 141.729576 
L 454.396167 142.16908 
L 455.523826 142.414915 
L 456.651485 142.467406 
L 457.779145 142.326395 
L 458.906804 141.991243 
L 460.034463 141.460847 
L 461.162123 140.733697 
L 462.289782 139.807954 
L 463.417441 138.681562 
L 464.545101 137.352378 
L 465.67276 135.818332 
L 466.800419 134.077602 
L 469.055738 129.971225 
L 471.311057 125.031303 
L 473.566375 119.273224 
L 475.821694 112.7365 
L 478.077013 105.49079 
L 481.459991 93.531304 
L 485.970628 76.387971 
L 490.481265 59.443603 
L 492.736584 51.673526 
L 494.991903 44.720005 
L 497.247221 38.829681 
L 498.374881 36.352802 
L 499.50254 34.220436 
L 500.630199 32.453162 
L 501.757859 31.068223 
L 502.885518 30.079253 
L 504.013177 29.496051 
L 505.140837 29.324428 
L 506.268496 29.566105 
L 507.396155 30.21869 
L 508.523815 31.275719 
L 509.651474 32.726758 
L 510.779133 34.557582 
L 511.906793 36.750401 
L 513.034452 39.284155 
L 515.289771 45.275911 
L 517.545089 52.312654 
L 519.800408 60.146918 
L 523.183386 72.824084 
L 529.949342 98.463822 
L 533.33232 110.066984 
L 535.587639 117.035098 
L 537.842957 123.303209 
L 540.098276 128.839075 
L 542.353595 133.642451 
L 544.608913 137.739323 
L 546.864232 141.175662 
L 549.119551 144.011223 
L 551.37487 146.313823 
L 553.630188 148.154388 
L 555.885507 149.602951 
L 558.140826 150.725654 
L 560.396144 151.58271 
L 562.651463 152.227231 
L 566.034441 152.893101 
L 566.034441 152.893101 
" clip-path="url(#pc8d832bf5b)" style="fill: none; stroke-dasharray: 14.8,6.4; stroke-dashoffset: 0; stroke: #0000ff; stroke-opacity: 0.4; stroke-width: 4"/>
   </g>
   <g id="line2d_16">
    <path d="M 469.731584 153.67343 
L 469.789369 152.745128 
L 469.866416 146.848597 
L 469.981987 114.606831 
L 470.216517 -1 
M 473.054491 -1 
L 473.256481 135.993083 
L 473.564668 153.711972 
L 473.564668 153.711972 
" clip-path="url(#pc8d832bf5b)" style="fill: none; stroke-dasharray: 14.8,6.4; stroke-dashoffset: 0; stroke: #008000; stroke-opacity: 0.4; stroke-width: 4"/>
   </g>
   <g id="patch_5">
    <path d="M 330.410023 153.85976 
L 577.254651 153.85976 
" style="fill: none; stroke: #000000; stroke-width: 0.8; stroke-linejoin: miter; stroke-linecap: square"/>
   </g>
  </g>
  <g id="axes_3">
   <g id="patch_6">
    <path d="M 614.155131 153.85976 
L 860.99976 153.85976 
L 860.99976 3.00024 
L 614.155131 3.00024 
z
" style="fill: #ffffff"/>
   </g>
   <g id="matplotlib.axis_5">
    <g id="xtick_7">
     <g id="line2d_17">
      <g>
       <use xlink:href="#m7e0568535d" x="710.074322" y="153.85976" style="stroke: #000000; stroke-width: 0.8"/>
      </g>
     </g>
     <g id="text_11">
      <!-- −0.8 -->
      <g transform="translate(688.789322 175.885073) scale(0.22 -0.22)">
       <use xlink:href="#STIXGeneral-Regular-2212"/>
       <use xlink:href="#STIXGeneral-Regular-30" transform="translate(68.499985 0)"/>
       <use xlink:href="#STIXGeneral-Regular-2e" transform="translate(118.499969 0)"/>
       <use xlink:href="#STIXGeneral-Regular-38" transform="translate(143.499954 0)"/>
      </g>
     </g>
    </g>
    <g id="xtick_8">
     <g id="line2d_18">
      <g>
       <use xlink:href="#m7e0568535d" x="810.335056" y="153.85976" style="stroke: #000000; stroke-width: 0.8"/>
      </g>
     </g>
     <g id="text_12">
      <!-- 0.0 -->
      <g transform="translate(796.585056 175.885073) scale(0.22 -0.22)">
       <use xlink:href="#STIXGeneral-Regular-30"/>
       <use xlink:href="#STIXGeneral-Regular-2e" transform="translate(49.999985 0)"/>
       <use xlink:href="#STIXGeneral-Regular-30" transform="translate(74.999969 0)"/>
      </g>
     </g>
    </g>
    <g id="text_13">
     <!-- $\dot{i}$ : $i$ -->
     <g transform="translate(720.157446 202.416947) scale(0.26 -0.26)">
      <use xlink:href="#STIXGeneral-Regular-307" transform="translate(39.949997 25.796875)"/>
      <use xlink:href="#STIXGeneral-Italic-69" transform="translate(0 0.1875)"/>
      <use xlink:href="#STIXGeneral-Regular-20" transform="translate(27.799988 0.1875)"/>
      <use xlink:href="#STIXGeneral-Regular-3a" transform="translate(52.799973 0.1875)"/>
      <use xlink:href="#STIXGeneral-Regular-20" transform="translate(80.59996 0.1875)"/>
      <use xlink:href="#STIXGeneral-Italic-69" transform="translate(105.599945 0.1875)"/>
     </g>
    </g>
   </g>
   <g id="matplotlib.axis_6">
    <g id="ytick_3">
     <g id="line2d_19"/>
    </g>
    <g id="text_14">
     <!--   -->
     <g transform="translate(601.012319 81.68) rotate(-90) scale(0.26 -0.26)">
      <use xlink:href="#STIXGeneral-Regular-20"/>
     </g>
    </g>
   </g>
   <g id="line2d_20">
    <path d="M 625.375342 153.059806 
L 628.551391 152.520043 
L 630.668758 151.999872 
L 632.786124 151.30999 
L 634.90349 150.407881 
L 637.020857 149.244988 
L 639.138223 147.767405 
L 641.255589 145.9172 
L 643.372956 143.634459 
L 645.490322 140.860099 
L 647.607688 137.539454 
L 649.725055 133.626543 
L 651.842421 129.088853 
L 653.959787 123.912352 
L 656.077154 118.106393 
L 658.19452 111.708067 
L 661.37057 101.157972 
L 665.605302 85.929424 
L 669.840035 70.594531 
L 673.016085 60.01023 
L 675.133451 53.801445 
L 677.250817 48.514583 
L 678.309501 46.275672 
L 679.368184 44.333935 
L 680.426867 42.707029 
L 681.48555 41.409915 
L 682.544233 40.454626 
L 683.602917 39.850083 
L 684.6616 39.601952 
L 685.720283 39.712562 
L 686.778966 40.180861 
L 687.837649 41.002436 
L 688.896332 42.16958 
L 689.955016 43.671409 
L 691.013699 45.494035 
L 692.072382 47.62077 
L 694.189748 52.707398 
L 696.307115 58.752279 
L 698.424481 65.550828 
L 701.600531 76.681831 
L 709.011313 103.293303 
L 712.187362 113.52933 
L 714.304729 119.648062 
L 716.422095 125.11633 
L 718.539461 129.890471 
L 720.656828 133.948981 
L 722.774194 137.287249 
L 724.89156 139.911939 
L 725.950244 140.960507 
L 727.008927 141.835544 
L 728.06761 142.538726 
L 729.126293 143.071537 
L 730.184976 143.435177 
L 731.24366 143.630488 
L 732.302343 143.657904 
L 733.361026 143.517421 
L 734.419709 143.208599 
L 735.478392 142.730579 
L 736.537075 142.082125 
L 737.595759 141.261697 
L 738.654442 140.267532 
L 739.713125 139.097757 
L 741.830491 136.224117 
L 743.947858 132.628804 
L 746.065224 128.307678 
L 748.18259 123.270059 
L 750.299957 117.544353 
L 752.417323 111.183168 
L 755.593373 100.635109 
L 759.828105 85.359815 
L 764.062838 69.975777 
L 766.180204 62.765896 
L 768.297571 56.175749 
L 770.414937 50.42296 
L 772.532304 45.706434 
L 773.590987 43.791026 
L 774.64967 42.19514 
L 775.708353 40.93359 
L 776.767036 40.018186 
L 777.825719 39.457556 
L 778.884403 39.257012 
L 779.943086 39.418462 
L 781.001769 39.940388 
L 782.060452 40.817865 
L 783.119135 42.042642 
L 784.177818 43.603269 
L 785.236502 45.485279 
L 786.295185 47.671409 
L 788.412551 52.874612 
L 790.529918 59.029702 
L 792.647284 65.928685 
L 795.823333 77.187344 
L 803.234116 104.000956 
L 806.410165 114.318783 
L 808.527532 120.513084 
L 810.644898 126.090421 
L 812.762264 131.025531 
L 814.879631 135.319535 
L 816.996997 138.99522 
L 819.114363 142.091946 
L 821.23173 144.660605 
L 823.349096 146.75895 
L 825.466462 148.447537 
L 827.583829 149.786414 
L 829.701195 150.832604 
L 831.818562 151.638363 
L 833.935928 152.250133 
L 836.053294 152.708079 
L 836.053294 152.708079 
" clip-path="url(#pac2d685867)" style="fill: none; stroke: #ff0000; stroke-opacity: 0.8; stroke-linecap: square"/>
   </g>
   <g id="line2d_21">
    <path d="M 657.871556 153.382938 
L 659.325531 152.930683 
L 660.779506 152.114785 
L 661.506494 151.501057 
L 662.233481 150.700628 
L 662.960469 149.667266 
L 663.687457 148.346769 
L 664.414444 146.676653 
L 665.141432 144.586179 
L 665.86842 141.996812 
L 666.595407 138.823227 
L 667.322395 134.974948 
L 668.049382 130.358699 
L 668.77637 124.881519 
L 669.503358 118.454627 
L 670.957333 102.445524 
L 672.411308 81.891947 
L 673.865283 56.757276 
L 675.319259 27.572712 
L 676.6188 -1 
M 693.350435 -1 
L 694.947925 33.832427 
L 696.4019 62.26916 
L 697.855875 86.492972 
L 699.30985 106.099778 
L 700.763826 121.223151 
L 702.217801 132.363265 
L 702.944789 136.652692 
L 703.671776 140.212319 
L 704.398764 143.134678 
L 705.125751 145.508443 
L 705.852739 147.416374 
L 706.579727 148.933945 
L 707.306714 150.128575 
L 708.033702 151.059361 
L 708.76069 151.7772 
L 710.214665 152.739378 
L 711.66864 153.278793 
L 713.122615 153.569389 
L 715.303578 153.764 
L 719.665504 153.851636 
L 745.110071 153.850245 
L 749.471997 153.745455 
L 751.65296 153.511267 
L 753.106935 153.16101 
L 754.56091 152.510958 
L 755.287898 152.012305 
L 756.014885 151.353222 
L 756.741873 150.49116 
L 757.468861 149.375411 
L 758.195848 147.946536 
L 758.922836 146.136084 
L 759.649824 143.866698 
L 760.376811 141.052742 
L 761.103799 137.601566 
L 761.830786 133.415498 
L 762.557774 128.394658 
L 763.284762 122.440622 
L 764.011749 115.460932 
L 765.465725 98.116806 
L 766.9197 75.955456 
L 768.373675 49.042596 
L 769.82765 18.090061 
L 770.662781 -1 
M 787.34211 -1 
L 789.456316 45.510659 
L 790.910292 72.961299 
L 792.364267 95.709059 
L 793.818242 113.618701 
L 795.272217 127.050574 
L 795.999205 132.287127 
L 796.726193 136.664939 
L 797.45318 140.283908 
L 798.180168 143.242524 
L 798.907155 145.634856 
L 799.634143 147.548369 
L 800.361131 149.062488 
L 801.088118 150.247836 
L 801.815106 151.166007 
L 802.542094 151.869765 
L 802.542094 151.869765 
" clip-path="url(#pac2d685867)" style="fill: none; stroke: #808080; stroke-opacity: 0.6; stroke-linecap: square"/>
   </g>
   <g id="line2d_22">
    <path d="M 633.463155 153.542042 
L 637.506269 153.179146 
L 640.538605 152.695537 
L 643.570941 151.926351 
L 645.592499 151.192582 
L 647.614056 150.2283 
L 649.635613 148.979799 
L 651.657171 147.38741 
L 653.678728 145.38704 
L 655.700285 142.91254 
L 657.721843 139.898972 
L 659.7434 136.286753 
L 661.764957 132.026557 
L 663.786515 127.084774 
L 665.808072 121.449177 
L 667.829629 115.134381 
L 669.851187 108.186572 
L 672.883523 96.765643 
L 676.926637 80.38561 
L 680.969752 64.073089 
L 682.991309 56.508505 
L 685.012867 49.658276 
L 687.034424 43.752608 
L 688.045202 41.219948 
L 689.055981 38.998613 
L 690.06676 37.108902 
L 691.077538 35.56825 
L 692.088317 34.39096 
L 693.099096 33.587983 
L 694.109874 33.166742 
L 695.120653 33.131027 
L 696.131432 33.480927 
L 697.14221 34.212842 
L 698.152989 35.319534 
L 699.163768 36.790251 
L 700.174546 38.610896 
L 701.185325 40.764249 
L 703.206882 45.986233 
L 705.22844 52.267089 
L 707.249997 59.38834 
L 710.282333 71.129033 
L 717.357784 99.421637 
L 720.39012 110.342263 
L 722.411677 116.865827 
L 724.433234 122.681883 
L 726.454792 127.734208 
L 728.476349 131.989056 
L 730.497906 135.429342 
L 731.508685 136.841743 
L 732.519464 138.048572 
L 733.530242 139.04973 
L 734.541021 139.845109 
L 735.5518 140.434469 
L 736.562578 140.817341 
L 737.573357 140.992953 
L 738.584135 140.960191 
L 739.594914 140.717585 
L 740.605693 140.263328 
L 741.616471 139.595324 
L 742.62725 138.711273 
L 743.638029 137.608777 
L 744.648807 136.285484 
L 745.659586 134.739247 
L 746.670365 132.968314 
L 748.691922 128.748586 
L 750.713479 123.62835 
L 752.735037 117.63024 
L 754.756594 110.804707 
L 756.778151 103.236332 
L 759.810487 90.771738 
L 768.907495 51.824405 
L 770.929053 44.520811 
L 772.95061 38.304164 
L 773.961389 35.679887 
L 774.972167 33.413998 
L 775.982946 31.529323 
L 776.993725 30.045066 
L 778.004503 28.976499 
L 779.015282 28.334696 
L 780.026061 28.126351 
L 781.036839 28.353663 
L 782.047618 29.014298 
L 783.058397 30.101435 
L 784.069175 31.60388 
L 785.079954 33.506264 
L 786.090733 35.789301 
L 787.101511 38.430117 
L 789.123068 44.677988 
L 791.144626 52.010724 
L 793.166183 60.160191 
L 797.209298 77.788558 
L 801.252412 95.434904 
L 804.284748 107.641746 
L 806.306306 115.007119 
L 808.327863 121.648832 
L 810.34942 127.523186 
L 812.370978 132.622982 
L 814.392535 136.971255 
L 816.414092 140.614301 
L 818.43565 143.614667 
L 820.457207 146.044599 
L 822.478764 147.980361 
L 824.500322 149.497607 
L 826.521879 150.667915 
L 828.543436 151.556434 
L 830.564994 152.220522 
L 833.59733 152.900866 
L 834.608108 153.063356 
L 834.608108 153.063356 
" clip-path="url(#pac2d685867)" style="fill: none; stroke-dasharray: 14.8,6.4; stroke-dashoffset: 0; stroke: #0000ff; stroke-opacity: 0.4; stroke-width: 4"/>
   </g>
   <g id="line2d_23">
    <path d="M 838.494031 153.812934 
L 838.664165 153.583766 
L 838.834298 152.804994 
L 839.571543 147.718703 
L 839.798388 147.663181 
L 839.91181 146.924477 
L 840.025232 144.634541 
L 840.195366 135.452957 
L 840.42221 106.524847 
L 841.09242 -1 
M 847.785697 -1 
L 848.248349 93.760097 
L 848.531904 123.000677 
L 849.155727 146.534516 
L 849.439283 152.465068 
L 849.666127 153.675021 
L 849.77955 153.807982 
L 849.77955 153.807982 
" clip-path="url(#pac2d685867)" style="fill: none; stroke-dasharray: 14.8,6.4; stroke-dashoffset: 0; stroke: #008000; stroke-opacity: 0.4; stroke-width: 4"/>
   </g>
   <g id="patch_7">
    <path d="M 614.155131 153.85976 
L 860.99976 153.85976 
" style="fill: none; stroke: #000000; stroke-width: 0.8; stroke-linejoin: miter; stroke-linecap: square"/>
   </g>
  </g>
 </g>
 <defs>
  <clipPath id="p6ddfcefc5f">
   <rect x="33.90024" y="3.00024" width="246.844629" height="150.85952"/>
  </clipPath>
  <clipPath id="pc8d832bf5b">
   <rect x="330.410023" y="3.00024" width="246.844629" height="150.85952"/>
  </clipPath>
  <clipPath id="pac2d685867">
   <rect x="614.155131" y="3.00024" width="246.844629" height="150.85952"/>
  </clipPath>
 </defs>
</svg>
